<svg xmlns="http://www.w3.org/2000/svg" width="200" height="200" viewBox="0 0 200 200">
  <title>icons</title>
  <g>
    <path d="M128.616,26.359c0-.341,0-.682-.021-1.022a4.5,4.5,0,0,1-.967.358c-11.736,2.764-19.743,9.626-23.866,20.394C114.611,45.032,124.218,36.709,128.616,26.359Z" fill="none"/>
    <path d="M56.537,69.505C51.368,82.638,51.8,95.963,54.83,109.368q.381,1.692.82,3.356a51.243,51.243,0,0,0,46.274,38.015c16.951,1.092,38.37-.787,57.533-12.212.187-.506.383-1.01.559-1.519-12.294-6.7-19-16.671-19.933-29.649-.942-13.051,4.135-23.625,15.507-32.265-4.428-5.861-10.492-9.7-18.478-11.709-8.071-2.033-15.557-1.4-22.25,1.876-9.126,4.468-17.924,4.492-27.686.077a29.135,29.135,0,0,0-23.386-.265,35.4,35.4,0,0,0-7,3.836C56.71,69.109,56.616,69.3,56.537,69.505Z" fill="none"/>
    <path d="M101.924,150.739A51.243,51.243,0,0,1,55.65,112.724q-.438-1.665-.82-3.356c-3.03-13.4-3.462-26.73,1.707-39.863.079-.2.173-.4.257-.6A37.91,37.91,0,0,0,43.356,85.858c-4.49,11.41-5,23.7-1.617,38.691a95.93,95.93,0,0,0,21.293,41.78C66.8,170.7,70.847,173.472,75.4,174.8h4.16l3.569-1.25c2.836-.991,5.672-1.982,8.5-3a32.57,32.57,0,0,1,21.576-.374c3.449,1.128,6.985,2.216,10.4,3.267q2.19.675,4.378,1.353h.906c8.615-1.373,13.589-7.384,18.745-14.509a90.029,90.029,0,0,0,11.816-21.759C140.294,149.952,118.875,151.831,101.924,150.739Z" fill="#1085fd"/>
    <path d="M122.436,177.266q2.328.717,4.655,1.438a1.97,1.97,0,0,0,.6.091h1.365a2.037,2.037,0,0,0,.3-.023c10.222-1.56,16.017-8.525,21.528-16.14a92.141,92.141,0,0,0,13.474-25.991,2,2,0,0,0-1-2.4c-12.1-6.106-18.4-14.994-19.281-27.17-.875-12.14,4.177-21.921,15.445-29.9a2,2,0,0,0,.507-2.744c-5.082-7.607-12.256-12.489-21.935-14.925-9.015-2.27-17.421-1.542-24.986,2.163-8.082,3.956-15.57,3.964-24.278.024a33.371,33.371,0,0,0-26.54-.326A41.721,41.721,0,0,0,39.634,84.394c-4.8,12.19-5.369,25.23-1.8,41.036A99.89,99.89,0,0,0,60,168.94c4.369,5.072,9.141,8.272,14.588,9.783a2.012,2.012,0,0,0,.535.072H79.9a2,2,0,0,0,.663-.113l3.886-1.361c2.846-1,5.692-1.99,8.529-3.007a28.268,28.268,0,0,1,18.984-.336C115.448,175.115,119,176.209,122.436,177.266ZM63.79,65.073a29.135,29.135,0,0,1,23.386.265c9.762,4.415,18.56,4.391,27.686-.077,6.693-3.276,14.179-3.909,22.25-1.876,7.986,2.01,14.05,5.848,18.478,11.709-11.372,8.64-16.449,19.214-15.507,32.265.935,12.978,7.639,22.946,19.933,29.649-.176.509-.372,1.013-.559,1.519a90.029,90.029,0,0,1-11.816,21.759c-5.156,7.125-10.13,13.136-18.745,14.509h-.906q-2.187-.679-4.378-1.353c-3.419-1.051-6.955-2.139-10.4-3.267a32.57,32.57,0,0,0-21.576.374c-2.828,1.014-5.664,2-8.5,3l-3.569,1.25H75.4c-4.556-1.323-8.605-4.095-12.371-8.466a95.93,95.93,0,0,1-21.293-41.78c-3.387-14.987-2.873-27.281,1.617-38.691A37.91,37.91,0,0,1,56.794,68.909,35.4,35.4,0,0,1,63.79,65.073Z" fill="#060928"/>
    <path d="M103.762,46.089c-.376.983-.732,1.986-1.043,3.033a31.95,31.95,0,0,0-.952,6.293c-.029.335-.058.674-.089,1.014,6.531-.242,13.084-3.43,18.259-8.947a31.041,31.041,0,0,0,8.679-21.123C124.218,36.709,114.611,45.032,103.762,46.089Z" fill="#de2f5c"/>
    <path d="M97.782,55.071c-.089,1.027-.177,2.055-.308,3.075A2,2,0,0,0,99.337,60.4q.766.048,1.535.047c7.9,0,15.835-3.672,21.982-10.225,7.161-7.633,10.729-17.824,9.547-27.263a2,2,0,0,0-1.984-1.751h-2.048a2,2,0,0,0-.841.186c-.16.074-.318.156-.476.24-.122.065-.291.155-.341.172-14.3,3.367-23.666,12.176-27.827,26.18A35.335,35.335,0,0,0,97.782,55.071ZM127.628,25.7a4.5,4.5,0,0,0,.967-.358c.017.34.018.681.021,1.022a31.041,31.041,0,0,1-8.679,21.123c-5.175,5.517-11.728,8.7-18.259,8.947.031-.34.06-.679.089-1.014a31.95,31.95,0,0,1,.952-6.293c.311-1.047.667-2.05,1.043-3.033C107.885,35.321,115.892,28.459,127.628,25.7Z" fill="#060928"/>
  </g>
</svg>
