<svg xmlns="http://www.w3.org/2000/svg" width="200" height="200" viewBox="0 0 200 200">
  <title>icons</title>
  <g>
    <path d="M96.287,152.679h3.851a26.653,26.653,0,0,0,16.529-24.655v-11.48H71.633v11.48A24.682,24.682,0,0,0,96.287,152.679Z" fill="none"/>
    <path d="M110.93,89.17v11.687a1.714,1.714,0,1,0,3.428,0V89.17a1.714,1.714,0,1,0-3.428,0Z" fill="none"/>
    <path d="M116.667,83.456V71.976a26.653,26.653,0,0,0-16.529-24.655H96.287A24.682,24.682,0,0,0,71.633,71.976v11.48Z" fill="none"/>
    <path d="M84.585,89.17v11.687a1.715,1.715,0,1,0,3.429,0V89.17a1.715,1.715,0,0,0-3.429,0Z" fill="none"/>
    <path d="M116.667,71.976v11.48h11.7V71.976a24.682,24.682,0,0,0-24.654-24.655h-3.575A26.653,26.653,0,0,1,116.667,71.976Z" fill="#1085fd"/>
    <path d="M100.138,152.679h3.575a24.682,24.682,0,0,0,24.654-24.655v-11.48h-11.7v11.48A26.653,26.653,0,0,1,100.138,152.679Z" fill="#de2f5c"/>
    <path d="M96.287,156.679h2.442V177.3a2,2,0,0,0,4,0V156.679h.984a28.687,28.687,0,0,0,28.654-28.655v-13.48a2,2,0,0,0-2-2H69.633a2,2,0,0,0-2,2v13.48A28.687,28.687,0,0,0,96.287,156.679ZM71.633,116.544h56.734v11.48a24.682,24.682,0,0,1-24.654,24.655H96.287a24.682,24.682,0,0,1-24.654-24.655Z" fill="#060928"/>
    <path d="M69.633,87.456H80.849a5.679,5.679,0,0,0-.264,1.714v11.687a5.715,5.715,0,1,0,11.429,0V89.17a5.679,5.679,0,0,0-.264-1.714h15.443a5.71,5.71,0,0,0-.263,1.714v11.687a5.714,5.714,0,1,0,11.428,0V89.17a5.679,5.679,0,0,0-.263-1.714h12.272a2,2,0,0,0,2-2V71.976a28.687,28.687,0,0,0-28.654-28.655h-.984V22.7a2,2,0,0,0-4,0V43.321H96.287A28.687,28.687,0,0,0,67.633,71.976v13.48A2,2,0,0,0,69.633,87.456ZM88.014,89.17v11.687a1.715,1.715,0,1,1-3.429,0V89.17a1.715,1.715,0,0,1,3.429,0Zm26.344,0v11.687a1.714,1.714,0,1,1-3.428,0V89.17a1.714,1.714,0,1,1,3.428,0ZM71.633,71.976A24.682,24.682,0,0,1,96.287,47.321h7.426a24.682,24.682,0,0,1,24.654,24.655v11.48H71.633Z" fill="#060928"/>
  </g>
</svg>
