<svg xmlns="http://www.w3.org/2000/svg" width="200" height="200" viewBox="0 0 200 200">
  <title>icons</title>
  <g>
    <path d="M68.9,174.661h62.189a7.2,7.2,0,0,0,7.19-7.191V153.25H130.3v.515a9.189,9.189,0,0,1-9.19,9.19H109.431c.005.128.019.254.019.384a9.456,9.456,0,0,1-18.911,0c0-.13.014-.256.019-.384H61.71v4.515A7.2,7.2,0,0,0,68.9,174.661Z" fill="#1085fd"/>
    <rect x="130.296" y="40.26" width="7.983" height="108.99" fill="#1085fd"/>
    <path d="M138.279,36.26V30.852a7.2,7.2,0,0,0-7.19-7.191H130.3v12.6Z" fill="#1085fd"/>
    <path d="M101.34,30.2h8.924a4.937,4.937,0,0,0,4.931-4.932V24.161h-7.7v1.375C107.488,27.706,104.828,29.191,101.34,30.2Z" fill="#de2f5c"/>
    <path d="M103.335,159.035a7.45,7.45,0,0,1-7.439,7.126c-.2,0-.388-.016-.581-.031a5.45,5.45,0,1,0,8.02-7.095Z" fill="#de2f5c"/>
    <path d="M100,153.884a9.46,9.46,0,0,0-9.437,9.071c-.005.128-.019.254-.019.384a9.456,9.456,0,0,0,18.911,0c0-.13-.014-.256-.019-.384A9.458,9.458,0,0,0,100,153.884Zm5.455,9.455a5.473,5.473,0,1,1-2.115-4.3A5.461,5.461,0,0,1,105.45,163.339Z" fill="#060928"/>
    <path d="M35.456,104.976a29.122,29.122,0,0,0,11.84,9.229A32.922,32.922,0,0,1,42.065,104a35.447,35.447,0,0,1-8.108-3.74c-.171,0-.342-.005-.512-.005C32.572,100.255,33.885,102.5,35.456,104.976Z" fill="#de2f5c"/>
    <path d="M56.543,102.39c-.161.006-.321.011-.483.013.16.008.322.014.483.02Z" fill="#de2f5c"/>
    <path d="M56.543,116.2v-9.77a55.627,55.627,0,0,1-9.7-1.154C49.2,111.066,52.661,115.141,56.543,116.2Z" fill="#de2f5c"/>
    <path d="M68.908,69.5c.45.083.9.17,1.338.264q-.618-1.515-1.331-2.866C68.919,67.712,68.906,68.572,68.908,69.5Z" fill="#de2f5c"/>
    <path d="M69.789,60.838a32.912,32.912,0,0,1,5.232,10.205,32.928,32.928,0,0,1,10.206,5.232A29.126,29.126,0,0,0,69.789,60.838Z" fill="#de2f5c"/>
    <path d="M60.543,101.9v.52a49.941,49.941,0,0,0,11.228-1.673,49.949,49.949,0,0,0,1.674-11.229H69.969C69.09,97.415,65.482,100.757,60.543,101.9Z" fill="#de2f5c"/>
    <path d="M70.175,85.521h3.27a49.931,49.931,0,0,0-1.674-11.227q-1.3-.357-2.678-.644c.062.645.14,1.316.248,2.024A66.252,66.252,0,0,1,70.175,85.521Z" fill="#de2f5c"/>
    <path d="M60.543,106.429v9.77c3.881-1.058,7.339-5.133,9.7-10.923A55.725,55.725,0,0,1,60.543,106.429Z" fill="#de2f5c"/>
    <path d="M75.021,104a32.917,32.917,0,0,1-5.231,10.206A29.131,29.131,0,0,0,85.227,98.769,32.905,32.905,0,0,1,75.021,104Z" fill="#de2f5c"/>
    <path d="M87.221,85.521c-1.058-3.881-5.133-7.339-10.924-9.7a55.617,55.617,0,0,1,1.153,9.7Z" fill="#de2f5c"/>
    <path d="M87.221,89.521H77.45a55.629,55.629,0,0,1-1.153,9.7C82.088,96.861,86.163,93.4,87.221,89.521Z" fill="#de2f5c"/>
    <path d="M57.71,120.458V167.47A11.2,11.2,0,0,0,68.9,178.661h62.189a11.2,11.2,0,0,0,11.19-11.191V30.852a11.2,11.2,0,0,0-11.19-11.191H68.9A11.2,11.2,0,0,0,57.71,30.852V54.585a32.947,32.947,0,0,0,0,65.873Zm11.19-96.8H80.8v1.607A8.942,8.942,0,0,0,89.727,34.2h20.537a8.942,8.942,0,0,0,8.931-8.932V23.661h11.894a7.2,7.2,0,0,1,7.19,7.191V36.26H61.71V30.852A7.2,7.2,0,0,1,68.9,23.661Zm15.895.5h30.4v1.107a4.937,4.937,0,0,1-4.931,4.932H89.727A4.938,4.938,0,0,1,84.8,25.268ZM61.71,120.324a32.954,32.954,0,0,0,0-65.6V40.26h76.569V149.25H61.71Zm-16.4-19.574a49.949,49.949,0,0,1-1.674-11.229h12.9v12.9c-.161-.006-.323-.012-.483-.02A49.707,49.707,0,0,1,45.315,100.75Zm23.778-27.1q1.372.288,2.678.644a49.931,49.931,0,0,1,1.674,11.227h-12.9V72.62A51.272,51.272,0,0,1,69.093,73.65ZM87.221,89.521c-1.058,3.882-5.133,7.34-10.924,9.7a55.629,55.629,0,0,0,1.153-9.7ZM71.771,100.75a49.941,49.941,0,0,1-11.228,1.673v-12.9h12.9A49.949,49.949,0,0,1,71.771,100.75ZM60.543,116.2v-9.77a55.725,55.725,0,0,0,9.7-1.153C67.882,111.066,64.424,115.141,60.543,116.2Zm9.247-1.993A32.917,32.917,0,0,0,75.021,104a32.905,32.905,0,0,0,10.206-5.231A29.131,29.131,0,0,1,69.79,114.206ZM87.221,85.521H77.45a55.617,55.617,0,0,0-1.153-9.7C82.088,78.182,86.163,81.64,87.221,85.521Zm-12.2-14.478a32.912,32.912,0,0,0-5.232-10.205A29.126,29.126,0,0,1,85.227,76.275,32.928,32.928,0,0,0,75.021,71.043ZM68.915,66.9q.712,1.349,1.331,2.866c-.441-.094-.888-.181-1.338-.264a56.321,56.321,0,0,0-8.365-.889V58.844C63.748,59.718,66.664,62.647,68.915,66.9ZM56.543,58.844v9.771a55.629,55.629,0,0,0-9.7,1.153C49.2,63.978,52.661,59.9,56.543,58.844Zm0,13.776v12.9h-12.9a49.883,49.883,0,0,1,1.674-11.227A49.931,49.931,0,0,1,56.543,72.62Zm-16.907,12.9H29.865c1.059-3.881,5.134-7.338,10.924-9.7A55.617,55.617,0,0,0,39.636,85.521Zm0,4a55.617,55.617,0,0,0,1.153,9.7c-5.79-2.363-9.865-5.821-10.924-9.7Zm16.907,16.908v9.77c-3.882-1.058-7.34-5.133-9.7-10.924A55.627,55.627,0,0,0,56.543,106.429Zm5.167,56.526V153.25h76.569v14.22a7.2,7.2,0,0,1-7.19,7.191H68.9a7.2,7.2,0,0,1-7.19-7.191ZM47.3,60.838a32.917,32.917,0,0,0-5.231,10.206,32.9,32.9,0,0,0-10.2,5.231A29.129,29.129,0,0,1,47.3,60.838ZM33.957,100.26A35.447,35.447,0,0,0,42.065,104a32.922,32.922,0,0,0,5.231,10.2A29.164,29.164,0,0,1,31.86,98.769Q32.844,99.546,33.957,100.26Z" fill="#060928"/>
    <path d="M25.091,67.238a2,2,0,0,0,2.61-1.09c.04-.1,4.134-9.795,14.348-12.15a2,2,0,1,0-.9-3.9C28.943,52.915,24.2,64.151,24,64.628A2,2,0,0,0,25.091,67.238Z" fill="#060928"/>
  </g>
</svg>
