<svg xmlns="http://www.w3.org/2000/svg" width="200" height="200" viewBox="0 0 200 200">
  <title>icons</title>
  <g>
    <path d="M82.293,117.214q.147.65.315,1.29a19.7,19.7,0,0,0,17.79,14.615c6.017.388,13.5-.207,20.408-3.756.138-.324.289-.647.415-.974a14.985,14.985,0,0,1-1.942-24.516,11.382,11.382,0,0,0-5.653-3.144,10.993,10.993,0,0,0-7.712.633,12.842,12.842,0,0,1-11.693.046,9.994,9.994,0,0,0-8.02-.083,12.791,12.791,0,0,0-3.922,2.557A26.594,26.594,0,0,0,82.293,117.214Z" fill="none"/>
    <path d="M109.016,86.352a9.934,9.934,0,0,0,.338-1.555,10.674,10.674,0,0,0-6.8,6.041A12.014,12.014,0,0,0,109.016,86.352Z" fill="none"/>
    <path d="M117.4,57.615a6.954,6.954,0,1,1-6.253-11.871A37.274,37.274,0,0,0,94.925,33.876a34.991,34.991,0,0,0-15.531,6.288c-.043.052-.08.107-.128.156a1.99,1.99,0,0,1-.669.442A35.162,35.162,0,0,0,64.818,66.7h54.2A37.067,37.067,0,0,0,117.4,57.615ZM87.347,59.5a6.961,6.961,0,1,1,6.96-6.961A6.969,6.969,0,0,1,87.347,59.5Z" fill="none"/>
    <path d="M64.762,143.916a3.9,3.9,0,0,0,3.9,3.9h4.476a2,2,0,0,1,2,2V165.5a7.692,7.692,0,0,0,7.683,7.683h.357a7.692,7.692,0,0,0,7.683-7.683V149.814a2,2,0,0,1,2-2h14.282a2,2,0,0,1,2,2V165.5a7.692,7.692,0,0,0,7.683,7.683h.357a7.692,7.692,0,0,0,7.683-7.683V149.814a2,2,0,0,1,2-2h4.377a3.9,3.9,0,0,0,3.9-3.9V77.438H64.762Zm32.7-48.334c.049-.376.081-.755.114-1.132a14.551,14.551,0,0,1,.469-2.969A14.928,14.928,0,0,1,109.5,80.6c.092-.049.156-.082.22-.111a1.993,1.993,0,0,1,.843-.186h.788a2,2,0,0,1,1.984,1.751,14.465,14.465,0,0,1-3.994,11.476,12.963,12.963,0,0,1-9.349,4.321c-.222,0-.443-.007-.665-.021a2,2,0,0,1-1.863-2.251ZM75.305,107.161A17.293,17.293,0,0,1,84.7,97.618a14.052,14.052,0,0,1,11.173.146,8.9,8.9,0,0,0,8.285.007,16.024,16.024,0,0,1,19.6,5.327,2,2,0,0,1-.508,2.743c-4.005,2.837-5.728,6.141-5.421,10.4.3,4.212,2.508,7.3,6.74,9.435a2,2,0,0,1,1,2.4,36.648,36.648,0,0,1-5.355,10.337c-2.186,3.023-4.69,6.029-9.088,6.7a2.024,2.024,0,0,1-.3.023H110.3a2,2,0,0,1-.595-.091l-1.776-.548c-1.354-.417-2.709-.834-4.056-1.273a9.681,9.681,0,0,0-6.5.118c-1.084.388-2.173.768-3.261,1.149l-1.519.531a1.971,1.971,0,0,1-.663.114H90.1a2.011,2.011,0,0,1-.534-.073,12.534,12.534,0,0,1-6.213-4.143,39.631,39.631,0,0,1-8.789-17.261C73.129,117.331,73.366,112.089,75.305,107.161Z" fill="none"/>
    <path d="M151.474,113.293a8.964,8.964,0,0,0,6.988-3.341V83.9a6.989,6.989,0,1,0-13.977,0v26.056A8.967,8.967,0,0,0,151.474,113.293Z" fill="none"/>
    <path d="M98.907,189.042h-.6v2.4h.48c.491,0,.792-.215.792-.887v-.648C99.579,189.306,99.375,189.042,98.907,189.042Z" fill="none"/>
    <path d="M48.427,113.293a8.967,8.967,0,0,0,6.989-3.341V83.9a6.989,6.989,0,1,0-13.978,0v26.056A8.967,8.967,0,0,0,48.427,113.293Z" fill="none"/>
    <path d="M137.139,73.438H62.762a2,2,0,0,0-2,2v68.478a7.907,7.907,0,0,0,7.9,7.9h2.476V165.5a11.7,11.7,0,0,0,11.683,11.683h.357A11.7,11.7,0,0,0,94.859,165.5V151.814h10.282V165.5a11.7,11.7,0,0,0,11.683,11.683h.357A11.7,11.7,0,0,0,128.864,165.5V151.814h2.377a7.907,7.907,0,0,0,7.9-7.9V75.438A2,2,0,0,0,137.139,73.438Zm-2,70.478a3.9,3.9,0,0,1-3.9,3.9h-4.377a2,2,0,0,0-2,2V165.5a7.692,7.692,0,0,1-7.683,7.683h-.357a7.692,7.692,0,0,1-7.683-7.683V149.814a2,2,0,0,0-2-2H92.859a2,2,0,0,0-2,2V165.5a7.692,7.692,0,0,1-7.683,7.683h-.357a7.692,7.692,0,0,1-7.683-7.683V149.814a2,2,0,0,0-2-2H68.66a3.9,3.9,0,0,1-3.9-3.9V77.438h70.377Z" fill="#060928"/>
    <path d="M111.142,45.744A6.949,6.949,0,0,1,117.4,57.615,37.067,37.067,0,0,1,119.02,66.7h16.063A35.187,35.187,0,0,0,94.925,33.876,37.274,37.274,0,0,1,111.142,45.744Z" fill="#de2f5c"/>
    <path d="M125.186,38.754,144.93,19.01a2,2,0,1,0-2.828-2.828L121.975,36.309a39.1,39.1,0,0,0-43.958-.065L57.955,16.182a2,2,0,1,0-2.828,2.828L74.8,38.682A39.116,39.116,0,0,0,60.762,68.7a2,2,0,0,0,2,2h74.377a2,2,0,0,0,2-2A39.113,39.113,0,0,0,125.186,38.754ZM78.6,40.762a1.99,1.99,0,0,0,.669-.442c.048-.049.085-.1.128-.156A35.167,35.167,0,0,1,135.083,66.7H64.818A35.162,35.162,0,0,1,78.6,40.762Z" fill="#060928"/>
    <path d="M48.427,113.293a8.967,8.967,0,0,1-6.989-3.341v7.762a6.989,6.989,0,1,0,13.978,0v-7.762A8.967,8.967,0,0,1,48.427,113.293Z" fill="#de2f5c"/>
    <path d="M48.427,72.907A11,11,0,0,0,37.438,83.9v33.818a10.989,10.989,0,0,0,21.978,0V83.9A11,11,0,0,0,48.427,72.907Zm0,4A7,7,0,0,1,55.416,83.9v33.818a6.989,6.989,0,1,1-13.978,0V83.9A7,7,0,0,1,48.427,76.907Z" fill="#060928"/>
    <path d="M151.474,113.293a8.967,8.967,0,0,1-6.989-3.341v7.762a6.989,6.989,0,1,0,13.977,0v-7.762A8.964,8.964,0,0,1,151.474,113.293Z" fill="#1085fd"/>
    <path d="M151.474,72.907A11,11,0,0,0,140.485,83.9v33.818a10.989,10.989,0,1,0,21.977,0V83.9A11,11,0,0,0,151.474,72.907Zm0,4a7,7,0,0,1,6.988,6.989v33.818a6.989,6.989,0,1,1-13.977,0V83.9A7,7,0,0,1,151.474,76.907Z" fill="#060928"/>
    <path d="M87.347,45.574a6.961,6.961,0,1,0,6.96,6.96A6.968,6.968,0,0,0,87.347,45.574Zm0,9.921a2.961,2.961,0,1,1,2.96-2.961A2.964,2.964,0,0,1,87.347,55.5Z" fill="#060928"/>
    <path d="M119.614,52.534a6.988,6.988,0,1,0-2.219,5.081A6.968,6.968,0,0,0,119.614,52.534Zm-9.921,0a2.961,2.961,0,1,1,2.96,2.961A2.964,2.964,0,0,1,109.693,52.534Z" fill="#060928"/>
    <path d="M100.4,133.119A19.7,19.7,0,0,1,82.608,118.5q-.168-.641-.315-1.29a26.594,26.594,0,0,1-.014-13.332,13.232,13.232,0,0,0-3.252,4.744c-1.631,4.145-1.811,8.643-.567,14.152a35.685,35.685,0,0,0,7.919,15.531,8.818,8.818,0,0,0,4,2.827h1.208l1.2-.421c1.078-.377,2.156-.753,3.231-1.139a13.7,13.7,0,0,1,9.093-.154c1.324.432,2.656.842,3.989,1.252l1.5.462h.063c2.792-.486,4.512-2.583,6.31-5.069a34.37,34.37,0,0,0,3.829-6.7C113.9,132.912,106.415,133.507,100.4,133.119Z" fill="#1085fd"/>
    <path d="M83.348,140.92a12.534,12.534,0,0,0,6.213,4.143,2.011,2.011,0,0,0,.534.073h1.837a1.971,1.971,0,0,0,.663-.114l1.519-.531c1.088-.381,2.177-.761,3.261-1.149a9.681,9.681,0,0,1,6.5-.118c1.347.439,2.7.856,4.056,1.273l1.776.548a2,2,0,0,0,.595.091h.525a2.024,2.024,0,0,0,.3-.023c4.4-.671,6.9-3.677,9.088-6.7a36.648,36.648,0,0,0,5.355-10.337,2,2,0,0,0-1-2.4c-4.232-2.136-6.436-5.223-6.74-9.435-.307-4.261,1.416-7.565,5.421-10.4a2,2,0,0,0,.508-2.743,16.024,16.024,0,0,0-19.6-5.327,8.9,8.9,0,0,1-8.285-.007A14.052,14.052,0,0,0,84.7,97.618a17.293,17.293,0,0,0-9.392,9.543c-1.939,4.928-2.176,10.17-.746,16.5A39.631,39.631,0,0,0,83.348,140.92ZM86.2,101.325a9.994,9.994,0,0,1,8.02.083,12.842,12.842,0,0,0,11.693-.046,10.993,10.993,0,0,1,7.712-.633,11.382,11.382,0,0,1,5.653,3.144,14.985,14.985,0,0,0,1.942,24.516c-.126.327-.277.65-.415.974a34.37,34.37,0,0,1-3.829,6.7c-1.8,2.486-3.518,4.583-6.31,5.069H110.6l-1.5-.462c-1.333-.41-2.665-.82-3.989-1.252a13.7,13.7,0,0,0-9.093.154c-1.075.386-2.153.762-3.231,1.139l-1.2.421H90.384a8.818,8.818,0,0,1-4-2.827,35.685,35.685,0,0,1-7.919-15.531c-1.244-5.509-1.064-10.007.567-14.152a13.232,13.232,0,0,1,3.252-4.744A12.791,12.791,0,0,1,86.2,101.325Z" fill="#060928"/>
    <path d="M102.555,90.838a14.4,14.4,0,0,0-.671,1.782,6.737,6.737,0,0,0-.2,1.036,9.59,9.59,0,0,0,4.747-2.859,11.313,11.313,0,0,0,2.59-4.445A12.014,12.014,0,0,1,102.555,90.838Z" fill="#de2f5c"/>
    <path d="M99.329,97.833c.222.014.443.021.665.021a12.963,12.963,0,0,0,9.349-4.321,14.465,14.465,0,0,0,3.994-11.476,2,2,0,0,0-1.984-1.751h-.788a1.993,1.993,0,0,0-.843.186c-.064.029-.128.062-.22.111A14.928,14.928,0,0,0,98.049,91.481a14.551,14.551,0,0,0-.469,2.969c-.033.377-.065.756-.114,1.132a2,2,0,0,0,1.863,2.251ZM109.354,84.8a9.934,9.934,0,0,1-.338,1.555,11.313,11.313,0,0,1-2.59,4.445,9.59,9.59,0,0,1-4.747,2.859,6.737,6.737,0,0,1,.2-1.036,14.4,14.4,0,0,1,.671-1.782A10.674,10.674,0,0,1,109.354,84.8Z" fill="#060928"/>
  </g>
</svg>
