<svg xmlns="http://www.w3.org/2000/svg" width="200" height="200" viewBox="0 0 200 200">
  <title>icons</title>
  <g>
    <path d="M65.7,109.5a2,2,0,0,1,2.843,2.814l-25.8,26.065h95.671a21.387,21.387,0,0,0,15.142-6.257l-19.61-19.808a2,2,0,1,1,2.842-2.814l19.335,19.529a21.343,21.343,0,0,0,3.746-12.105V63.344L116.748,109.92a22.829,22.829,0,0,1-16.791,7.394h-.136a22.821,22.821,0,0,1-16.738-7.2L27.777,51.692a7.024,7.024,0,0,0-1.423,4.236v82.454H37.1Z" fill="none"/>
    <path d="M74.571,95.3c10.018,6.53,26.93,9.519,33.985,1.9l47.7-48.34H33.423a7.02,7.02,0,0,0-2.412.433Z" fill="none"/>
    <path d="M171.452,50.821,159.86,63.344v53.583a21.343,21.343,0,0,1-3.746,12.105L166.872,139.9a2,2,0,1,1-2.843,2.815l-10.482-10.587a21.387,21.387,0,0,1-15.142,6.257H42.734l-4.287,4.33A2,2,0,0,1,35.6,139.9l1.5-1.515H26.354v5.69a7.077,7.077,0,0,0,7.069,7.07H166.577a7.077,7.077,0,0,0,7.069-7.07V55.928A7.043,7.043,0,0,0,171.452,50.821Z" fill="#1085fd"/>
    <path d="M172.294,46.467c-.036-.023-.072-.045-.109-.066a10.979,10.979,0,0,0-5.608-1.543H33.423a11.082,11.082,0,0,0-11.069,11.07v88.144a11.082,11.082,0,0,0,11.069,11.07H166.577a11.082,11.082,0,0,0,11.069-11.07V55.928A11.065,11.065,0,0,0,172.294,46.467Zm1.352,97.605a7.077,7.077,0,0,1-7.069,7.07H33.423a7.077,7.077,0,0,1-7.069-7.07V55.928a7.024,7.024,0,0,1,1.423-4.236l55.306,58.417a22.821,22.821,0,0,0,16.738,7.2h.136a22.829,22.829,0,0,0,16.791-7.394L159.86,63.344l11.592-12.523a7.043,7.043,0,0,1,2.194,5.107ZM156.255,48.858l.642-.65,11.574-.054L113.813,107.2a18.872,18.872,0,0,1-13.879,6.111h-.112a18.868,18.868,0,0,1-13.835-5.955L74.571,95.3l-43.56-46.01a7.02,7.02,0,0,1,2.412-.433Z" fill="#060928"/>
    <path d="M74.571,95.3l11.416,12.058a18.868,18.868,0,0,0,13.835,5.955h.112a18.872,18.872,0,0,0,13.879-6.111l54.658-59.049-11.574.054-.642.65-47.7,48.34C101.5,104.82,84.589,101.831,74.571,95.3Z" fill="#de2f5c"/>
    <path d="M68.525,109.489a2,2,0,0,0-2.829.014L37.1,138.382,35.6,139.9a2,2,0,1,0,2.843,2.815l4.287-4.33,25.805-26.065A2,2,0,0,0,68.525,109.489Z" fill="#060928"/>
    <path d="M133.951,109.489a2,2,0,0,0-.014,2.828l19.61,19.808,10.482,10.587a2,2,0,0,0,2.843-2.815l-10.758-10.865L136.779,109.5A2,2,0,0,0,133.951,109.489Z" fill="#060928"/>
  </g>
</svg>
