<svg xmlns="http://www.w3.org/2000/svg" width="200" height="200" viewBox="0 0 200 200">
  <title>icons</title>
  <g>
    <path d="M68.906,174.661h62.188a7.2,7.2,0,0,0,7.191-7.19V153.25H130.3v.515a9.19,9.19,0,0,1-9.191,9.19H109.436c0,.128.02.254.02.384a9.456,9.456,0,0,1-18.912,0c0-.13.015-.256.02-.384H61.715v4.516A7.2,7.2,0,0,0,68.906,174.661Z" fill="#1085fd"/>
    <path d="M138.285,36.26V30.852a7.2,7.2,0,0,0-7.191-7.191H130.3v12.6Z" fill="#1085fd"/>
    <rect x="130.302" y="40.26" width="7.983" height="108.99" fill="#1085fd"/>
    <path d="M131.094,19.661H68.906A11.2,11.2,0,0,0,57.715,30.852V167.471a11.2,11.2,0,0,0,11.191,11.19h62.188a11.2,11.2,0,0,0,11.191-11.19V30.852A11.2,11.2,0,0,0,131.094,19.661ZM61.715,162.955V153.25h76.57v14.221a7.2,7.2,0,0,1-7.191,7.19H68.906a7.2,7.2,0,0,1-7.191-7.19ZM68.906,23.661H80.8v1.607A8.942,8.942,0,0,0,89.731,34.2h20.538a8.942,8.942,0,0,0,8.931-8.931V23.661h11.894a7.2,7.2,0,0,1,7.191,7.191V36.26H61.715V30.852A7.2,7.2,0,0,1,68.906,23.661Zm15.894.5h30.4v1.107a4.937,4.937,0,0,1-4.931,4.931H89.731A4.937,4.937,0,0,1,84.8,25.268ZM61.715,40.26h76.57V149.25H61.715Z" fill="#060928"/>
    <path d="M101.347,30.2h8.922a4.937,4.937,0,0,0,4.931-4.931V24.161h-7.7v1.375C107.493,27.705,104.834,29.19,101.347,30.2Z" fill="#de2f5c"/>
    <path d="M103.34,159.035a7.45,7.45,0,0,1-7.439,7.126c-.2,0-.388-.016-.58-.031a5.45,5.45,0,1,0,8.019-7.095Z" fill="#de2f5c"/>
    <path d="M100,153.884a9.458,9.458,0,0,0-9.436,9.071c0,.128-.02.254-.02.384a9.456,9.456,0,0,0,18.912,0c0-.13-.015-.256-.02-.384A9.458,9.458,0,0,0,100,153.884Zm5.456,9.455a5.474,5.474,0,1,1-2.116-4.3A5.462,5.462,0,0,1,105.456,163.339Z" fill="#060928"/>
    <polygon points="79.215 76.718 85.547 91.906 113.669 91.906 119.906 76.718 79.215 76.718" fill="#de2f5c"/>
    <path d="M124.55,73.6a2,2,0,0,0-1.661-.886H77.442L75.39,68.674a2,2,0,0,0-1.784-1.1H64.785a2,2,0,0,0,0,4h7.594L74.4,75.552l7.972,19.124a2,2,0,0,0,1.846,1.23h30.8a2,2,0,0,0,1.85-1.24l7.879-19.188A2,2,0,0,0,124.55,73.6Zm-39,18.3L79.215,76.718h40.691l-6.237,15.188Z" fill="#060928"/>
    <path d="M110.669,105.371a1.739,1.739,0,1,0,1.74,1.738A1.741,1.741,0,0,0,110.669,105.371Z" fill="#de2f5c"/>
    <path d="M110.669,101.371a5.739,5.739,0,1,0,5.74,5.738A5.745,5.745,0,0,0,110.669,101.371Zm0,7.478a1.739,1.739,0,1,1,1.74-1.74A1.742,1.742,0,0,1,110.669,108.849Z" fill="#060928"/>
    <path d="M89.868,105.371a1.739,1.739,0,1,0,1.739,1.738A1.741,1.741,0,0,0,89.868,105.371Z" fill="#de2f5c"/>
    <path d="M89.868,101.371a5.739,5.739,0,1,0,5.739,5.738A5.745,5.745,0,0,0,89.868,101.371Zm0,7.478a1.739,1.739,0,1,1,1.739-1.74A1.742,1.742,0,0,1,89.868,108.849Z" fill="#060928"/>
    <path d="M92.869,129.118v-.046c1.1-.449,1.6-1.461,1.6-3.081v-.63c0-2.429-1.1-3.621-3.667-3.621H87.065v15.745h3.892c2.474,0,3.756-1.305,3.756-3.734V132.4C94.713,130.737,94.2,129.567,92.869,129.118Zm-3.329-5.129h1.192c.877,0,1.259.495,1.259,1.619v.878c0,1.259-.561,1.664-1.484,1.664H89.54Zm2.7,9.695c0,1.17-.45,1.552-1.282,1.552H89.54V130.4h1.1c1.125,0,1.6.45,1.6,1.912Z" fill="#060928"/>
    <path d="M101.057,133.931c0,1.125-.472,1.53-1.26,1.53s-1.259-.405-1.259-1.53V121.74H96.063v12.011c0,2.519,1.26,3.959,3.69,3.959s3.689-1.44,3.689-3.959V121.74h-2.385Z" fill="#060928"/>
    <polygon points="108.841 127.521 108.796 127.521 107.109 121.74 104.477 121.74 107.469 130.782 107.469 137.485 109.943 137.485 109.943 130.782 112.935 121.74 110.528 121.74 108.841 127.521" fill="#060928"/>
  </g>
</svg>
