<svg xmlns="http://www.w3.org/2000/svg" width="200" height="200" viewBox="0 0 200 200">
  <title>icons</title>
  <g>
    <path d="M111.739,144.291c.018.254.031.511.031.77a10.457,10.457,0,0,1-19.714,4.877,68.937,68.937,0,0,1-8.876.592A68.159,68.159,0,0,1,47.164,140.3a66.452,66.452,0,1,0,96.523-90.357,68.5,68.5,0,0,1-31.948,94.349Z" fill="#1085fd"/>
    <path d="M100,29.511A70.489,70.489,0,1,0,170.489,100,70.569,70.569,0,0,0,100,29.511Zm0,4A66.441,66.441,0,1,1,33.511,100,66.19,66.19,0,0,1,100,33.511Z" fill="#060928"/>
    <path d="M110.339,100.81c-6.44,8.69-8.53,13.78-8.53,19.02a5.685,5.685,0,0,1-5.69,5.69H95.63v.18a3.448,3.448,0,0,0,.108.848,3.66,3.66,0,0,0,3.582,2.843h3a3.686,3.686,0,0,0,3.69-3.691c0-5.956,2.419-11.433,8.924-20.211,7.591-10.116,10.546-17.5,10.546-26.359,0-8.495-2.171-14.843-6.464-18.939a34.669,34.669,0,0,1,2.263,13.069C121.279,82.39,118.429,90.03,110.339,100.81Z" fill="#de2f5c"/>
    <path d="M79.815,88.594A9.793,9.793,0,0,0,96.53,81.67V78.08c0-7.329,2.994-8.34,6.23-8.34a9.4,9.4,0,0,1,1.844.172c2.046.4,4.4,1.7,4.4,8.168,0,6.935-1.46,13.038-8.915,23.707-7.018,9.95-8.455,16.516-8.455,23.313v.6a7.334,7.334,0,0,0,.224,1.8,7.633,7.633,0,0,0,7.466,5.892h3a7.685,7.685,0,0,0,7.69-7.691c0-4.993,2.2-9.825,8.13-17.82,8.161-10.874,11.34-18.935,11.34-28.75,0-11.792-4.052-20.384-11.722-24.848a28.848,28.848,0,0,0-14.7-3.512c-16.837,0-26.11,10.072-26.11,28.36v2.54a9.838,9.838,0,0,0,2.865,6.924ZM80.95,79.13c0-16.164,7.439-24.36,22.11-24.36a24.944,24.944,0,0,1,12.682,2.967h0a17.436,17.436,0,0,1,3.272,2.453c4.293,4.1,6.464,10.444,6.464,18.939,0,8.855-2.955,16.243-10.546,26.359-6.5,8.778-8.924,14.255-8.924,20.211a3.686,3.686,0,0,1-3.69,3.691h-3a3.66,3.66,0,0,1-3.582-2.843,3.448,3.448,0,0,1-.108-.848v-.6c0-6.208,1.292-11.887,7.729-21.015C110.478,93.9,113,87.094,113,78.08c0-7.028-2.564-11.1-7.613-12.09a13.281,13.281,0,0,0-2.627-.25c-6.788,0-10.23,4.152-10.23,12.34v3.59a5.792,5.792,0,0,1-9.885,4.1,5.569,5.569,0,0,1-1.187-1.73,5.625,5.625,0,0,1-.508-2.366Z" fill="#060928"/>
    <path d="M98.5,148.33a8.375,8.375,0,0,1-3.075-.582c.028.06.049.122.079.182a6.463,6.463,0,1,0,11.275-6.287A8.468,8.468,0,0,1,98.5,148.33Z" fill="#de2f5c"/>
    <path d="M101.3,155.53a10.481,10.481,0,0,0,10.47-10.469c0-.259-.013-.516-.031-.77a10.421,10.421,0,0,0-7.412-9.259,10.662,10.662,0,0,0-3.027-.442,10.482,10.482,0,0,0-10.47,10.471,10.264,10.264,0,0,0,1.1,4.656c.038.077.089.145.129.221A10.378,10.378,0,0,0,101.3,155.53Zm0-16.94a6.692,6.692,0,0,1,1.878.273,6.472,6.472,0,1,1-7.672,9.067c-.03-.06-.051-.122-.079-.182a6.316,6.316,0,0,1-.6-2.687A6.477,6.477,0,0,1,101.3,138.59Z" fill="#060928"/>
  </g>
</svg>
