<svg xmlns="http://www.w3.org/2000/svg" width="200" height="200" viewBox="0 0 200 200">
  <title>icons</title>
  <g>
    <rect x="82.04" y="155.666" width="35.921" height="8.497" fill="none"/>
    <path d="M113.438,168.163H70.63a4.517,4.517,0,0,0-4.511,4.512v1.237H97.1C106.282,172.219,111.06,169.838,113.438,168.163Z" fill="none"/>
    <path d="M100,127.616a8.09,8.09,0,0,1,8.015,7.087h48.448a8.553,8.553,0,0,0,8.507-7.663H19.369V134.7H91.985A8.09,8.09,0,0,1,100,127.616Z" fill="none"/>
    <path d="M145.33,91.023a8.265,8.265,0,0,0,8.265-8.266V67.839a8.027,8.027,0,0,0-.051-.868H42.627a6.273,6.273,0,0,0-6.266,6.266V88.155a6.223,6.223,0,0,0,.7,2.868ZM114.713,71.39l1.3,14.3h.053l1.382-14.3h3.191l1.382,14.3h.053l1.3-14.3h2.527L124.019,90h-3.642l-1.33-12.55h-.053L117.664,90h-3.882L111.9,71.39Zm-18.95,0,1.3,14.3h.053L98.5,71.39h3.191l1.382,14.3h.054l1.3-14.3h2.526L105.068,90h-3.642L100.1,77.452h-.053L98.713,90H94.832L92.944,71.39Zm-18.95,0,1.3,14.3h.053l1.382-14.3h3.19l1.384,14.3h.053l1.3-14.3h2.526L86.119,90H82.476l-1.329-12.55h-.053L79.765,90H75.882L73.994,71.39Z" fill="none"/>
    <path d="M165.017,123.04V94.875a10.239,10.239,0,0,1-7.743,3.546H42.627A10.277,10.277,0,0,1,32.361,88.155V73.237A10.277,10.277,0,0,1,42.627,62.971H157.274a10.237,10.237,0,0,1,7.743,3.547V29.18H25.923a6.563,6.563,0,0,0-6.554,6.554V123.04Zm-87.471-15.8h45.33a2,2,0,0,1,0,4H77.546a2,2,0,1,1,0-4Z" fill="none"/>
    <path d="M25.923,144.358H174.077a6.562,6.562,0,0,0,6.554-6.553V127.04H164.97a8.553,8.553,0,0,1-8.507,7.663H108.015a7.983,7.983,0,0,1,.068,1,8.083,8.083,0,0,1-16.166,0,7.983,7.983,0,0,1,.068-1H19.369v3.1A6.562,6.562,0,0,0,25.923,144.358Z" fill="#1085fd"/>
    <path d="M167.54,73.237V88.155a10.216,10.216,0,0,1-2.523,6.72V123.04h15.614V35.734a6.563,6.563,0,0,0-6.554-6.554h-9.06V66.518A10.213,10.213,0,0,1,167.54,73.237Z" fill="#1085fd"/>
    <rect x="82.04" y="148.358" width="35.921" height="7.308" fill="#1085fd"/>
    <path d="M133.881,173.912v-1.237a4.517,4.517,0,0,0-4.511-4.512H113.438c-2.378,1.675-7.156,4.056-16.343,5.749Z" fill="#de2f5c"/>
    <path d="M78.04,148.358v15.805H70.63a8.521,8.521,0,0,0-8.511,8.512v3.237a2,2,0,0,0,2,2h71.762a2,2,0,0,0,2-2v-3.237a8.521,8.521,0,0,0-8.511-8.512h-7.41V148.358h52.117a10.566,10.566,0,0,0,10.554-10.553V35.734A10.567,10.567,0,0,0,174.077,25.18H25.923A10.567,10.567,0,0,0,15.369,35.734v88.859a1.877,1.877,0,0,0,0,.894v12.318a10.566,10.566,0,0,0,10.554,10.553ZM19.369,134.7V127.04H180.631v10.765a6.562,6.562,0,0,1-6.554,6.553H25.923a6.562,6.562,0,0,1-6.554-6.553Zm46.75,37.972a4.517,4.517,0,0,1,4.511-4.512h58.74a4.517,4.517,0,0,1,4.511,4.512v1.237H66.119Zm15.921-8.512V148.358h35.92v15.805ZM25.923,29.18H174.077a6.563,6.563,0,0,1,6.554,6.554V123.04H19.369V35.734A6.563,6.563,0,0,1,25.923,29.18Z" fill="#060928"/>
    <path d="M100,127.616a8.09,8.09,0,0,0-8.015,7.087,7.983,7.983,0,0,0-.068,1,8.083,8.083,0,0,0,16.166,0,7.983,7.983,0,0,0-.068-1A8.09,8.09,0,0,0,100,127.616Zm4.083,8.083A4.083,4.083,0,1,1,100,131.616,4.088,4.088,0,0,1,104.083,135.7Z" fill="#060928"/>
    <path d="M153.6,82.757a8.265,8.265,0,0,1-8.265,8.266H37.062a6.269,6.269,0,0,0,5.565,3.4H157.274a6.273,6.273,0,0,0,6.266-6.266V73.237a6.273,6.273,0,0,0-6.266-6.266h-3.73a8.027,8.027,0,0,1,.051.868Z" fill="#de2f5c"/>
    <path d="M167.54,73.237a10.3,10.3,0,0,0-10.266-10.266H42.627A10.277,10.277,0,0,0,32.361,73.237V88.155A10.277,10.277,0,0,0,42.627,98.421H157.274A10.3,10.3,0,0,0,167.54,88.155Zm-131.179,0a6.273,6.273,0,0,1,6.266-6.266H157.274a6.273,6.273,0,0,1,6.266,6.266V88.155a6.273,6.273,0,0,1-6.266,6.266H42.627a6.282,6.282,0,0,1-6.266-6.266Z" fill="#060928"/>
    <polygon points="79.765 90.002 81.094 77.452 81.147 77.452 82.476 90.002 86.119 90.002 88.006 71.39 85.48 71.39 84.178 85.695 84.125 85.695 82.741 71.39 79.551 71.39 78.169 85.695 78.116 85.695 76.813 71.39 73.994 71.39 75.882 90.002 79.765 90.002" fill="#060928"/>
    <polygon points="98.713 90.002 100.044 77.452 100.097 77.452 101.426 90.002 105.068 90.002 106.956 71.39 104.43 71.39 103.128 85.695 103.074 85.695 101.692 71.39 98.501 71.39 97.119 85.695 97.066 85.695 95.763 71.39 92.944 71.39 94.832 90.002 98.713 90.002" fill="#060928"/>
    <polygon points="117.664 90.002 118.994 77.452 119.047 77.452 120.377 90.002 124.019 90.002 125.907 71.39 123.38 71.39 122.078 85.695 122.025 85.695 120.643 71.39 117.452 71.39 116.07 85.695 116.017 85.695 114.713 71.39 111.895 71.39 113.782 90.002 117.664 90.002" fill="#060928"/>
    <path d="M77.546,111.245h45.33a2,2,0,0,0,0-4H77.546a2,2,0,1,0,0,4Z" fill="#060928"/>
  </g>
</svg>
