<svg xmlns="http://www.w3.org/2000/svg" width="200" height="200" viewBox="0 0 200 200">
  <title>icons</title>
  <g>
    <path d="M83.938,189.042h-.6v2.4h.479c.493,0,.792-.215.792-.887v-.648C84.61,189.306,84.406,189.042,83.938,189.042Z" fill="none"/>
    <path d="M138.284,167.471V153.25H130.3v.515a9.19,9.19,0,0,1-9.191,9.19H109.436c0,.128.019.254.019.384a9.455,9.455,0,1,1-18.91,0c0-.13.014-.256.019-.384H61.716v4.516a7.2,7.2,0,0,0,7.19,7.19h62.188A7.2,7.2,0,0,0,138.284,167.471Z" fill="#1085fd"/>
    <path d="M138.284,36.26V30.852a7.2,7.2,0,0,0-7.19-7.191H130.3v12.6Z" fill="#1085fd"/>
    <path d="M130.3,55.436a2,2,0,0,1,0,4h0V66.6h0a2,2,0,0,1,0,4h0v7.168h0a2,2,0,0,1,0,4h0v22.28h0a2,2,0,0,1,0,4h0v7.169h0a2,2,0,0,1,0,4h0v7.168h0a2,2,0,0,1,0,4h0V149.25h7.982V40.26H130.3V55.436Z" fill="#1085fd"/>
    <path d="M131.094,19.661H68.906a11.2,11.2,0,0,0-11.19,11.191V167.471a11.2,11.2,0,0,0,11.19,11.19h62.188a11.2,11.2,0,0,0,11.19-11.19V30.852A11.2,11.2,0,0,0,131.094,19.661Zm-62.188,155a7.2,7.2,0,0,1-7.19-7.19V153.25h76.568v14.221a7.2,7.2,0,0,1-7.19,7.19ZM84.8,24.161h30.4v1.107a4.937,4.937,0,0,1-4.931,4.931H89.731A4.937,4.937,0,0,1,84.8,25.268Zm-4-.5v1.607A8.942,8.942,0,0,0,89.731,34.2h20.538a8.942,8.942,0,0,0,8.931-8.931V23.661h11.894a7.2,7.2,0,0,1,7.19,7.191V36.26H61.716V30.852a7.2,7.2,0,0,1,7.19-7.191ZM61.716,40.26h76.568V149.25H61.716Z" fill="#060928"/>
    <path d="M101.347,30.2h8.922a4.937,4.937,0,0,0,4.931-4.931V24.161h-7.7v1.375C107.493,27.705,104.834,29.19,101.347,30.2Z" fill="#de2f5c"/>
    <path d="M103.34,159.035a7.45,7.45,0,0,1-7.439,7.126c-.2,0-.388-.016-.58-.031a5.45,5.45,0,1,0,8.019-7.095Z" fill="#de2f5c"/>
    <path d="M100,153.884a9.459,9.459,0,0,0-9.436,9.071c0,.128-.019.254-.019.384a9.455,9.455,0,1,0,18.91,0c0-.13-.014-.256-.019-.384A9.459,9.459,0,0,0,100,153.884Zm5.455,9.455a5.473,5.473,0,1,1-2.115-4.3A5.461,5.461,0,0,1,105.455,163.339Z" fill="#060928"/>
    <path d="M89.305,75.673H71.614v5.664h35.208V52.545h-5.37V63.526A12.146,12.146,0,0,1,89.305,75.673Z" fill="#de2f5c"/>
    <path d="M108.822,48.545H69.614a2,2,0,0,0-2,2V83.337a2,2,0,0,0,2,2h39.208a2,2,0,0,0,2-2V50.545A2,2,0,0,0,108.822,48.545Zm-7.37,4h5.37V81.337H71.614V52.545Z" fill="#060928"/>
    <path d="M132.3,57.436a2,2,0,0,0-2-2H117.2a2,2,0,0,0,0,4h13.1A2,2,0,0,0,132.3,57.436Z" fill="#060928"/>
    <path d="M132.3,68.6a2,2,0,0,0-2-2H117.2a2,2,0,0,0,0,4h13.1A2,2,0,0,0,132.3,68.6Z" fill="#060928"/>
    <path d="M132.3,79.772a2,2,0,0,0-2-2H117.2a2,2,0,0,0,0,4h13.1A2,2,0,0,0,132.3,79.772Z" fill="#060928"/>
    <path d="M89.305,124.29H71.614v5.663h35.208V101.161h-5.37v10.982A12.146,12.146,0,0,1,89.305,124.29Z" fill="#de2f5c"/>
    <path d="M108.822,97.161H69.614a2,2,0,0,0-2,2v32.792a2,2,0,0,0,2,2h39.208a2,2,0,0,0,2-2V99.161A2,2,0,0,0,108.822,97.161Zm-7.37,4h5.37v28.792H71.614V101.161Z" fill="#060928"/>
    <path d="M132.3,106.052a2,2,0,0,0-2-2H117.2a2,2,0,0,0,0,4h13.1A2,2,0,0,0,132.3,106.052Z" fill="#060928"/>
    <path d="M132.3,117.221a2,2,0,0,0-2-2H117.2a2,2,0,1,0,0,4h13.1A2,2,0,0,0,132.3,117.221Z" fill="#060928"/>
    <path d="M132.3,128.389a2,2,0,0,0-2-2H117.2a2,2,0,0,0,0,4h13.1A2,2,0,0,0,132.3,128.389Z" fill="#060928"/>
  </g>
</svg>
