<svg xmlns="http://www.w3.org/2000/svg" width="200" height="200" viewBox="0 0 200 200">
  <title>icons</title>
  <g>
    <path d="M107.716,147.593a11.149,11.149,0,0,0,11.149-11.149V119.621a20.232,20.232,0,0,0-.291-3.334H115.4v5.729a15.4,15.4,0,1,1-30.8,0v-5.729H70.668a19.068,19.068,0,0,0-19.046,19.046v12.26Z" fill="none"/>
    <path d="M79.245,92.908a21.741,21.741,0,0,0,3.135.234H96.917a21.806,21.806,0,0,0,21.806-21.8V43.766a21.68,21.68,0,0,0-2.792-10.674,19.652,19.652,0,0,0-8.662-2.023H92.731a19.828,19.828,0,0,0-19.8,19.806v27.57A19.732,19.732,0,0,0,79.245,92.908Zm27.979-32.72a1.994,1.994,0,0,1,1.971-1.717h7.4a2,2,0,0,1,0,4h-4.024a3.212,3.212,0,0,1,.035.343,3.338,3.338,0,1,1-5.377-2.626ZM83.41,58.471h7.4a1.994,1.994,0,0,1,1.971,1.717A3.332,3.332,0,1,1,87.4,62.814a3.212,3.212,0,0,1,.035-.343H83.41a2,2,0,0,1,0-4Z" fill="none"/>
    <path d="M135.845,69.533a6.783,6.783,0,0,0-4.771-6.469V76A6.785,6.785,0,0,0,135.845,69.533Z" fill="none"/>
    <path d="M68.926,62.71a1.992,1.992,0,0,1-.44.052,6.772,6.772,0,0,0,0,13.543,1.992,1.992,0,0,1,.44.052Z" fill="none"/>
    <path d="M118.865,136.444a11.149,11.149,0,0,1-11.149,11.149H51.622v4.564a9.159,9.159,0,0,0,9.149,9.149h78.458a9.159,9.159,0,0,0,9.149-9.149V135.333a19.068,19.068,0,0,0-19.046-19.046H118.574a20.232,20.232,0,0,1,.291,3.334Z" fill="#1085fd"/>
    <path d="M60.771,165.306h78.458a13.164,13.164,0,0,0,13.149-13.149V135.333a23.072,23.072,0,0,0-23.046-23.046H115.4V100.818a23.856,23.856,0,0,0,15.607-20.7,10.762,10.762,0,0,0,.065-21.165V50.875a23.833,23.833,0,0,0-23.805-23.806H92.731a23.833,23.833,0,0,0-23.8,23.806v7.939a1.992,1.992,0,0,0-.44-.052,10.772,10.772,0,0,0,0,21.543A1.982,1.982,0,0,0,69,80.23a23.854,23.854,0,0,0,15.6,20.588v11.469H70.668a23.072,23.072,0,0,0-23.046,23.046v16.824A13.164,13.164,0,0,0,60.771,165.306Zm31.96-63.056h14.538a23.856,23.856,0,0,0,4.133-.366v20.132a11.4,11.4,0,0,1-22.8,0V101.884A23.856,23.856,0,0,0,92.731,102.25Zm43.114-32.717A6.785,6.785,0,0,1,131.074,76V63.064A6.783,6.783,0,0,1,135.845,69.533Zm-74.13,0a6.779,6.779,0,0,1,6.771-6.771,1.992,1.992,0,0,0,.44-.052V76.357a1.992,1.992,0,0,0-.44-.052A6.78,6.78,0,0,1,61.715,69.533ZM72.926,50.875a19.828,19.828,0,0,1,19.8-19.806h14.538a19.881,19.881,0,0,1,19.8,19.806v27.57a19.827,19.827,0,0,1-19.8,19.805H92.731a19.878,19.878,0,0,1-19.8-19.805Zm-2.258,65.412H84.6v5.729a15.4,15.4,0,1,0,30.8,0v-5.729h13.93a19.068,19.068,0,0,1,19.046,19.046v16.824a9.159,9.159,0,0,1-9.149,9.149H60.771a9.159,9.159,0,0,1-9.149-9.149V135.333A19.068,19.068,0,0,1,70.668,116.287Z" fill="#060928"/>
    <path d="M107.016,114.57a13.347,13.347,0,0,1-17.037,12.882,11.4,11.4,0,0,0,21.423-5.436V101.884a23.856,23.856,0,0,1-4.133.366h-.253Z" fill="#de2f5c"/>
    <path d="M118.723,71.337a21.806,21.806,0,0,1-21.806,21.8H82.38a21.741,21.741,0,0,1-3.135-.234A19.71,19.71,0,0,0,92.731,98.25h14.538a19.827,19.827,0,0,0,19.8-19.805V50.875a19.808,19.808,0,0,0-11.143-17.783,21.68,21.68,0,0,1,2.792,10.674Z" fill="#1085fd"/>
    <path d="M109.263,66.152a3.339,3.339,0,0,0,3.338-3.338,3.212,3.212,0,0,0-.035-.343h4.024a2,2,0,0,0,0-4h-7.4a1.994,1.994,0,0,0-1.971,1.717,3.327,3.327,0,0,0,2.039,5.964Z" fill="#060928"/>
    <path d="M83.41,62.471h4.024a3.212,3.212,0,0,0-.035.343,3.338,3.338,0,1,0,5.377-2.626,1.994,1.994,0,0,0-1.971-1.717h-7.4a2,2,0,0,0,0,4Z" fill="#060928"/>
  </g>
</svg>
