<svg xmlns="http://www.w3.org/2000/svg" width="200" height="200" viewBox="0 0 200 200">
  <title>icons</title>
  <g>
    <path d="M73.818,151.31a1.982,1.982,0,0,1-.39.57,9.046,9.046,0,0,1-.834.729,5.055,5.055,0,0,0,3.927,8.247h0a5.041,5.041,0,0,0,3.586-1.489l5.976-5.986L79,146.121Z" fill="none"/>
    <path d="M125.511,111.764,100.879,87.64,82.277,82.3a2.636,2.636,0,0,0-3.317,2.056l-.782,4.252a12.666,12.666,0,0,1-22.825,5l-6.514,7.162c8.316,9.071,49.432,53.754,53.488,54.928a9.425,9.425,0,0,0,5.979-.233L93.974,141.152a1.995,1.995,0,0,1,2.368-3.162,1.974,1.974,0,0,1,1.182.564l16.067,16.039a5.039,5.039,0,0,0,3.584,1.482h.005A5.058,5.058,0,0,0,121.242,148l-15.467-15.438a2.027,2.027,0,0,1-.313-.421l-.77-.769a2,2,0,1,1,2.827-2.83l16.067,16.039a9.138,9.138,0,0,1,.738.846l.345.344a5.039,5.039,0,0,0,3.584,1.482h.005a5.073,5.073,0,0,0,4.225-7.873c-.109-.1-.222-.19-.327-.295L116.09,123.046a2.092,2.092,0,1,1,2.507-3.326l16.066,16.039a8.894,8.894,0,0,1,.729.832,5.02,5.02,0,0,0,3.174,1.146h0a5.074,5.074,0,0,0,3.58-8.664l-16.067-16.039A1.983,1.983,0,0,1,125.511,111.764Z" fill="none"/>
    <path d="M115.283,64.7l-41.6-7.991a9.957,9.957,0,0,0-10,4c-.017.027-.033.053-.051.078A9.97,9.97,0,0,0,62.1,64.171L57.275,84.289a8.676,8.676,0,1,0,16.969,3.594l.782-4.253a6.639,6.639,0,0,1,8.355-5.178l16.067,4.615c6.43-.657,17.422-.923,21.809,4.115,5.266,6.048,20.036,16.406,25.023,19.833l6.9-7.1L121.33,67.788A12.123,12.123,0,0,0,115.283,64.7Z" fill="none"/>
    <path d="M76.2,143.259l-6.948-7.115L64.6,140.8a9.04,9.04,0,0,1-1,.857,2.044,2.044,0,0,1-.184.226A5.073,5.073,0,0,0,69.8,149.7c.1-.109.193-.224.3-.33Z" fill="none"/>
    <path d="M80.776,189.042h-.6v2.4h.479c.492,0,.792-.215.792-.887v-.648C81.448,189.306,81.244,189.042,80.776,189.042Z" fill="none"/>
    <rect x="133.172" y="48.821" width="22.377" height="39.444" transform="translate(-7.479 118.372) rotate(-43.567)" fill="none"/>
    <path d="M61.774,137.976l4.686-4.694-7.053-7.222-4.825,4.758a5.074,5.074,0,0,0,7.192,7.158Z" fill="none"/>
    <path d="M34.364,87.272,44.784,99.28l8.72-9.589a12.678,12.678,0,0,1-.117-6.336l4.829-20.118a13.986,13.986,0,0,1,1.25-3.277l-3.942-3.941L29.317,82.225Z" fill="none"/>
    <path d="M108.412,189.042h-.6v2.4h.479c.492,0,.792-.215.792-.887v-.648C109.084,189.306,108.88,189.042,108.412,189.042Z" fill="none"/>
    <path d="M120.411,190.373v-.468c0-.6-.2-.863-.672-.863H119.1v2.219h.515C120.111,191.261,120.411,191.044,120.411,190.373Z" fill="none"/>
    <path d="M53.059,126.7l3.554-3.505-7.37-7.547-4.43,4.437a5.074,5.074,0,0,0,3.59,8.658h.005a5.041,5.041,0,0,0,3.586-1.489A1.985,1.985,0,0,1,53.059,126.7Z" fill="none"/>
    <path d="M121.257,87.182c-4.387-5.038-15.379-4.772-21.809-4.115l3.021.868a1.981,1.981,0,0,1,.847.492L136.575,117l9.705-9.987C141.293,103.588,126.523,93.23,121.257,87.182Z" fill="#1085fd"/>
    <path d="M102.327,155.693c-4.056-1.174-45.172-45.857-53.488-54.928l-4.119,4.529L60.838,121.8c.007.007.015.011.022.018s.013.018.021.026l9.243,9.465a1.966,1.966,0,0,1,1.146,1.173l8.71,8.92a1.976,1.976,0,0,1,.533.371,2.022,2.022,0,0,1,.4.581l5.622,5.758a1.964,1.964,0,0,1,.273.222l16.067,16.039a5.041,5.041,0,0,0,3.584,1.482h0a5.073,5.073,0,0,0,3.579-8.664l-1.734-1.731A9.425,9.425,0,0,1,102.327,155.693Z" fill="#de2f5c"/>
    <rect x="152.448" y="80.562" width="22.377" height="16.493" transform="translate(-16.137 137.236) rotate(-43.566)" fill="#1085fd"/>
    <path d="M140.4,42.337a2,2,0,0,0-2.828-.071L118.456,60.444a1.994,1.994,0,0,0-.512.825,16.161,16.161,0,0,0-1.906-.5L74.432,52.781A13.931,13.931,0,0,0,61.857,56.7l-4.919-4.919a2,2,0,0,0-2.828,0L14.28,91.605a2,2,0,0,0-.015,2.813l19.424,19.858a2,2,0,0,0,1.43.6h.036a2.005,2.005,0,0,0,1.444-.654l5.425-5.965,4.424,4.53-4.466,4.473A9.074,9.074,0,0,0,48.4,132.746h.008c.29,0,.578-.016.862-.043a9.066,9.066,0,0,0,8.89,10.761,9.1,9.1,0,0,0-.229,2.013,9.063,9.063,0,0,0,9.073,9.06c.182,0,.363-.015.545-.026a9.065,9.065,0,0,0,15.39,7.682l5.941-5.95,9.385,9.611a1.976,1.976,0,0,0,.97.542l.808.807a9.069,9.069,0,0,0,15.437-7.291,9.163,9.163,0,0,0,1.692.159,9.058,9.058,0,0,0,9.068-9.055,9.15,9.15,0,0,0,2.01.233,9.046,9.046,0,0,0,9.043-9.615,9.063,9.063,0,0,0,7.682-15.391l-5.993-5.981,16.984-17.478,3.724,3.915a2,2,0,0,0,2.828.072l19.111-18.179a2,2,0,0,0,.071-2.827Zm-1.52,4.2,27.185,28.58,11.367,11.95-16.214,15.422-11.367-11.95-27.185-28.58ZM55.524,56.019l3.942,3.941a13.986,13.986,0,0,0-1.25,3.277L53.387,83.355a12.678,12.678,0,0,0,.117,6.336l-8.72,9.589-9.718,10.684L18.507,93.035l10.81-10.81Zm-7.116,72.727H48.4a5.074,5.074,0,0,1-3.59-8.658l4.43-4.437,7.37,7.547L53.059,126.7a1.985,1.985,0,0,0-1.065.554A5.041,5.041,0,0,1,48.408,128.746Zm6.174,2.072,4.825-4.758,7.053,7.222-4.686,4.694a5.074,5.074,0,0,1-7.192-7.158Zm8.84,18.242a5.079,5.079,0,0,1-.006-7.175,2.044,2.044,0,0,0,.184-.226,9.04,9.04,0,0,0,1-.857l4.651-4.658,6.948,7.115-6.1,6.114c-.106.106-.2.221-.3.33A5.085,5.085,0,0,1,63.422,149.06Zm16.69,10.307a5.041,5.041,0,0,1-3.586,1.489h0a5.045,5.045,0,0,1-3.927-8.247,9.046,9.046,0,0,0,.834-.729,1.982,1.982,0,0,0,.39-.57L79,146.121l7.09,7.26Zm62.045-23.119a5.041,5.041,0,0,1-3.586,1.489h0a5.02,5.02,0,0,1-3.174-1.146,8.894,8.894,0,0,0-.729-.832L118.6,119.72a2.108,2.108,0,0,0-2.507,3.326l16.066,16.039c.1.1.218.2.327.295a5.072,5.072,0,0,1-4.225,7.873h-.005a5.039,5.039,0,0,1-3.584-1.482l-.345-.344a9.138,9.138,0,0,0-.738-.846l-16.067-16.039a2,2,0,1,0-2.827,2.83l.77.769a2.027,2.027,0,0,0,.313.421L121.242,148a5.058,5.058,0,0,1-4.062,8.075h-.005a5.039,5.039,0,0,1-3.584-1.482L97.524,138.554a3.222,3.222,0,0,0-3.552-.23,2,2,0,0,0,0,2.828l14.332,14.308,1.734,1.731a5.073,5.073,0,0,1-3.579,8.664h0a5.041,5.041,0,0,1-3.584-1.482L86.805,148.334a1.964,1.964,0,0,0-.273-.222l-5.622-5.758a2.022,2.022,0,0,0-.4-.581,1.976,1.976,0,0,0-.533-.371l-8.71-8.92a1.966,1.966,0,0,0-1.146-1.173l-9.243-9.465c-.008-.008-.013-.018-.021-.026s-.015-.011-.022-.018L44.72,105.294l4.119-4.529L55.353,93.6a12.666,12.666,0,0,0,22.825-5l.782-4.252A2.636,2.636,0,0,1,82.277,82.3l18.6,5.343,24.632,24.124a1.983,1.983,0,0,0,.573,1.27l16.067,16.039A5.079,5.079,0,0,1,142.157,136.248Zm4.123-29.233L136.575,117,103.316,84.427a1.981,1.981,0,0,0-.847-.492l-3.021-.868L83.381,78.452a6.634,6.634,0,0,0-8.355,5.178l-.782,4.253a8.676,8.676,0,1,1-16.969-3.594L62.1,64.171a9.97,9.97,0,0,1,1.525-3.387c.018-.025.034-.051.051-.078a9.957,9.957,0,0,1,10-4L115.283,64.7a12.123,12.123,0,0,1,6.047,3.088l31.852,32.124Z" fill="#060928"/>
    <polygon points="29.317 82.225 18.507 93.035 35.066 109.964 44.784 99.28 34.364 87.272 29.317 82.225" fill="#de2f5c"/>
  </g>
</svg>
