<svg xmlns="http://www.w3.org/2000/svg" width="200" height="200" viewBox="0 0 200 200">
  <title>icons</title>
  <g>
    <path d="M108.458,157.65V133.614H87.742v35.459H98.161C103.848,169.073,108.458,163.958,108.458,157.65Z" fill="none"/>
    <path d="M83.742,131.614a2,2,0,0,1,2-2h31.489a2,2,0,0,1,2,2V176.34h21.631V36.681H59.138V176.34h24.6Zm30.37-83.762a2,2,0,0,1,2-2h18.075a2,2,0,0,1,2,2V63.38a2,2,0,0,1-2,2H116.112a2,2,0,0,1-2-2Zm0,27.549a2,2,0,0,1,2-2h18.075a2,2,0,0,1,2,2V90.93a2,2,0,0,1-2,2H116.112a2,2,0,0,1-2-2Zm0,27.549a2,2,0,0,1,2-2h18.075a2,2,0,0,1,2,2v15.529a2,2,0,0,1-2,2H116.112a2,2,0,0,1-2-2Zm-25.178-55.1a2,2,0,0,1,2-2h18.073a2,2,0,0,1,2,2V63.38a2,2,0,0,1-2,2H90.934a2,2,0,0,1-2-2Zm0,27.549a2,2,0,0,1,2-2h18.073a2,2,0,0,1,2,2V90.93a2,2,0,0,1-2,2H90.934a2,2,0,0,1-2-2Zm0,27.549a2,2,0,0,1,2-2h18.073a2,2,0,0,1,2,2v15.529a2,2,0,0,1-2,2H90.934a2,2,0,0,1-2-2Zm-25.121-55.1a2,2,0,0,1,2-2H83.888a2,2,0,0,1,2,2V63.38a2,2,0,0,1-2,2H65.813a2,2,0,0,1-2-2Zm0,27.549a2,2,0,0,1,2-2H83.888a2,2,0,0,1,2,2V90.93a2,2,0,0,1-2,2H65.813a2,2,0,0,1-2-2Zm0,43.078V102.95a2,2,0,0,1,2-2H83.888a2,2,0,0,1,2,2v15.529a2,2,0,0,1-2,2H65.813A2,2,0,0,1,63.813,118.479Z" fill="none"/>
    <rect x="67.813" y="77.401" width="14.074" height="7.904" fill="none"/>
    <rect x="67.813" y="104.95" width="14.074" height="8.064" fill="none"/>
    <rect x="67.813" y="49.852" width="14.074" height="7.742" fill="none"/>
    <rect x="118.112" y="104.95" width="14.074" height="8.064" fill="none"/>
    <rect x="92.934" y="49.852" width="14.073" height="7.742" fill="none"/>
    <rect x="92.934" y="77.401" width="14.073" height="7.904" fill="none"/>
    <rect x="92.934" y="104.95" width="14.073" height="8.064" fill="none"/>
    <path d="M47.87,149.645V77.123H31.252v91.819C37.884,167.269,47.87,158.206,47.87,149.645Z" fill="none"/>
    <rect x="118.112" y="49.852" width="14.074" height="7.742" fill="none"/>
    <rect x="118.112" y="77.401" width="14.074" height="7.904" fill="none"/>
    <path d="M151.792,149.645c0,9.478,4.982,17.161,11.128,17.161l5.828,1.928V77.123H151.792Z" fill="none"/>
    <rect x="118.112" y="85.304" width="14.074" height="3.626" fill="#de2f5c"/>
    <rect x="92.934" y="85.304" width="14.073" height="3.626" fill="#de2f5c"/>
    <rect x="67.813" y="85.304" width="14.074" height="3.626" fill="#de2f5c"/>
    <rect x="118.112" y="113.015" width="14.074" height="3.465" fill="#de2f5c"/>
    <rect x="92.934" y="113.015" width="14.073" height="3.465" fill="#de2f5c"/>
    <rect x="67.813" y="113.015" width="14.074" height="3.465" fill="#de2f5c"/>
    <path d="M31.252,168.942v7.4H55.138V77.123H47.87v72.522C47.87,158.206,37.884,167.269,31.252,168.942Z" fill="#1085fd"/>
    <path d="M151.792,149.645V77.123h-6.93V176.34h23.886v-7.606l-5.828-1.928C156.774,166.806,151.792,159.123,151.792,149.645Z" fill="#1085fd"/>
    <path d="M108.458,133.614V157.65c0,6.308-4.61,11.423-10.3,11.423H87.742v7.267h27.489V133.614Z" fill="#de2f5c"/>
    <path d="M116.112,120.479h18.075a2,2,0,0,0,2-2V102.95a2,2,0,0,0-2-2H116.112a2,2,0,0,0-2,2v15.529A2,2,0,0,0,116.112,120.479Zm16.075-15.529v11.529H118.112V104.95Z" fill="#060928"/>
    <path d="M90.934,120.479h18.073a2,2,0,0,0,2-2V102.95a2,2,0,0,0-2-2H90.934a2,2,0,0,0-2,2v15.529A2,2,0,0,0,90.934,120.479Zm16.073-15.529v11.529H92.934V104.95Z" fill="#060928"/>
    <path d="M83.888,120.479a2,2,0,0,0,2-2V102.95a2,2,0,0,0-2-2H65.813a2,2,0,0,0-2,2v15.529a2,2,0,0,0,2,2Zm-2-15.529v11.529H67.813V104.95Z" fill="#060928"/>
    <path d="M116.112,92.93h18.075a2,2,0,0,0,2-2V75.4a2,2,0,0,0-2-2H116.112a2,2,0,0,0-2,2V90.93A2,2,0,0,0,116.112,92.93ZM132.187,77.4V88.93H118.112V77.4Z" fill="#060928"/>
    <path d="M90.934,92.93h18.073a2,2,0,0,0,2-2V75.4a2,2,0,0,0-2-2H90.934a2,2,0,0,0-2,2V90.93A2,2,0,0,0,90.934,92.93ZM107.007,77.4V88.93H92.934V77.4Z" fill="#060928"/>
    <path d="M65.813,92.93H83.888a2,2,0,0,0,2-2V75.4a2,2,0,0,0-2-2H65.813a2,2,0,0,0-2,2V90.93A2,2,0,0,0,65.813,92.93ZM81.888,77.4V88.93H67.813V77.4Z" fill="#060928"/>
    <rect x="118.112" y="57.594" width="14.074" height="3.786" fill="#de2f5c"/>
    <rect x="92.934" y="57.594" width="14.073" height="3.786" fill="#de2f5c"/>
    <rect x="67.813" y="57.594" width="14.074" height="3.786" fill="#de2f5c"/>
    <path d="M116.112,65.38h18.075a2,2,0,0,0,2-2V47.852a2,2,0,0,0-2-2H116.112a2,2,0,0,0-2,2V63.38A2,2,0,0,0,116.112,65.38Zm16.075-15.528V61.38H118.112V49.852Z" fill="#060928"/>
    <path d="M90.934,65.38h18.073a2,2,0,0,0,2-2V47.852a2,2,0,0,0-2-2H90.934a2,2,0,0,0-2,2V63.38A2,2,0,0,0,90.934,65.38Zm16.073-15.528V61.38H92.934V49.852Z" fill="#060928"/>
    <path d="M65.813,65.38H83.888a2,2,0,0,0,2-2V47.852a2,2,0,0,0-2-2H65.813a2,2,0,0,0-2,2V63.38A2,2,0,0,0,65.813,65.38ZM81.888,49.852V61.38H67.813V49.852Z" fill="#060928"/>
    <path d="M181.574,176.34h-8.826V75.123a2,2,0,0,0-2-2H144.862V34.681a2,2,0,0,0-2-2H57.138a2,2,0,0,0-2,2V73.123H29.252a2,2,0,0,0-2,2V176.34H17.614a2,2,0,0,0,0,4h163.96a2,2,0,0,0,0-4Zm-12.826-7.606v7.606H144.862V77.123h23.886ZM47.87,77.123h7.268V176.34H31.252V77.123Zm11.268-2V36.681h81.724V176.34H119.231V131.614a2,2,0,0,0-2-2H85.742a2,2,0,0,0-2,2V176.34h-24.6Zm28.6,101.217V133.614h27.489V176.34Z" fill="#060928"/>
  </g>
</svg>
