<svg xmlns="http://www.w3.org/2000/svg" width="200" height="200" viewBox="0 0 200 200">
  <title>icons</title>
  <g>
    <path d="M121.945,80.061a21.919,21.919,0,0,0-6.239-15.483,21.082,21.082,0,0,0-15.1-6.47H100.5c-12.658,0-22.238,9.323-22.3,21.728a21.876,21.876,0,1,0,43.752.225Z" fill="none"/>
    <path d="M56.323,161.3a176.76,176.76,0,0,0,28.446,2.112c23.934,0,43.651-3.93,46.373-8.993a149.358,149.358,0,0,0-23.451-2.468c-2.008,1.763-4.017,3.526-6,5.315a2,2,0,0,1-1.339.515h-.561a1.992,1.992,0,0,1-1.229-.423c-2.175-1.695-4.434-3.489-6.734-5.38-23.634.9-36.416,5.534-36.416,8.037C55.413,160.4,55.726,160.836,56.323,161.3Z" fill="none"/>
    <path d="M84.769,163.412A176.76,176.76,0,0,1,56.323,161.3c3.72,2.891,18.873,6.908,43.8,6.908,28.926,0,44.706-5.412,44.706-8.193,0-1.518-4.71-3.819-13.683-5.6C128.42,159.482,108.7,163.412,84.769,163.412Z" fill="#de2f5c"/>
    <path d="M118.337,136.742c12.936-13.032,21.3-25.247,26.323-38.44a49.89,49.89,0,0,0-2.2-41.077A47.13,47.13,0,0,0,129.086,41.5a51.414,51.414,0,0,1,4.3,46.138c-5.787,15.2-15.482,27.764-26.772,39.137-5.854,5.9-12.267,11.241-18.468,16.793,4.032,3.578,8.057,6.859,11.852,9.836q2.55-2.282,5.133-4.534C109.566,144.983,114.147,140.962,118.337,136.742Z" fill="#1085fd"/>
    <path d="M148.4,99.725a53.886,53.886,0,0,0-2.407-44.371,51.191,51.191,0,0,0-33.9-26.1c-1.714-.408-3.451-.715-5.132-1.011-.773-.137-1.546-.274-2.317-.42a2.031,2.031,0,0,0-.373-.035h-8.4a2.043,2.043,0,0,0-.321.026,66.536,66.536,0,0,0-19.165,5.694C57.52,42.825,45.7,64.8,48.278,85.758c1.908,15.5,8.747,29.547,22.173,45.536A151.038,151.038,0,0,0,87.4,148.235c-16.54,1.041-35.985,4.245-35.985,11.78,0,9.644,31.859,12.193,48.706,12.193s48.706-2.549,48.706-12.193c0-7.67-20.144-10.85-36.867-11.832,3.128-2.782,6.257-5.64,9.218-8.622C134.52,126.117,143.17,113.459,148.4,99.725ZM100,153.406c-3.8-2.977-7.82-6.258-11.852-9.836a142.7,142.7,0,0,1-14.636-14.848C60.615,113.36,54.056,99.959,52.248,85.27,49.869,65.942,60.765,45.683,78.158,37.1a61.636,61.636,0,0,1,17.877-5.307h8.05c.726.136,1.454.265,2.181.394,1.624.286,3.3.583,4.9.963A48.353,48.353,0,0,1,129.086,41.5a47.13,47.13,0,0,1,13.369,15.723,49.89,49.89,0,0,1,2.2,41.077c-5.022,13.193-13.387,25.408-26.323,38.44-4.19,4.22-8.771,8.241-13.2,12.13Q102.56,151.131,100,153.406Zm-8.174-1.428c2.3,1.891,4.559,3.685,6.734,5.38a1.992,1.992,0,0,0,1.229.423h.561a2,2,0,0,0,1.339-.515c1.982-1.789,3.991-3.552,6-5.315a149.358,149.358,0,0,1,23.451,2.468c8.973,1.777,13.683,4.078,13.683,5.6,0,2.781-15.78,8.193-44.706,8.193-24.923,0-40.076-4.017-43.8-6.908-.6-.464-.91-.9-.91-1.285C55.413,157.512,68.195,152.882,91.829,151.978Z" fill="#060928"/>
    <path d="M125.945,80.078a25.9,25.9,0,0,0-7.374-18.29,25.05,25.05,0,0,0-17.952-7.68H100.5c-14.685,0-26.231,11.27-26.307,25.706a25.844,25.844,0,0,0,25.872,26.061h.024A25.954,25.954,0,0,0,125.945,80.078ZM84.567,95.454a21.807,21.807,0,0,1-6.374-15.618c.065-12.4,9.645-21.728,22.3-21.728h.107a21.082,21.082,0,0,1,15.1,6.47,21.963,21.963,0,0,1-15.621,37.3A21.644,21.644,0,0,1,84.567,95.454Z" fill="#060928"/>
  </g>
</svg>
