<svg xmlns="http://www.w3.org/2000/svg" width="200" height="200" viewBox="0 0 200 200">
  <title>icons</title>
  <g>
    <path d="M157.984,152.546a9.649,9.649,0,0,0,9.65-9.65V61.07H53.475v91.476Zm1.285-76.516a2,2,0,0,1,2,2v64.633a2,2,0,0,1-2,2H66.683a2,2,0,1,1,0-4h62.6a43.065,43.065,0,0,0,27.987-27.986V78.03A2,2,0,0,1,159.269,76.03ZM65.194,104.615a2,2,0,0,1,2.825-.154l21.465,19.253L104.2,105.1a2,2,0,0,1,1.473-.758,2.04,2.04,0,0,1,1.538.613l15.163,15.8,17.627-33.147a2,2,0,0,1,3.321-.318l9.268,11.455a2,2,0,1,1-3.109,2.516l-7.367-9.106-17.5,32.916a2,2,0,0,1-3.208.446l-15.487-16.137L91.3,127.864a2,2,0,0,1-1.4.753c-.057.005-.113.007-.17.007a2,2,0,0,1-1.336-.511L65.348,107.439A2,2,0,0,1,65.194,104.615Z" fill="none"/>
    <rect x="30.906" y="80.03" width="10.02" height="5.01" fill="none"/>
    <path d="M177.84,57.07V46.95a7.659,7.659,0,0,0-7.65-7.65H29.81a7.659,7.659,0,0,0-7.65,7.65V57.07ZM159.262,41.2a6.99,6.99,0,1,1-6.991,6.99A7,7,0,0,1,159.262,41.2Zm-17.321,0a6.99,6.99,0,1,1-6.99,6.99A7,7,0,0,1,141.941,41.2Z" fill="none"/>
    <rect x="30.906" y="104.268" width="10.02" height="6.617" fill="none"/>
    <rect x="30.906" y="130.644" width="10.02" height="5.01" fill="none"/>
    <path d="M157.518,49.544a4.97,4.97,0,0,0,4.405-2.693,2.979,2.979,0,0,0-5.364,2.593A4.873,4.873,0,0,0,157.518,49.544Z" fill="none"/>
    <path d="M22.16,152.546H49.475V61.07H22.16ZM26.906,78.03a2,2,0,0,1,2-2h14.02a2,2,0,0,1,2,2V92.049a2,2,0,0,1-2,2H28.906a2,2,0,0,1-2-2Zm0,24.238a2,2,0,0,1,2-2h14.02a2,2,0,0,1,2,2v14.019a2,2,0,0,1-2,2H28.906a2,2,0,0,1-2-2Zm0,26.376a2,2,0,0,1,2-2h14.02a2,2,0,0,1,2,2v14.019a2,2,0,0,1-2,2H28.906a2,2,0,0,1-2-2Z" fill="none"/>
    <path d="M140.19,49.544a4.97,4.97,0,0,0,4.409-2.7,2.979,2.979,0,0,0-5.36,2.6A4.808,4.808,0,0,0,140.19,49.544Z" fill="none"/>
    <path d="M157.984,152.546H53.475V160.7H170.19a7.658,7.658,0,0,0,7.65-7.65V61.07H167.634V142.9A9.649,9.649,0,0,1,157.984,152.546Z" fill="#1085fd"/>
    <path d="M22.16,153.05a7.658,7.658,0,0,0,7.65,7.65H49.475v-8.154H22.16Z" fill="#1085fd"/>
    <path d="M29.81,164.7H170.19a11.663,11.663,0,0,0,11.65-11.65V46.95A11.663,11.663,0,0,0,170.19,35.3H29.81A11.663,11.663,0,0,0,18.16,46.95v106.1A11.663,11.663,0,0,0,29.81,164.7ZM167.634,61.07H177.84v91.98a7.658,7.658,0,0,1-7.65,7.65H53.475V61.07ZM49.475,152.546V160.7H29.81a7.658,7.658,0,0,1-7.65-7.65V61.07H49.475ZM22.16,46.95a7.659,7.659,0,0,1,7.65-7.65H170.19a7.659,7.659,0,0,1,7.65,7.65V57.07H22.16Z" fill="#060928"/>
    <path d="M157.518,49.544a4.873,4.873,0,0,1-.959-.1,2.985,2.985,0,0,0,5.693-1.259,2.94,2.94,0,0,0-.329-1.334A4.97,4.97,0,0,1,157.518,49.544Z" fill="#de2f5c"/>
    <path d="M140.19,49.544a4.808,4.808,0,0,1-.951-.1,2.98,2.98,0,1,0,5.36-2.6A4.97,4.97,0,0,1,140.19,49.544Z" fill="#de2f5c"/>
    <path d="M159.262,55.175a6.99,6.99,0,1,0-6.991-6.99A7,7,0,0,0,159.262,55.175Zm0-9.98a2.981,2.981,0,0,1,2.661,1.656,2.94,2.94,0,0,1,.329,1.334,2.985,2.985,0,0,1-5.693,1.259,2.955,2.955,0,0,1-.288-1.259A2.994,2.994,0,0,1,159.262,45.2Z" fill="#060928"/>
    <path d="M141.941,55.175a6.99,6.99,0,1,0-6.99-6.99A7,7,0,0,0,141.941,55.175Zm0-9.98a2.974,2.974,0,1,1-2.99,2.99A2.982,2.982,0,0,1,141.941,45.2Z" fill="#060928"/>
    <rect x="30.906" y="135.653" width="10.02" height="5.01" fill="#de2f5c"/>
    <rect x="30.906" y="110.885" width="10.02" height="3.402" fill="#de2f5c"/>
    <rect x="30.906" y="85.04" width="10.02" height="5.01" fill="#de2f5c"/>
    <path d="M28.906,94.049h14.02a2,2,0,0,0,2-2V78.03a2,2,0,0,0-2-2H28.906a2,2,0,0,0-2,2V92.049A2,2,0,0,0,28.906,94.049ZM40.926,80.03V90.049H30.906V80.03Z" fill="#060928"/>
    <path d="M28.906,118.287h14.02a2,2,0,0,0,2-2V102.268a2,2,0,0,0-2-2H28.906a2,2,0,0,0-2,2v14.019A2,2,0,0,0,28.906,118.287Zm12.02-14.019v10.019H30.906V104.268Z" fill="#060928"/>
    <path d="M28.906,144.663h14.02a2,2,0,0,0,2-2V128.644a2,2,0,0,0-2-2H28.906a2,2,0,0,0-2,2v14.019A2,2,0,0,0,28.906,144.663Zm12.02-14.019v10.019H30.906V130.644Z" fill="#060928"/>
    <path d="M157.269,112.677a43.065,43.065,0,0,1-27.987,27.986h27.987Z" fill="#de2f5c"/>
    <path d="M157.269,140.663H66.683a2,2,0,1,0,0,4h92.586a2,2,0,0,0,2-2V78.03a2,2,0,0,0-4,0v62.633Z" fill="#060928"/>
    <path d="M88.4,128.113a2,2,0,0,0,1.336.511c.057,0,.113,0,.17-.007a2,2,0,0,0,1.4-.753l14.616-18.487,15.487,16.137a2,2,0,0,0,3.208-.446l17.5-32.916,7.367,9.106a2,2,0,1,0,3.109-2.516l-9.268-11.455a2,2,0,0,0-3.321.318l-17.627,33.147-15.163-15.8a2.04,2.04,0,0,0-1.538-.613,2,2,0,0,0-1.473.758l-14.72,18.617L68.019,104.461a2,2,0,1,0-2.671,2.978Z" fill="#060928"/>
  </g>
</svg>
