<svg xmlns="http://www.w3.org/2000/svg" width="200" height="200" viewBox="0 0 200 200">
  <title>icons</title>
  <g>
    <path d="M114.421,100.081c1.271,0,2.069-.691,2.069-2.505V83.708c0-1.815-.8-2.5-2.069-2.5s-2.068.689-2.068,2.5V97.576C112.353,99.39,113.151,100.081,114.421,100.081Z" fill="none"/>
    <polygon points="164.965 161.332 152.665 161.332 151.817 161.332 151.817 175.277 164.965 175.277 164.965 161.332" fill="none"/>
    <path d="M99.9,100.081c1.27,0,2.069-.691,2.069-2.505V83.708c0-1.815-.8-2.5-2.069-2.5s-2.069.689-2.069,2.5V97.576C97.83,99.39,98.628,100.081,99.9,100.081Z" fill="none"/>
    <path d="M140.51,120.781V105.862c0-4.062,3.562-7.368,7.94-7.368s7.942,3.306,7.942,7.368v14.919h5.547a7.512,7.512,0,0,0,7.512-7.512V61.527H28.93a5.519,5.519,0,0,0-5.512,5.512v53.678c0,.022,0,.042,0,.064Zm-93.451-10.11a4.735,4.735,0,1,1,4.734-4.734A4.74,4.74,0,0,1,47.059,110.671Zm15.211,0A4.735,4.735,0,1,1,67,105.937,4.74,4.74,0,0,1,62.27,110.671ZM125.187,95.64h4.97v2.533c0,2.056,1.052,2.916,2.724,2.916s2.724-.86,2.724-3.011c0-2.39-.956-4.11-4.491-6.882-4.3-3.393-5.783-6.069-5.783-9.7,0-4.061,1.863-6.929,5.543-7.742V70.839h4.3v2.914c3.728.765,5.638,3.633,5.638,7.839v.955h-4.969V81.256c0-2.054-.956-2.962-2.629-2.962s-2.627.908-2.627,2.867c0,2.2.955,3.871,4.492,6.69,4.3,3.441,5.782,6.069,5.782,9.893,0,4.3-1.959,7.215-5.687,7.979v3.345h-4.3v-3.345c-3.775-.764-5.687-3.679-5.687-7.884ZM108.36,83.962c0-4.065,2.141-6.388,6.061-6.388s6.063,2.323,6.063,6.388V97.321c0,4.066-2.142,6.389-6.063,6.389s-6.061-2.323-6.061-6.389Zm-14.523,0c0-4.065,2.142-6.388,6.062-6.388s6.062,2.323,6.062,6.388V97.321c0,4.066-2.141,6.389-6.062,6.389s-6.062-2.323-6.062-6.389ZM82.364,81.131c3.376,0,4.573-.726,5.481-3.194h2.686v25.41H86.538V83.962H82.364Zm-53.647-4.64h6.45a2,2,0,0,1,1.783,1.095L38.3,80.249h32.9a2,2,0,0,1,1.851,2.76L67.3,97.041a2,2,0,0,1-1.851,1.24H42.925a2,2,0,0,1-1.846-1.23L35.258,83.089l-1.319-2.6H28.717a2,2,0,0,1,0-4Z" fill="none"/>
    <path d="M28.93,126.229H140.51v-5.448H23.421A5.516,5.516,0,0,0,28.93,126.229Z" fill="#1085fd"/>
    <path d="M161.939,120.781h-5.547v1.549h19.029A8.179,8.179,0,0,1,180,123.716a5.476,5.476,0,0,0,.894-3V67.039a5.519,5.519,0,0,0-5.512-5.512h-5.93v51.742A7.512,7.512,0,0,1,161.939,120.781Z" fill="#1085fd"/>
    <path d="M175.381,57.527H28.93a9.523,9.523,0,0,0-9.512,9.512v53.678a9.523,9.523,0,0,0,9.512,9.512H140.51v19.926a11.207,11.207,0,0,0,7.307,10.244v16.878a2,2,0,0,0,2,2h24.119a2,2,0,0,0,2-2V160.4a11.206,11.206,0,0,0,7.306-10.244V129.591a6.763,6.763,0,0,0-.589-2.756,9.464,9.464,0,0,0,2.24-6.118V67.039A9.523,9.523,0,0,0,175.381,57.527ZM144.51,105.862a3.99,3.99,0,0,1,7.882,0V124.33a2,2,0,0,0,2,2h21.029a3.579,3.579,0,0,1,3.821,3.261v20.564c0,3.957-3.658,7.177-8.154,7.177H152.665c-4.5,0-8.155-3.22-8.155-7.177V105.862ZM23.418,67.039a5.519,5.519,0,0,1,5.512-5.512H175.381a5.519,5.519,0,0,1,5.512,5.512v53.678a5.476,5.476,0,0,1-.894,3,8.179,8.179,0,0,0-4.578-1.386H156.392V105.862c0-4.062-3.563-7.368-7.942-7.368s-7.94,3.306-7.94,7.368v20.367H28.93a5.516,5.516,0,0,1-5.509-5.448c0-.022,0-.042,0-.064Zm128.4,94.293h20.119v13.945H151.817Z" fill="#060928"/>
    <path d="M171.975,140.726c0,5.068-4.546,9.176-10.154,9.176H144.51v.253c0,3.957,3.658,7.177,8.155,7.177h18.423c4.5,0,8.154-3.22,8.154-7.177V129.591a3.579,3.579,0,0,0-3.821-3.261h-3.446Z" fill="#1085fd"/>
    <polygon points="171.936 175.277 171.936 161.332 171.088 161.332 164.965 161.332 164.965 175.277 171.936 175.277" fill="#de2f5c"/>
    <path d="M130.874,105.723v3.345h4.3v-3.345c3.728-.764,5.687-3.679,5.687-7.979,0-3.824-1.482-6.452-5.782-9.893-3.537-2.819-4.492-4.492-4.492-6.69,0-1.959.955-2.867,2.627-2.867s2.629.908,2.629,2.962v1.291h4.969v-.955c0-4.206-1.91-7.074-5.638-7.839V70.839h-4.3v2.914c-3.68.813-5.543,3.681-5.543,7.742,0,3.632,1.481,6.308,5.783,9.7,3.535,2.772,4.491,4.492,4.491,6.882,0,2.151-1.051,3.011-2.724,3.011s-2.724-.86-2.724-2.916V95.64h-4.97v2.2C125.187,102.044,127.1,104.959,130.874,105.723Z" fill="#060928"/>
    <path d="M86.538,103.347h3.993V77.937H87.845c-.908,2.468-2.105,3.194-5.481,3.194v2.831h4.174Z" fill="#060928"/>
    <path d="M99.9,103.71c3.921,0,6.062-2.323,6.062-6.389V83.962c0-4.065-2.141-6.388-6.062-6.388s-6.062,2.323-6.062,6.388V97.321C93.837,101.387,95.979,103.71,99.9,103.71Zm-2.069-20c0-1.815.8-2.5,2.069-2.5s2.069.689,2.069,2.5V97.576c0,1.814-.8,2.505-2.069,2.505s-2.069-.691-2.069-2.505Z" fill="#060928"/>
    <path d="M114.421,103.71c3.921,0,6.063-2.323,6.063-6.389V83.962c0-4.065-2.142-6.388-6.063-6.388s-6.061,2.323-6.061,6.388V97.321C108.36,101.387,110.5,103.71,114.421,103.71Zm-2.068-20c0-1.815.8-2.5,2.068-2.5s2.069.689,2.069,2.5V97.576c0,1.814-.8,2.505-2.069,2.505s-2.068-.691-2.068-2.505Z" fill="#060928"/>
    <polygon points="40.075 84.249 44.258 94.281 64.104 94.281 68.223 84.249 40.075 84.249" fill="#de2f5c"/>
    <circle cx="62.27" cy="105.937" r="0.734" fill="#de2f5c"/>
    <path d="M62.27,101.2A4.735,4.735,0,1,0,67,105.937,4.74,4.74,0,0,0,62.27,101.2Zm0,5.469a.735.735,0,1,1,.734-.734A.735.735,0,0,1,62.27,106.671Z" fill="#060928"/>
    <circle cx="47.059" cy="105.937" r="0.734" fill="#de2f5c"/>
    <path d="M47.059,101.2a4.735,4.735,0,1,0,4.734,4.735A4.74,4.74,0,0,0,47.059,101.2Zm0,5.469a.735.735,0,1,1,.734-.734A.735.735,0,0,1,47.059,106.671Z" fill="#060928"/>
    <path d="M28.717,80.491h5.222l1.319,2.6,5.821,13.962a2,2,0,0,0,1.846,1.23H65.444a2,2,0,0,0,1.851-1.24l5.762-14.032a2,2,0,0,0-1.851-2.76H38.3L36.95,77.586a2,2,0,0,0-1.783-1.095h-6.45a2,2,0,0,0,0,4Zm15.541,13.79L40.075,84.249H68.223L64.1,94.281Z" fill="#060928"/>
  </g>
</svg>
