<svg xmlns="http://www.w3.org/2000/svg" width="200" height="200" viewBox="0 0 200 200">
  <title>icons</title>
  <g>
    <path d="M174.417,32.522V28.945a9.48,9.48,0,0,0-9.47-9.469h-3.67V32.522Z" fill="#1085fd"/>
    <path d="M174.417,165.19V152.563h-13.14v.583c0,5.213-6.241,9.439-13.939,9.439H123.452a7.943,7.943,0,1,1-15.622,0H89.812v6.749a9.267,9.267,0,0,1-1.682,5.327h76.817A9.481,9.481,0,0,0,174.417,165.19Z" fill="#1085fd"/>
    <rect x="161.277" y="36.522" width="13.141" height="112.041" fill="#1085fd"/>
    <path d="M164.947,15.476H65.694a13.486,13.486,0,0,0-13.47,13.469V51.1H30.909a9.337,9.337,0,0,0-9.326,9.327V169.334a9.337,9.337,0,0,0,9.326,9.327H164.947a13.485,13.485,0,0,0,13.47-13.471V28.945A13.485,13.485,0,0,0,164.947,15.476ZM30.909,174.661a5.333,5.333,0,0,1-5.326-5.327V158.4H53.54a7.95,7.95,0,0,0-5.771,7.332c0,.1-.015.2-.015.306a7.944,7.944,0,0,0,15.887,0c0-.1-.012-.2-.016-.306a7.949,7.949,0,0,0-5.77-7.332H85.812v10.931a5.333,5.333,0,0,1-5.327,5.327H30.909Zm0-119.566h9.078A7.021,7.021,0,0,0,47,62.084H64.4A7.022,7.022,0,0,0,71.408,55.1h9.077a5.333,5.333,0,0,1,5.327,5.327v3.906H25.583V60.422A5.332,5.332,0,0,1,30.909,55.1Zm67.86-35.107h33.1V21a5.3,5.3,0,0,1-5.3,5.3H104.064A5.3,5.3,0,0,1,98.769,21Zm-4-.512V21a9.306,9.306,0,0,0,9.295,9.3h22.513a9.306,9.306,0,0,0,9.3-9.3V19.476h29.074a9.48,9.48,0,0,1,9.47,9.469v3.577H56.224V28.945a9.481,9.481,0,0,1,9.47-9.469ZM56.224,36.522H174.417V148.563h-84.6V60.422A9.337,9.337,0,0,0,80.485,51.1H56.224Zm2.094,126.594A3.926,3.926,0,1,1,55.7,162.1,3.923,3.923,0,0,1,58.318,163.116ZM25.583,154.4V68.328H85.812V154.4H25.583ZM61.675,55.494h5.7a3.019,3.019,0,0,1-2.984,2.59H47a3.02,3.02,0,0,1-2.985-2.59Zm28.137,113.84V152.563h84.605V165.19a9.481,9.481,0,0,1-9.47,9.471H88.13A9.267,9.267,0,0,0,89.812,169.334Z" fill="#060928"/>
    <path d="M116.572,26.3h10a5.3,5.3,0,0,0,5.3-5.3V19.988h-8.464v1.467C123.4,23.722,120.432,25.262,116.572,26.3Z" fill="#de2f5c"/>
    <path d="M118.262,161.066a5.94,5.94,0,0,1-5.853,5.173,3.934,3.934,0,1,0,5.853-5.173Z" fill="#de2f5c"/>
    <path d="M115.641,156.048a7.983,7.983,0,1,0,7.811,6.537A7.952,7.952,0,0,0,115.641,156.048Zm3.943,7.943a3.981,3.981,0,1,1-1.322-2.925A3.948,3.948,0,0,1,119.584,163.991Z" fill="#060928"/>
    <path d="M85.812,64.328V60.422A5.333,5.333,0,0,0,80.485,55.1h-.631v9.233Z" fill="#1085fd"/>
    <path d="M85.812,169.334V158.4H79.854v0a7.327,7.327,0,0,1-7.327,7.327h-8.9c0,.1.016.2.016.306a7.944,7.944,0,0,1-15.887,0c0-.1.012-.2.015-.306H25.583v3.6a5.333,5.333,0,0,0,5.326,5.327H80.485A5.333,5.333,0,0,0,85.812,169.334Z" fill="#1085fd"/>
    <rect x="79.854" y="68.328" width="5.958" height="86.075" fill="#1085fd"/>
    <path d="M60.657,58.084H64.4a3.019,3.019,0,0,0,2.984-2.59h-5.7v.69A2.512,2.512,0,0,1,60.657,58.084Z" fill="#de2f5c"/>
    <path d="M52.465,168.289a3.935,3.935,0,1,0,5.853-5.173A5.94,5.94,0,0,1,52.465,168.289Z" fill="#de2f5c"/>
  </g>
</svg>
