<svg xmlns="http://www.w3.org/2000/svg" width="200" height="200" viewBox="0 0 200 200">
  <title>icons</title>
  <g>
    <path d="M107.719,124.313l4.445-4.706A103.954,103.954,0,0,0,131.7,90.092l27.279-62.134a2.636,2.636,0,0,0-1.879,1.1L112.145,87.35a101.337,101.337,0,0,0-16.006,30.1Z" fill="none"/>
    <path d="M84.778,161.328a25.073,25.073,0,0,0,10.767-13.617l.114-.348a18.414,18.414,0,0,0,.923-5.539l-4.192-2.487-1.186.215a15.623,15.623,0,0,0-8.485,4.77l-.25.267a23.168,23.168,0,0,0-6.245,14.69l-.291,7.347Z" fill="none"/>
    <polygon points="104.903 127.293 94.862 121.338 93.12 126.711 101.024 131.399 104.903 127.293" fill="none"/>
    <path d="M112.164,119.607l-4.445,4.706,7.483,4.438a101.336,101.336,0,0,0,18.734-28.477l29.591-67.4c.479-1.092.312-2.269-.38-2.68l-3.514-2.084a1.2,1.2,0,0,0-.655-.151L131.7,90.092A103.954,103.954,0,0,1,112.164,119.607Z" fill="#1085fd"/>
    <polygon points="112.398 131.739 104.903 127.293 101.024 131.399 93.12 126.711 91.42 131.952 104.735 139.849 112.398 131.739" fill="#1085fd"/>
    <path d="M95.545,147.711a25.073,25.073,0,0,1-10.767,13.617l-8.845,5.3-.281,7.086,12.391-7.423a23.166,23.166,0,0,0,9.895-12.524l.115-.348a15.626,15.626,0,0,0,.117-9.733l-.38-1.143-1.208-.717a18.414,18.414,0,0,1-.923,5.539Z" fill="#de2f5c"/>
    <path d="M30.757,180.339H151.589a2,2,0,0,0,0-4H79.052L90.1,169.721a27.222,27.222,0,0,0,11.64-14.708h0l.115-.347a19.744,19.744,0,0,0,.262-11.719l1.954,1.159a2,2,0,0,0,2.474-.346l9.928-10.508a1.968,1.968,0,0,0,1-.829,2.006,2.006,0,0,0,.185-.424l.028-.031A105.286,105.286,0,0,0,137.6,101.882l29.591-67.4c1.321-3.007.478-6.257-2-7.729l-3.514-2.084c-2.479-1.471-5.736-.652-7.741,1.95l-44.954,58.29a105.292,105.292,0,0,0-16.852,31.9l-.013.04a2.021,2.021,0,0,0-.284.366,1.982,1.982,0,0,0-.253,1.29l-4.454,13.735A2,2,0,0,0,88,134.576l1.955,1.16a19.743,19.743,0,0,0-10.158,5.85l-.25.267a27.221,27.221,0,0,0-7.324,17.268l-.682,17.218H30.757a2,2,0,0,0,0,4ZM93.12,126.711l1.742-5.373,10.041,5.955,7.495,4.446-7.663,8.11-13.315-7.9ZM112.145,87.35,157.1,29.061a2.636,2.636,0,0,1,1.879-1.1,1.2,1.2,0,0,1,.655.151l3.514,2.084c.692.411.859,1.588.38,2.68l-29.591,67.4A101.336,101.336,0,0,1,115.2,128.751l-7.483-4.438-11.58-6.868A101.337,101.337,0,0,1,112.145,87.35ZM82.469,144.589l.25-.267a15.623,15.623,0,0,1,8.485-4.77l1.186-.215,4.192,2.487,1.208.717.38,1.143a15.626,15.626,0,0,1-.117,9.733l-.115.348a23.166,23.166,0,0,1-9.895,12.524l-12.391,7.423.281-7.086.291-7.347A23.168,23.168,0,0,1,82.469,144.589Z" fill="#060928"/>
  </g>
</svg>
