<svg xmlns="http://www.w3.org/2000/svg" width="200" height="200" viewBox="0 0 200 200">
  <title>icons</title>
  <g>
    <path d="M41.23,109.245H54.062v11.684l5.016-5.016a2,2,0,0,1,1.414-.586h6.866V95.806h-9.8a2,2,0,1,1,0-4h9.8V77.114h-9.8a2,2,0,0,1,0-4h9.8V68.177a2,2,0,0,1,2-2h70.7V35.522H41.23ZM57.555,53.3h63.207a2,2,0,0,1,0,4H57.555a2,2,0,0,1,0-4Z" fill="none"/>
    <path d="M41.23,109.245V35.522H24.757v79.805H35.59a2,2,0,0,1,2,2V137.4l16.472-16.472V109.245Z" fill="#de2f5c"/>
    <path d="M57.555,57.3h63.207a2,2,0,0,0,0-4H57.555a2,2,0,0,0,0,4Z" fill="#060928"/>
    <path d="M20.757,33.522v83.805a2,2,0,0,0,2,2H33.59v22.9A2,2,0,0,0,37,143.644l24.317-24.317h6.037v24.632a2,2,0,0,0,2,2h72.934l21.932,21.933a2,2,0,0,0,3.414-1.414V145.959h9.6a2,2,0,0,0,2-2V68.177a2,2,0,0,0-2-2h-33.18V33.522a2,2,0,0,0-2-2H22.757A2,2,0,0,0,20.757,33.522ZM175.243,141.959h-9.6a2,2,0,0,0-2,2v17.69l-19.1-19.1a2,2,0,0,0-1.414-.586H71.358V70.177H175.243Zm-35.18-75.782h-70.7a2,2,0,0,0-2,2v4.937h-9.8a2,2,0,0,0,0,4h9.8V91.806h-9.8a2,2,0,1,0,0,4h9.8v19.521H60.492a2,2,0,0,0-1.414.586l-5.016,5.016L37.59,137.4V117.327a2,2,0,0,0-2-2H24.757V35.522H140.063Z" fill="#060928"/>
    <path d="M105.177,129.839a17.106,17.106,0,0,1-17.106-17.106V70.177H71.358v71.782H143.12a2,2,0,0,1,1.414.586l19.1,19.1v-17.69a2,2,0,0,1,2-2h8.315l-12.12-12.12Z" fill="#1085fd"/>
    <path d="M97.748,85.074a2,2,0,0,0,0,4h63.207a2,2,0,0,0,0-4Z" fill="#060928"/>
    <path d="M160.955,101.207H97.748a2,2,0,1,0,0,4h63.207a2,2,0,1,0,0-4Z" fill="#060928"/>
    <path d="M131.352,117.327a2,2,0,0,0-2-2h-31.6a2,2,0,1,0,0,4h31.6A2,2,0,0,0,131.352,117.327Z" fill="#060928"/>
  </g>
</svg>
