<svg xmlns="http://www.w3.org/2000/svg" width="200" height="200" viewBox="0 0 200 200">
  <title>icons</title>
  <g>
    <path d="M65.371,105.562a1.8,1.8,0,0,1,.121.173A165.969,165.969,0,0,1,78.2,124.771h2.9a34.838,34.838,0,0,0,29.278-16.122c4.341-6.756,8.763-12.417,8.763-12.417l-.022.011a45.84,45.84,0,0,0-.994-57.594,43.875,43.875,0,0,0-52.753,66.913Zm1.2-37.018c3.835-16.434,17.01-20.221,17.57-20.374A2,2,0,0,1,85.2,52.026c-.5.141-11.465,3.407-14.736,17.427a2,2,0,0,1-3.895-.909Z" fill="none"/>
    <path d="M99.755,174.669a6.668,6.668,0,0,0,1.99-4.758v-6.02H91.252v6.02a4.763,4.763,0,0,0,4.758,4.758Z" fill="none"/>
    <path d="M87.449,147.928h19.842a7.163,7.163,0,0,0,0-10.609h-23.9a5.307,5.307,0,1,0,0,10.609Z" fill="none"/>
    <path d="M89.252,159.891h17.98a5.527,5.527,0,0,0-.737-7.963H88.272a3.984,3.984,0,1,0,0,7.963Z" fill="none"/>
    <path d="M119.118,96.243l.022-.011s-4.422,5.661-8.763,12.417A34.838,34.838,0,0,1,81.1,124.771H78.2a48.966,48.966,0,0,1,3.846,8.548h35.9c3.133-10.051,15.02-25.6,16.557-27.585a1.98,1.98,0,0,1,.121-.172,43.459,43.459,0,0,0,9.264-26.953,43.945,43.945,0,0,0-25.769-39.96,45.84,45.84,0,0,1,.994,57.594Z" fill="#1085fd"/>
    <path d="M109.64,142.623a7.2,7.2,0,0,1-2.349,5.305h6.252a5.307,5.307,0,1,0,0-10.609H107.29A7.194,7.194,0,0,1,109.64,142.623Z" fill="#de2f5c"/>
    <path d="M108.591,156.267a5.524,5.524,0,0,1-1.359,3.624H110.9c.073,0,.144,0,.214,0,4.7,0,5.088-2.871,5.118-3.454a2.03,2.03,0,0,1,.1-.494,1.985,1.985,0,0,1-.1-.519c-.032-.6-.482-3.534-5.3-3.448H110.9a2.029,2.029,0,0,1-.429-.049H106.5A5.56,5.56,0,0,1,108.591,156.267Z" fill="#de2f5c"/>
    <path d="M62.071,107.834a1.941,1.941,0,0,0,.124.177c.137.176,13.283,17.079,16.118,26.769a9.257,9.257,0,0,0-4.4,7.844,9.36,9.36,0,0,0,7.463,9.086,7.819,7.819,0,0,0-1.229,4.2,8.041,8.041,0,0,0,7.109,7.912v6.09a8.768,8.768,0,0,0,8.758,8.758h8.133a8.767,8.767,0,0,0,8.757-8.758v-6.143c5.624-.735,7.283-4.889,7.331-7.216a2.079,2.079,0,0,1,0-1.236,7.323,7.323,0,0,0-1.942-4.649,9.273,9.273,0,0,0,4.739-8.043,9.157,9.157,0,0,0-2.148-5.889,1.98,1.98,0,0,0,.548-.971c2.163-9.478,16.235-27.571,16.377-27.753a1.751,1.751,0,0,0,.123-.177,47.409,47.409,0,0,0,9.965-29.225,47.893,47.893,0,0,0-95.786,0A47.415,47.415,0,0,0,62.071,107.834Zm15.838,34.79a5.4,5.4,0,0,1,5.485-5.305h30.149a5.307,5.307,0,1,1,0,10.609H83.394A5.4,5.4,0,0,1,77.909,142.624Zm6.234,13.285a4.062,4.062,0,0,1,4.129-3.981h22.2a2.029,2.029,0,0,0,.429.049h.033c4.818-.086,5.268,2.847,5.3,3.448a1.985,1.985,0,0,0,.1.519,2.03,2.03,0,0,0-.1.494c-.03.583-.42,3.454-5.118,3.454-.07,0-.141,0-.214,0H88.272A4.062,4.062,0,0,1,84.143,155.909Zm7.109,14v-6.02H108.9v6.02a4.763,4.763,0,0,1-4.757,4.758H96.01A4.763,4.763,0,0,1,91.252,169.911ZM100,34.717a43.879,43.879,0,0,1,34.629,70.845,1.98,1.98,0,0,0-.121.172c-1.537,1.986-13.424,17.534-16.557,27.585h-35.9a48.966,48.966,0,0,0-3.846-8.548,165.969,165.969,0,0,0-12.711-19.036,1.8,1.8,0,0,0-.121-.173,43.459,43.459,0,0,1-9.264-26.953A43.943,43.943,0,0,1,100,34.717Z" fill="#060928"/>
    <path d="M99.755,174.669h4.388a4.763,4.763,0,0,0,4.757-4.758v-6.02h-7.155v6.02A6.668,6.668,0,0,1,99.755,174.669Z" fill="#1085fd"/>
    <path d="M68.065,70.946a2,2,0,0,0,2.4-1.493C73.738,55.433,84.706,52.167,85.2,52.026a2,2,0,0,0-1.061-3.856c-.56.153-13.735,3.94-17.57,20.374A2,2,0,0,0,68.065,70.946Z" fill="#060928"/>
    <path d="M49.638,42.479a2,2,0,0,0,2.828-2.828L40.782,27.967A2,2,0,1,0,37.954,30.8Z" fill="#060928"/>
    <path d="M49.638,103.279,37.954,114.963a2,2,0,0,0,2.828,2.829l11.684-11.685a2,2,0,0,0-2.828-2.828Z" fill="#060928"/>
    <path d="M27,74.506H42.327a2,2,0,0,0,0-4H27a2,2,0,0,0,0,4Z" fill="#060928"/>
    <path d="M150.217,43.065a1.992,1.992,0,0,0,1.414-.586L163.315,30.8a2,2,0,1,0-2.828-2.828L148.8,39.651a2,2,0,0,0,1.414,3.414Z" fill="#060928"/>
    <path d="M160.487,117.792a2,2,0,1,0,2.828-2.829l-11.684-11.684a2,2,0,1,0-2.828,2.828Z" fill="#060928"/>
    <path d="M156.942,72.506a2,2,0,0,0,2,2h15.327a2,2,0,0,0,0-4H158.942A2,2,0,0,0,156.942,72.506Z" fill="#060928"/>
    <path d="M100,26.426a2,2,0,0,0,2-2V11.356a2,2,0,1,0-4,0v13.07A2,2,0,0,0,100,26.426Z" fill="#060928"/>
  </g>
</svg>
