<svg xmlns="http://www.w3.org/2000/svg" width="200" height="200" viewBox="0 0 200 200">
  <title>icons</title>
  <g>
    <rect x="69.644" y="96.477" width="2.316" height="80.323" fill="none"/>
    <path d="M71.96,43.765v-4.5a9.983,9.983,0,0,1-2.316-.281v4.785Z" fill="none"/>
    <rect x="71.96" y="96.477" width="2.316" height="80.323" fill="#1085fd"/>
    <path d="M74.275,43.765V38.98a9.928,9.928,0,0,1-2.315.281h0v4.5Z" fill="#1085fd"/>
    <path d="M176.6,58.326h-18.24l-2.312,4.244a21.434,21.434,0,0,0-1.5,17.072l1.939,5.784a7.362,7.362,0,0,1-6.98,9.7h-5.679a1.994,1.994,0,0,1-1.882,1.348H124.683v6.561H176.6l-11.647-21.4a2,2,0,0,1,0-1.912Z" fill="#de2f5c"/>
    <path d="M181.688,55.3a2,2,0,0,0-1.72-.978H143.949V45.765a2,2,0,0,0-2-2H78.275V37.013a10.031,10.031,0,1,0-12.631,0V176.8H44.106a2,2,0,1,0,0,4H164.938a2,2,0,0,0,0-4H78.275V96.477h42.408v8.561a2,2,0,0,0,2,2h57.285a2,2,0,0,0,1.757-2.956l-12.735-23.4,12.735-23.4A2,2,0,0,0,181.688,55.3ZM164.956,81.638l11.647,21.4h-51.92V96.477h17.266a2.031,2.031,0,0,0,2-2V58.326H176.6l-11.647,21.4A2,2,0,0,0,164.956,81.638ZM139.949,47.765V92.477h-70.3V47.765h70.3ZM75.673,24.489A6.021,6.021,0,1,1,71.96,23.2,6.016,6.016,0,0,1,75.673,24.489ZM71.96,39.261h0a9.928,9.928,0,0,0,2.315-.281v4.785H69.644V38.98A9.983,9.983,0,0,0,71.96,39.261ZM69.644,96.477h4.631V176.8H69.644Z" fill="#060928"/>
    <path d="M129.115,72.4A11.635,11.635,0,0,1,117.48,84.035H69.649v8.442h70.3V47.765H129.115Z" fill="#1085fd"/>
    <path d="M103.586,75.826h4.434v-.07l.708,4.928h3.9l-4.042-24.822H103.3L99.26,80.684h3.618Zm2.164-15.637h.071l1.737,12.269h-3.51Z"/>
    <path d="M67.649,32.66c-.227,0-.449-.017-.67-.036a6.026,6.026,0,1,0,8.694-8.135c0,.047.007.093.007.14A8.032,8.032,0,0,1,67.649,32.66Z" fill="#1085fd"/>
  </g>
</svg>
