<svg xmlns="http://www.w3.org/2000/svg" width="200" height="200" viewBox="0 0 200 200">
  <title>icons</title>
  <g>
    <path d="M165.044,121.461V27.6H142.587L127.346,62.314A72.672,72.672,0,0,1,113.67,83a1.837,1.837,0,0,1-.983,1.043l-6.7,7.1a2,2,0,0,1-2.474.347l-.06-.036a14.406,14.406,0,0,1-.533,6.913l-.08.24A19.268,19.268,0,0,1,94.6,109.011l-4.445,2.662h20.381a2,2,0,0,1,0,4H59.715a2,2,0,0,1,0-4H81l.415-10.481A19.264,19.264,0,0,1,86.6,88.972l.17-.181a14.383,14.383,0,0,1,5.812-3.785l-.061-.036a2,2,0,0,1-.882-2.338l3-9.258a1.986,1.986,0,0,1,.275-1.148,2.048,2.048,0,0,1,.177-.241,72.673,72.673,0,0,1,11.6-21.923L124.011,27.6H25.95A6.561,6.561,0,0,0,19.4,34.155v87.306Z" fill="none"/>
    <rect x="82.066" y="154.086" width="35.921" height="8.498" fill="none"/>
    <path d="M100.027,126.037a8.091,8.091,0,0,1,8.015,7.087H156.49A8.555,8.555,0,0,0,165,125.461H19.4v7.663H92.012A8.09,8.09,0,0,1,100.027,126.037Z" fill="none"/>
    <path d="M89.516,91.707a15.206,15.206,0,0,0-4.1,9.644l-.183,4.613,5.4-3.237A17.146,17.146,0,0,0,98,93.412l.079-.238A12.713,12.713,0,0,0,98.67,90.1l-2.949-1.749-.58.105a10.055,10.055,0,0,0-5.455,3.073Z" fill="none"/>
    <path d="M113.465,166.584H70.657a4.517,4.517,0,0,0-4.511,4.512v1.236h30.98C106.31,170.639,111.087,168.259,113.465,166.584Z" fill="none"/>
    <path d="M180.658,136.226V125.461H165a8.555,8.555,0,0,1-8.507,7.663H108.042a8.179,8.179,0,0,1,.068,1,8.083,8.083,0,0,1-16.166,0,7.983,7.983,0,0,1,.068-1H19.4v3.1a6.561,6.561,0,0,0,6.554,6.553H174.1A6.562,6.562,0,0,0,180.658,136.226Z" fill="#1085fd"/>
    <path d="M180.658,121.461V34.155A6.562,6.562,0,0,0,174.1,27.6h-9.06v93.86Z" fill="#1085fd"/>
    <rect x="82.066" y="146.779" width="35.921" height="7.307" fill="#1085fd"/>
    <path d="M133.908,172.332V171.1a4.517,4.517,0,0,0-4.512-4.512H113.465c-2.378,1.675-7.155,4.055-16.339,5.748Z" fill="#de2f5c"/>
    <path d="M174.1,23.6H144.343l3.247-7.4a4.712,4.712,0,0,0-1.626-6.084l-2.4-1.426a4.713,4.713,0,0,0-6.119,1.492L127.1,23.6H25.95A10.565,10.565,0,0,0,15.4,34.155v88.861a1.861,1.861,0,0,0,0,.89v12.32A10.565,10.565,0,0,0,25.95,146.779H78.066v15.805H70.657a8.521,8.521,0,0,0-8.511,8.512v3.236a2,2,0,0,0,2,2h71.762a2,2,0,0,0,2-2V171.1a8.521,8.521,0,0,0-8.512-8.512h-7.409V146.779H174.1a10.566,10.566,0,0,0,10.554-10.553V34.155A10.566,10.566,0,0,0,174.1,23.6ZM119.987,142.779H25.95a6.561,6.561,0,0,1-6.554-6.553V125.461H180.658v10.765a6.562,6.562,0,0,1-6.554,6.553Zm21.08-130.544a.574.574,0,0,1,.453-.1l2.4,1.426c.1.059.253.467,0,1.035l-20.244,46.11a68.708,68.708,0,0,1-12.359,18.928l-4.553-2.7-7.6-4.508A68.716,68.716,0,0,1,109.855,52.5l30.754-39.876A1.433,1.433,0,0,1,141.067,12.235Zm-36.893,75-8.24-4.887.963-2.969.993-3.06,6.067,3.6,4.57,2.711Zm-8.453,1.115L98.67,90.1l.34.2.186.558a10.053,10.053,0,0,1-.08,6.259l-.079.239v0a15.2,15.2,0,0,1-6.493,8.223l-7.475,4.478.162-4.093.183-4.613a15.206,15.206,0,0,1,4.1-9.644l.17-.182a10.055,10.055,0,0,1,5.455-3.073ZM25.95,27.6h98.061L106.688,50.062a72.673,72.673,0,0,0-11.6,21.923,2.048,2.048,0,0,0-.177.241,1.986,1.986,0,0,0-.275,1.148l-3,9.258a2,2,0,0,0,.882,2.338l.061.036a14.383,14.383,0,0,0-5.812,3.785l-.17.181a19.264,19.264,0,0,0-5.181,12.22L81,111.673H59.715a2,2,0,0,0,0,4h50.82a2,2,0,0,0,0-4H90.154l4.445-2.662a19.268,19.268,0,0,0,8.237-10.4l.08-.24a14.406,14.406,0,0,0,.533-6.913l.06.036a2,2,0,0,0,2.474-.347l6.7-7.1A1.837,1.837,0,0,0,113.67,83a72.672,72.672,0,0,0,13.676-20.689L142.587,27.6H174.1a6.562,6.562,0,0,1,6.554,6.554v87.306H19.4V34.155A6.561,6.561,0,0,1,25.95,27.6Zm40.2,143.5a4.517,4.517,0,0,1,4.511-4.512H129.4a4.517,4.517,0,0,1,4.512,4.512v1.236H66.146Zm15.92-8.512V146.779h35.921v15.805Z" fill="#060928"/>
    <path d="M100.027,126.037a8.09,8.09,0,0,0-8.015,7.087,7.983,7.983,0,0,0-.068,1,8.083,8.083,0,0,0,16.166,0,8.179,8.179,0,0,0-.068-1A8.091,8.091,0,0,0,100.027,126.037Zm4.083,8.083a4.083,4.083,0,1,1-4.083-4.083A4.088,4.088,0,0,1,104.11,134.12Z" fill="#060928"/>
    <polygon points="103.957 79.914 101.747 82.252 96.897 79.376 95.934 82.345 104.174 87.232 108.527 82.625 103.957 79.914" fill="#1085fd"/>
    <path d="M122.733,53.994a71.138,71.138,0,0,1-13.364,20.192l-2.6,2.748,4.553,2.7a68.708,68.708,0,0,0,12.359-18.928L143.928,14.6c.249-.568.1-.976,0-1.035l-2.4-1.426a.574.574,0,0,0-.453.1Z" fill="#1085fd"/>
    <path d="M98,93.412a17.146,17.146,0,0,1-7.366,9.315l-5.4,3.237-.162,4.093,7.475-4.478a15.2,15.2,0,0,0,6.493-8.223v0l.079-.239a10.053,10.053,0,0,0,.08-6.259L99.01,90.3l-.34-.2a12.713,12.713,0,0,1-.592,3.078Z" fill="#de2f5c"/>
  </g>
</svg>
