<svg xmlns="http://www.w3.org/2000/svg" width="200" height="200" viewBox="0 0 200 200">
  <title>icons</title>
  <g>
    <path d="M167.663,45.38a9.623,9.623,0,0,0-3.783-7.65H29.81a7.659,7.659,0,0,0-7.65,7.65V55.5h145.5Zm-25.722,8.225a6.99,6.99,0,1,1,6.99-6.99A7,7,0,0,1,141.941,53.605Zm17.321,0a6.99,6.99,0,1,1,6.99-6.99A7,7,0,0,1,159.262,53.605Z" fill="none"/>
    <path d="M124.234,124.632a16.311,16.311,0,0,0,16.311-16.311v-34.7H49.473v51.01Z" fill="none"/>
    <path d="M157.518,47.974a4.97,4.97,0,0,0,4.405-2.693,2.979,2.979,0,0,0-5.364,2.593A4.873,4.873,0,0,0,157.518,47.974Z" fill="none"/>
    <path d="M22.16,150.976H157.984a9.649,9.649,0,0,0,9.65-9.65V59.5H22.16ZM45.473,71.622a2,2,0,0,1,2-2H152.527a2,2,0,0,1,2,2v62.515a2,2,0,0,1-2,2H47.473a2,2,0,0,1-2-2Zm2,71.378H152.451a2,2,0,1,1,0,4H47.473a2,2,0,0,1,0-4Z" fill="none"/>
    <path d="M140.19,47.974a4.971,4.971,0,0,0,4.409-2.7,2.979,2.979,0,0,0-5.359,2.6A4.79,4.79,0,0,0,140.19,47.974Z" fill="none"/>
    <path d="M157.984,150.976H22.16v.5a7.659,7.659,0,0,0,7.65,7.65H170.19a7.659,7.659,0,0,0,7.65-7.65V59.5H167.634v81.826A9.649,9.649,0,0,1,157.984,150.976Z" fill="#1085fd"/>
    <path d="M29.81,163.13H170.19a11.663,11.663,0,0,0,11.65-11.65V45.38a11.663,11.663,0,0,0-11.65-11.65H29.81A11.663,11.663,0,0,0,18.16,45.38v106.1A11.663,11.663,0,0,0,29.81,163.13ZM177.84,59.5v91.98a7.659,7.659,0,0,1-7.65,7.65H29.81a7.659,7.659,0,0,1-7.65-7.65V59.5H177.84ZM22.16,45.38a7.659,7.659,0,0,1,7.65-7.65H170.19a7.659,7.659,0,0,1,7.65,7.65V55.5H22.16Z" fill="#060928"/>
    <path d="M167.663,45.38V55.5H177.84V45.38a7.659,7.659,0,0,0-7.65-7.65h-6.31A9.623,9.623,0,0,1,167.663,45.38Z" fill="#1085fd"/>
    <path d="M157.518,47.974a4.873,4.873,0,0,1-.959-.1,2.985,2.985,0,0,0,5.693-1.259,2.94,2.94,0,0,0-.329-1.334A4.97,4.97,0,0,1,157.518,47.974Z" fill="#de2f5c"/>
    <path d="M140.19,47.974a4.79,4.79,0,0,1-.95-.1,2.984,2.984,0,0,0,5.691-1.261,2.955,2.955,0,0,0-.332-1.34A4.971,4.971,0,0,1,140.19,47.974Z" fill="#de2f5c"/>
    <path d="M159.262,39.625a6.99,6.99,0,1,0,6.99,6.99A7,7,0,0,0,159.262,39.625Zm0,4a2.982,2.982,0,0,1,2.661,1.656,2.94,2.94,0,0,1,.329,1.334,2.985,2.985,0,0,1-5.693,1.259,2.955,2.955,0,0,1-.288-1.259A2.994,2.994,0,0,1,159.262,43.625Z" fill="#060928"/>
    <path d="M141.941,39.625a6.99,6.99,0,1,0,6.99,6.99A7,7,0,0,0,141.941,39.625Zm0,4a2.972,2.972,0,1,1-2.99,2.99A2.983,2.983,0,0,1,141.941,43.625Z" fill="#060928"/>
    <path d="M124.234,124.632H49.473v7.5H150.527V73.622h-9.982v34.7A16.311,16.311,0,0,1,124.234,124.632Z" fill="#de2f5c"/>
    <path d="M47.473,136.137H152.527a2,2,0,0,0,2-2V71.622a2,2,0,0,0-2-2H47.473a2,2,0,0,0-2,2v62.515A2,2,0,0,0,47.473,136.137Zm93.072-62.515h9.982v58.515H49.473V73.622Z" fill="#060928"/>
    <path d="M47.473,147H152.451a2,2,0,1,0,0-4H47.473a2,2,0,0,0,0,4Z" fill="#060928"/>
  </g>
</svg>
