<svg xmlns="http://www.w3.org/2000/svg" width="200" height="200" viewBox="0 0 200 200">
  <title>icons</title>
  <g>
    <rect x="130.302" y="40.26" width="7.983" height="108.99" fill="#1085fd"/>
    <path d="M138.285,36.26V30.852a7.2,7.2,0,0,0-7.191-7.191H130.3v12.6Z" fill="#1085fd"/>
    <path d="M121.111,162.955H109.436c0,.128.02.254.02.384a9.456,9.456,0,0,1-18.912,0c0-.13.015-.256.02-.384H61.715v4.515a7.2,7.2,0,0,0,7.191,7.191h62.188a7.2,7.2,0,0,0,7.191-7.191V153.25H130.3v.515A9.19,9.19,0,0,1,121.111,162.955Z" fill="#1085fd"/>
    <path d="M68.906,178.661h62.188a11.2,11.2,0,0,0,11.191-11.191V30.852a11.2,11.2,0,0,0-11.191-11.191H68.906A11.2,11.2,0,0,0,57.715,30.852V167.47A11.2,11.2,0,0,0,68.906,178.661Zm0-155H80.8v1.607A8.942,8.942,0,0,0,89.731,34.2h20.538a8.942,8.942,0,0,0,8.931-8.932V23.661h11.894a7.2,7.2,0,0,1,7.191,7.191V36.26H61.715V30.852A7.2,7.2,0,0,1,68.906,23.661Zm15.894.5h30.4v1.107a4.937,4.937,0,0,1-4.931,4.932H89.731A4.937,4.937,0,0,1,84.8,25.268ZM61.715,40.26h76.57V149.25H61.715ZM130.3,153.25h7.983v14.22a7.2,7.2,0,0,1-7.191,7.191H68.906a7.2,7.2,0,0,1-7.191-7.191V153.25Z" fill="#060928"/>
    <path d="M101.345,30.2h8.924a4.937,4.937,0,0,0,4.931-4.932V24.161h-7.7v1.375C107.493,27.706,104.833,29.191,101.345,30.2Z" fill="#de2f5c"/>
    <path d="M95.9,166.161c-.2,0-.388-.016-.58-.031a5.45,5.45,0,1,0,8.019-7.095A7.45,7.45,0,0,1,95.9,166.161Z" fill="#de2f5c"/>
    <path d="M100,172.794a9.466,9.466,0,0,0,9.456-9.455c0-.13-.015-.256-.02-.384a9.443,9.443,0,0,0-18.872,0c0,.128-.02.254-.02.384A9.466,9.466,0,0,0,100,172.794Zm0-14.91a5.443,5.443,0,1,1-5.456,5.455A5.42,5.42,0,0,1,100,157.884Z" fill="#060928"/>
  </g>
</svg>
