<svg xmlns="http://www.w3.org/2000/svg" width="200" height="200" viewBox="0 0 200 200">
  <title>icons</title>
  <g>
    <path d="M59.919,40.833v-4.5h0a9.981,9.981,0,0,1-2.315-.28v4.784Z" fill="none"/>
    <rect x="57.604" y="130.892" width="2.316" height="42.976" fill="none"/>
    <path d="M62.235,40.833V36.048a10,10,0,0,1-2.316.281v4.5Z" fill="#1085fd"/>
    <rect x="59.919" y="130.892" width="2.316" height="42.976" fill="#1085fd"/>
    <path d="M164.562,55.394H146.323l-2.313,4.244a21.438,21.438,0,0,0-1.5,17.072l1.94,5.784a7.362,7.362,0,0,1-6.98,9.7h-5.679a2,2,0,0,1-1.882,1.348H113.8v4.5h26.751a1.98,1.98,0,0,1,1.989,2.064h22.021l-11.646-21.4a2,2,0,0,1,0-1.912Z" fill="#de2f5c"/>
    <path d="M169.646,52.372a2,2,0,0,0-1.719-.978H131.909V42.833a2,2,0,0,0-2-2H66.235V34.081a10.031,10.031,0,1,0-12.631,0V173.867H32.066a2,2,0,0,0,0,4H152.9a2,2,0,0,0,0-4H66.235V130.892h29v5.987a2,2,0,0,0,2,2h43.321a2,2,0,0,0,1.757-2.956l-9.5-17.463,7.812-14.355h27.31a2,2,0,0,0,1.757-2.956l-12.735-23.4,12.735-23.4A2,2,0,0,0,169.646,52.372Zm-16.73,26.334,11.646,21.4H142.541a1.98,1.98,0,0,0-1.989-2.064H113.8v-4.5h16.108a2.031,2.031,0,0,0,2-2V55.394h32.653l-11.646,21.4A2,2,0,0,0,152.916,78.706Zm-24.145,40.71,8.416,15.463H99.231v-3.987H111.8a2.029,2.029,0,0,0,2-2V102.041h23.386L128.771,117.5A2,2,0,0,0,128.771,119.416Zm-71.159,7.476V94.054H109.8v32.838Zm70.3-82.059V89.545h-70.3V44.833h70.3ZM59.919,20.268a6.026,6.026,0,1,1-6.03,6.031A5.993,5.993,0,0,1,59.919,20.268Zm0,16.061h0a10,10,0,0,0,2.316-.281v4.785H57.6V36.049A9.981,9.981,0,0,0,59.919,36.329ZM57.6,130.892h4.631v42.975H57.6Z" fill="#060928"/>
    <path d="M117.074,69.468A11.635,11.635,0,0,1,105.44,81.1H57.608v8.442h70.3V44.833H117.074Z" fill="#1085fd"/>
    <path d="M91.546,72.9h4.433v-.071l.709,4.928h3.9L96.546,52.931H91.263L87.22,77.752h3.617ZM93.71,57.257h.071l1.737,12.269H92.007Z" fill="#060928"/>
    <path d="M55.609,29.728c-.227,0-.449-.017-.671-.036a6.026,6.026,0,1,0,8.7-8.135c0,.047.006.093.006.14A8.031,8.031,0,0,1,55.609,29.728Z" fill="#1085fd"/>
    <path d="M137.187,102.041H123.948l-1.483,2.722a16.206,16.206,0,0,0-1.134,12.91l1.467,4.374a5.568,5.568,0,0,1-5.279,7.338h-3.786a2,2,0,0,1-1.932,1.507H99.231v3.987h37.956l-8.416-15.463a2,2,0,0,1,0-1.912Z" fill="#1085fd"/>
    <path d="M109.8,126.892V94.054H102.1V112.2a8.8,8.8,0,0,1-8.8,8.8H57.612v5.9Z" fill="#de2f5c"/>
    <path d="M80.194,119.206H85.2c3.184,0,4.834-1.679,4.834-4.805v-1.736c0-2.142-.666-3.647-2.373-4.226v-.058c1.417-.579,2.054-1.881,2.054-3.965v-.811c0-3.126-1.418-4.659-4.718-4.659h-4.8Zm6.339-15.282v1.129c0,1.62-.724,2.142-1.911,2.142H83.378V101.84h1.533C86.04,101.84,86.533,102.477,86.533,103.924Zm-3.155,12.387v-6.223H84.8c1.447,0,2.055.579,2.055,2.461v1.766c0,1.5-.579,2-1.65,2Z" fill="#060928"/>
  </g>
</svg>
