<svg xmlns="http://www.w3.org/2000/svg" width="200" height="200" viewBox="0 0 200 200">
  <title>icons</title>
  <g>
    <path d="M124.608,63.6a30.689,30.689,0,0,0,46.141-3.028,28.638,28.638,0,0,0,.083-12.139L153.25,66.017a2.06,2.06,0,0,1-2.829,0l-19.49-19.492a2,2,0,0,1,0-2.828l17.581-17.582a28.728,28.728,0,0,0-32.806,18.2A30.613,30.613,0,0,0,124.608,63.6Z" fill="none"/>
    <path d="M78.6,119.222l41.359-41.36c-.148-.143-.3-.279-.448-.425a32.653,32.653,0,0,1-6.019-8.291L69.882,112.755a32.629,32.629,0,0,1,8.291,6.019C78.319,118.92,78.456,119.073,78.6,119.222Z" fill="none"/>
    <path d="M64.366,169.081a30.743,30.743,0,0,0-22.979-52.467,28.746,28.746,0,0,0-14.536,31.162l17.583-17.582a2.058,2.058,0,0,1,2.828,0l19.49,19.492a2,2,0,0,1,0,2.828L49.171,170.1a28.6,28.6,0,0,0,15.093-.921C64.3,169.142,64.333,169.114,64.366,169.081Z" fill="none"/>
    <path d="M84.192,127.065,127.8,83.456a32.609,32.609,0,0,1-7.844-5.594L78.6,119.222A32.608,32.608,0,0,1,84.192,127.065Z" fill="#de2f5c"/>
    <path d="M124.608,63.6a30.613,30.613,0,0,1-8.9-19.291,28.76,28.76,0,1,0,55.043,16.263A30.689,30.689,0,0,1,124.608,63.6Z" fill="#1085fd"/>
    <path d="M64.366,125.583a30.757,30.757,0,0,1,0,43.5c-.033.033-.069.061-.1.094a28.761,28.761,0,1,0-22.877-52.561A30.656,30.656,0,0,1,64.366,125.583Z" fill="#1085fd"/>
    <path d="M31.847,118.774a32.608,32.608,0,0,0-7.923,33.489,2,2,0,0,0,3.312.785l18.612-18.611L62.51,151.1,43.9,169.71a2,2,0,0,0,.786,3.313,33.028,33.028,0,0,0,10.4,1.687,32.774,32.774,0,0,0,30.81-43.688l45.868-45.867a32.752,32.752,0,0,0,42-41.207,2,2,0,0,0-3.312-.785L151.835,61.774,135.173,45.111,153.784,26.5A2,2,0,0,0,153,23.188a32.752,32.752,0,0,0-41.207,42L65.924,111.056A32.8,32.8,0,0,0,31.847,118.774ZM49.171,170.1l17.581-17.582a2,2,0,0,0,0-2.828l-19.49-19.492a2.058,2.058,0,0,0-2.828,0L26.851,147.776a28.777,28.777,0,1,1,22.32,22.32ZM122.338,33.939a28.613,28.613,0,0,1,26.174-7.824L130.931,43.7a2,2,0,0,0,0,2.828l19.49,19.492a2.06,2.06,0,0,0,2.829,0l17.582-17.582a28.747,28.747,0,1,1-48.494-14.5Zm-8.847,35.207a32.653,32.653,0,0,0,6.019,8.291c.147.146.3.282.448.425a32.609,32.609,0,0,0,7.844,5.594l-43.61,43.609a32.608,32.608,0,0,0-5.593-7.843c-.143-.149-.28-.3-.426-.448a32.629,32.629,0,0,0-8.291-6.019Z" fill="#060928"/>
  </g>
</svg>
