<svg xmlns="http://www.w3.org/2000/svg" width="200" height="200" viewBox="0 0 200 200">
  <title>icons</title>
  <g>
    <path d="M140.19,47.974a4.969,4.969,0,0,0,4.409-2.7,2.979,2.979,0,0,0-5.36,2.6A4.808,4.808,0,0,0,140.19,47.974Z" fill="none"/>
    <path d="M49.921,95.356a8.762,8.762,0,0,0,8.762-8.762V73.011H35.9V95.356Z" fill="none"/>
    <path d="M96.228,84.144a7.656,7.656,0,0,0,7.464-5.466,5.932,5.932,0,0,0-4.019-1.536,5.535,5.535,0,0,0-5.722,5.314,4.925,4.925,0,0,0,.211,1.41A8.06,8.06,0,0,0,96.228,84.144Z" fill="none"/>
    <path d="M167.634,141.326V59.5H22.16v91.476H157.984A9.649,9.649,0,0,0,167.634,141.326ZM79.02,69.515a2,2,0,0,1,2-2H161.4a2,2,0,0,1,2,2v48.951a2.033,2.033,0,0,1-.032.324c0,.021,0,.041-.006.061a2,2,0,0,1-.161.471c-.007.014-.008.03-.015.044s-.03.039-.042.061a1.947,1.947,0,0,1-.233.335c-.022.027-.042.056-.066.081a1.976,1.976,0,0,1-.371.3c-.03.02-.063.034-.094.051a1.959,1.959,0,0,1-.359.159c-.042.013-.082.027-.125.038a1.98,1.98,0,0,1-.5.07H81.02a2.011,2.011,0,0,1-.524-.078l-.119-.037a2.023,2.023,0,0,1-.448-.212l-.019-.011a1.97,1.97,0,0,1-.382-.342c-.027-.031-.053-.063-.079-.1a2,2,0,0,1-.273-.449h0v0a2.005,2.005,0,0,1-.128-.5c-.006-.046-.011-.09-.014-.137s-.013-.086-.013-.131Zm34.772,59.525a2,2,0,0,1-2,2H81.376a2,2,0,0,1,0-4h30.416A2,2,0,0,1,113.792,129.04ZM81.02,136.129h78.249a2,2,0,0,1,0,4H81.02a2,2,0,0,1,0-4Zm-31.485,1.139H33.9a2,2,0,0,1,0-4h15.64a2,2,0,0,1,0,4Zm18.032-10.2H33.9a2,2,0,0,1,0-4H67.567a2,2,0,0,1,0,4Zm0-10.195H33.9a2,2,0,0,1,0-4H67.567a2,2,0,0,1,0,4Zm2-12.194a2,2,0,0,1-2,2H33.9a2,2,0,0,1-2-2V71.011a2,2,0,0,1,2-2H67.567a2,2,0,0,1,2,2Zm9.453,42.534a2,2,0,0,1,2-2h78.249a2,2,0,0,1,0,4H81.02A2,2,0,0,1,79.02,147.218Z" fill="none"/>
    <path d="M103.6,92.59a2,2,0,0,1,2.55-.255l18.037,12.241L138.7,88.434a2.029,2.029,0,0,1,1.583-.662,2,2,0,0,1,1.512.81L159.4,112.4V71.515H83.02v42.056ZM99.673,73.142a9.323,9.323,0,1,1-9.722,9.314A9.535,9.535,0,0,1,99.673,73.142Z" fill="none"/>
    <path d="M157.518,47.974a4.968,4.968,0,0,0,4.405-2.693,2.979,2.979,0,0,0-5.364,2.593A4.873,4.873,0,0,0,157.518,47.974Z" fill="none"/>
    <path d="M167.663,45.38a9.623,9.623,0,0,0-3.783-7.65H29.81a7.659,7.659,0,0,0-7.65,7.65V55.5h145.5Zm-25.722,8.225a6.99,6.99,0,1,1,6.99-6.99A7,7,0,0,1,141.941,53.605Zm17.321,0a6.99,6.99,0,1,1,6.99-6.99A7,7,0,0,1,159.262,53.605Z" fill="none"/>
    <path d="M177.84,151.48V59.5H167.634v81.826a9.649,9.649,0,0,1-9.65,9.65H22.16v.5a7.659,7.659,0,0,0,7.65,7.65H170.19A7.659,7.659,0,0,0,177.84,151.48Z" fill="#1085fd"/>
    <path d="M167.663,45.38V55.5H177.84V45.38a7.659,7.659,0,0,0-7.65-7.65h-6.31A9.623,9.623,0,0,1,167.663,45.38Z" fill="#1085fd"/>
    <path d="M170.19,33.73H29.81A11.663,11.663,0,0,0,18.16,45.38v106.1a11.663,11.663,0,0,0,11.65,11.65H170.19a11.663,11.663,0,0,0,11.65-11.65V45.38A11.663,11.663,0,0,0,170.19,33.73ZM22.16,45.38a7.659,7.659,0,0,1,7.65-7.65H170.19a7.659,7.659,0,0,1,7.65,7.65V55.5H22.16Zm7.65,113.75a7.659,7.659,0,0,1-7.65-7.65V59.5H177.84v91.98a7.659,7.659,0,0,1-7.65,7.65Z" fill="#060928"/>
    <path d="M157.518,47.974a4.873,4.873,0,0,1-.959-.1,2.985,2.985,0,0,0,5.693-1.259,2.947,2.947,0,0,0-.329-1.334A4.968,4.968,0,0,1,157.518,47.974Z" fill="#de2f5c"/>
    <path d="M140.19,47.974a4.808,4.808,0,0,1-.951-.1,2.98,2.98,0,1,0,5.36-2.6A4.969,4.969,0,0,1,140.19,47.974Z" fill="#de2f5c"/>
    <path d="M159.262,39.625a6.99,6.99,0,1,0,6.99,6.99A7,7,0,0,0,159.262,39.625Zm0,4a2.983,2.983,0,0,1,2.661,1.656,2.947,2.947,0,0,1,.329,1.334,2.985,2.985,0,0,1-5.693,1.259,2.955,2.955,0,0,1-.288-1.259A2.994,2.994,0,0,1,159.262,43.625Z" fill="#060928"/>
    <path d="M141.941,39.625a6.99,6.99,0,1,0,6.99,6.99A7,7,0,0,0,141.941,39.625Zm0,4a2.974,2.974,0,1,1-2.99,2.99A2.985,2.985,0,0,1,141.941,43.625Z" fill="#060928"/>
    <path d="M49.921,95.356H35.9v7.328H65.567V73.011H58.683V86.594A8.762,8.762,0,0,1,49.921,95.356Z" fill="#1085fd"/>
    <path d="M67.567,69.011H33.9a2,2,0,0,0-2,2v33.673a2,2,0,0,0,2,2H67.567a2,2,0,0,0,2-2V71.011A2,2,0,0,0,67.567,69.011Zm-8.884,4h6.884v29.673H35.9V73.011Z" fill="#060928"/>
    <path d="M67.567,112.878H33.9a2,2,0,0,0,0,4H67.567a2,2,0,0,0,0-4Z" fill="#060928"/>
    <path d="M67.567,123.073H33.9a2,2,0,0,0,0,4H67.567a2,2,0,0,0,0-4Z" fill="#060928"/>
    <path d="M49.535,133.268H33.9a2,2,0,0,0,0,4h15.64a2,2,0,0,0,0-4Z" fill="#060928"/>
    <path d="M81.376,127.04a2,2,0,0,0,0,4h30.416a2,2,0,1,0,0-4Z" fill="#060928"/>
    <path d="M81.02,140.129h78.249a2,2,0,0,0,0-4H81.02a2,2,0,0,0,0,4Z" fill="#060928"/>
    <path d="M161.269,147.218a2,2,0,0,0-2-2H81.02a2,2,0,0,0,0,4h78.249A2,2,0,0,0,161.269,147.218Z" fill="#060928"/>
    <path d="M125.992,108.548a2,2,0,0,1-2.61.318l-18.1-12.283-19.5,19.883h71.652l-17.4-23.536Z" fill="#de2f5c"/>
    <path d="M79.047,118.734a2.005,2.005,0,0,0,.128.5v0h0a2,2,0,0,0,.273.449c.026.033.052.065.079.1a1.97,1.97,0,0,0,.382.342l.019.011a2.023,2.023,0,0,0,.448.212l.119.037a2.011,2.011,0,0,0,.524.078H161.4a1.98,1.98,0,0,0,.5-.07c.043-.011.083-.025.125-.038a1.959,1.959,0,0,0,.359-.159c.031-.017.064-.031.094-.051a1.976,1.976,0,0,0,.371-.3c.024-.025.044-.054.066-.081a1.947,1.947,0,0,0,.233-.335c.012-.022.031-.039.042-.061s.008-.03.015-.044a2,2,0,0,0,.161-.471c0-.02,0-.04.006-.061a2.033,2.033,0,0,0,.032-.324V69.515a2,2,0,0,0-2-2H81.02a2,2,0,0,0-2,2v48.951c0,.045.01.087.013.131S79.041,118.688,79.047,118.734Zm6.736-2.268,19.5-19.883,18.1,12.283a2,2,0,0,0,2.61-.318L140.037,92.93l17.4,23.536ZM159.4,71.515V112.4L141.8,88.582a2,2,0,0,0-1.512-.81,2.029,2.029,0,0,0-1.583.662l-14.516,16.142L106.148,92.335a2,2,0,0,0-2.55.255L83.02,113.571V71.515Z" fill="#060928"/>
    <path d="M96.228,84.144a8.06,8.06,0,0,1-2.066-.278,5.676,5.676,0,0,0,5.511,3.905,5.536,5.536,0,0,0,5.723-5.315,5.117,5.117,0,0,0-1.7-3.778A7.656,7.656,0,0,1,96.228,84.144Z" fill="#1085fd"/>
    <path d="M99.673,91.771a9.323,9.323,0,1,0-9.722-9.315A9.536,9.536,0,0,0,99.673,91.771Zm0-14.629a5.932,5.932,0,0,1,4.019,1.536,5.117,5.117,0,0,1,1.7,3.778,5.536,5.536,0,0,1-5.723,5.315,5.676,5.676,0,0,1-5.511-3.905,4.925,4.925,0,0,1-.211-1.41A5.535,5.535,0,0,1,99.673,77.142Z" fill="#060928"/>
  </g>
</svg>
