<svg xmlns="http://www.w3.org/2000/svg" width="200" height="200" viewBox="0 0 200 200">
  <title>icons</title>
  <g>
    <path d="M151.474,113.293a8.964,8.964,0,0,0,6.988-3.341V83.9a6.989,6.989,0,0,0-13.977,0v26.056A8.967,8.967,0,0,0,151.474,113.293Z" fill="none"/>
    <path d="M48.427,113.293a8.967,8.967,0,0,0,6.989-3.341V83.9a6.989,6.989,0,0,0-13.978,0v26.056A8.967,8.967,0,0,0,48.427,113.293Z" fill="none"/>
    <path d="M109.141,149.814v13.245h5.894a1.548,1.548,0,0,0,1.549-1.549V141.6a7.747,7.747,0,0,1,7.426-7.741,1.549,1.549,0,0,0,1.485-1.548V77.438H64.762v66.479a3.9,3.9,0,0,0,3.9,3.9h4.476a2,2,0,0,1,2,2V165.5a7.692,7.692,0,0,0,7.683,7.683h.357a7.692,7.692,0,0,0,7.683-7.683V149.814a2,2,0,0,1,2-2h14.282A2,2,0,0,1,109.141,149.814Z" fill="none"/>
    <path d="M117.4,57.616a6.955,6.955,0,1,1-6.253-11.872A37.274,37.274,0,0,0,94.925,33.876a34.99,34.99,0,0,0-15.531,6.287,1.907,1.907,0,0,1-.128.157,1.979,1.979,0,0,1-.67.442A35.162,35.162,0,0,0,64.818,66.7h54.2A37.05,37.05,0,0,0,117.4,57.616ZM87.347,59.5a6.961,6.961,0,1,1,6.96-6.96A6.968,6.968,0,0,1,87.347,59.5Z" fill="none"/>
    <path d="M124.01,133.859a7.747,7.747,0,0,0-7.426,7.741v19.91a1.548,1.548,0,0,1-1.549,1.549h-5.894V165.5a7.692,7.692,0,0,0,7.683,7.683h.357a7.692,7.692,0,0,0,7.683-7.683V149.814a2,2,0,0,1,2-2h4.377a3.9,3.9,0,0,0,3.9-3.9V77.438H125.5v54.873A1.549,1.549,0,0,1,124.01,133.859Z" fill="#1085fd"/>
    <path d="M128.864,165.5V151.814h2.377a7.907,7.907,0,0,0,7.9-7.9V75.438a2,2,0,0,0-2-2H62.762a2,2,0,0,0-2,2v68.479a7.907,7.907,0,0,0,7.9,7.9h2.476V165.5a11.7,11.7,0,0,0,11.683,11.683h.357A11.7,11.7,0,0,0,94.859,165.5V151.814h10.282V165.5a11.7,11.7,0,0,0,11.683,11.683h.357A11.7,11.7,0,0,0,128.864,165.5ZM92.859,147.814a2,2,0,0,0-2,2V165.5a7.692,7.692,0,0,1-7.683,7.683h-.357a7.692,7.692,0,0,1-7.683-7.683V149.814a2,2,0,0,0-2-2H68.66a3.9,3.9,0,0,1-3.9-3.9V77.438h70.377v66.479a3.9,3.9,0,0,1-3.9,3.9h-4.377a2,2,0,0,0-2,2V165.5a7.692,7.692,0,0,1-7.683,7.683h-.357a7.692,7.692,0,0,1-7.683-7.683V149.814a2,2,0,0,0-2-2Z" fill="#060928"/>
    <path d="M111.142,45.744A6.95,6.95,0,0,1,117.4,57.616,37.05,37.05,0,0,1,119.02,66.7h16.063A35.187,35.187,0,0,0,94.925,33.876,37.274,37.274,0,0,1,111.142,45.744Z" fill="#de2f5c"/>
    <path d="M48.427,113.293a8.967,8.967,0,0,1-6.989-3.341v7.762a6.989,6.989,0,1,0,13.978,0v-7.762A8.967,8.967,0,0,1,48.427,113.293Z" fill="#de2f5c"/>
    <path d="M48.427,128.7a11,11,0,0,0,10.989-10.989V83.9a10.989,10.989,0,0,0-21.978,0v33.818A11,11,0,0,0,48.427,128.7Zm0-51.795A7,7,0,0,1,55.416,83.9v33.818a6.989,6.989,0,1,1-13.978,0V83.9A7,7,0,0,1,48.427,76.908Z" fill="#060928"/>
    <path d="M151.474,113.293a8.967,8.967,0,0,1-6.989-3.341v7.762a6.989,6.989,0,1,0,13.977,0v-7.762A8.964,8.964,0,0,1,151.474,113.293Z" fill="#1085fd"/>
    <path d="M151.474,128.7a11,11,0,0,0,10.988-10.989V83.9a10.989,10.989,0,0,0-21.977,0v33.818A11,11,0,0,0,151.474,128.7Zm0-51.795a7,7,0,0,1,6.988,6.988v33.818a6.989,6.989,0,1,1-13.977,0V83.9A7,7,0,0,1,151.474,76.908Z" fill="#060928"/>
    <path d="M87.347,45.574a6.961,6.961,0,1,0,6.96,6.961A6.969,6.969,0,0,0,87.347,45.574Zm0,9.921a2.961,2.961,0,1,1,2.96-2.96A2.964,2.964,0,0,1,87.347,55.5Z" fill="#060928"/>
    <path d="M119.614,52.535a6.986,6.986,0,1,0-2.219,5.081A6.969,6.969,0,0,0,119.614,52.535Zm-9.921,0a2.961,2.961,0,1,1,2.96,2.96A2.964,2.964,0,0,1,109.693,52.535Z" fill="#060928"/>
    <path d="M144.93,16.182a2,2,0,0,0-2.828,0L121.975,36.309a39.1,39.1,0,0,0-43.958-.065L57.955,16.182a2,2,0,1,0-2.828,2.828L74.8,38.681A39.115,39.115,0,0,0,60.762,68.7a2,2,0,0,0,2,2h74.377a2,2,0,0,0,2-2,39.113,39.113,0,0,0-13.953-29.949L144.93,19.01A2,2,0,0,0,144.93,16.182ZM78.6,40.762a1.979,1.979,0,0,0,.67-.442,1.907,1.907,0,0,0,.128-.157A35.168,35.168,0,0,1,135.083,66.7H64.818A35.162,35.162,0,0,1,78.6,40.762Z" fill="#060928"/>
  </g>
</svg>
