<svg xmlns="http://www.w3.org/2000/svg" width="200" height="200" viewBox="0 0 200 200">
  <title>icons</title>
  <g>
    <path d="M81.77,150.53a68.136,68.136,0,0,1-33.4-8.7,66.453,66.453,0,1,0,92.7-94.061,68.49,68.49,0,0,1-59.3,102.76Z" fill="#1085fd"/>
    <path d="M100,29.511A70.489,70.489,0,1,0,170.489,100,70.569,70.569,0,0,0,100,29.511Zm0,4A66.443,66.443,0,1,1,33.511,100,66.143,66.143,0,0,1,100,33.511Z" fill="#060928"/>
    <path d="M88.84,117.81a9.52,9.52,0,0,1-6.99-2.79L65.3,98.458a7.548,7.548,0,0,0,.932,9.519l17.04,17.039a7.609,7.609,0,0,0,5.518,2.2,7.7,7.7,0,0,0,5.617-2.2l39.367-39.367a7.548,7.548,0,0,0,.935-9.515L95.82,115.02A9.482,9.482,0,0,1,88.84,117.81Z" fill="#1085fd"/>
    <path d="M80.44,127.844a11.374,11.374,0,0,0,8.058,3.371c.1,0,.193,0,.289,0a11.383,11.383,0,0,0,8.445-3.367L136.6,88.478a11.536,11.536,0,1,0-16.314-16.314L88.837,103.612l-9.122-9.121A11.536,11.536,0,1,0,63.4,110.805ZM71.558,95.111a7.49,7.49,0,0,1,5.329,2.208l10.536,10.535a2,2,0,0,0,2.828,0l32.862-32.862a7.536,7.536,0,0,1,10.658,10.657L94.4,125.016a7.7,7.7,0,0,1-5.617,2.2,7.609,7.609,0,0,1-5.518-2.2l-17.04-17.039a7.537,7.537,0,0,1,5.329-12.866Z" fill="#060928"/>
  </g>
</svg>
