<svg xmlns="http://www.w3.org/2000/svg" width="200" height="200" viewBox="0 0 200 200">
  <title>icons</title>
  <g>
    <path d="M114.865,26.806l.018,0a2,2,0,0,1,.486.172c.039.019.077.039.115.061a2.006,2.006,0,0,1,.425.314L127.657,39.1l-.174-19.146H52.455V26.77H114.5A1.983,1.983,0,0,1,114.865,26.806Z" fill="none"/>
    <polygon points="131.686 42.195 150.875 42.195 145.71 37.031 131.51 22.831 131.686 42.195" fill="none"/>
    <path d="M143.561,55.008l7.4,7.4a1.962,1.962,0,0,1,.313.424c.022.038.042.075.062.115a2.023,2.023,0,0,1,.172.484v0a2,2,0,0,1,.038.386V165.527h10.971V55.008Z" fill="none"/>
    <polygon points="131.694 43.141 139.561 51.008 159.687 51.008 150.875 42.195 131.686 42.195 131.694 43.141" fill="#de2f5c"/>
    <path d="M147.545,65.82H136.462v69.2a32.5,32.5,0,0,1-32.5,32.5H37.484v8.813H147.545Z" fill="#1085fd"/>
    <polygon points="144.717 61.82 135.904 53.008 116.715 53.008 116.795 61.82 144.717 61.82" fill="#de2f5c"/>
    <path d="M151.545,178.34v-8.813h12.971a2,2,0,0,0,2-2V53.008a1.982,1.982,0,0,0-.039-.386v-.005a1.99,1.99,0,0,0-.173-.485c-.019-.039-.039-.077-.061-.115a1.98,1.98,0,0,0-.313-.423l-35.051-35.05a1.969,1.969,0,0,0-.426-.314c-.038-.022-.075-.042-.114-.062a1.992,1.992,0,0,0-.486-.171l-.019,0a1.973,1.973,0,0,0-.369-.037H50.455a2,2,0,0,0-2,2V26.77H35.484a2,2,0,0,0-2,2V178.34a2,2,0,0,0,2,2H149.545A2,2,0,0,0,151.545,178.34Zm-114.061-2V30.77h75.029l.3,33.069a2,2,0,0,0,2,1.981h32.732V176.34Zm79.055-142.7L135.9,53.008l8.813,8.812H116.8l-.08-8.812ZM150.875,42.2l8.812,8.813H139.561l-7.867-7.867-.008-.946-.176-19.364,14.2,14.2Zm.67,123.332V63.82a2,2,0,0,0-.038-.386v0a2.023,2.023,0,0,0-.172-.484c-.02-.04-.04-.077-.062-.115a1.962,1.962,0,0,0-.313-.424l-7.4-7.4h18.955V165.527ZM52.455,19.958h75.028l.174,19.146L115.909,27.355a2.006,2.006,0,0,0-.425-.314c-.038-.022-.076-.042-.115-.061a2,2,0,0,0-.486-.172l-.018,0a1.983,1.983,0,0,0-.37-.036H52.455Z" fill="#060928"/>
    <polygon points="81.662 103.145 69.536 97.913 69.536 101.083 77.897 104.609 69.536 108.137 69.536 111.307 81.662 106.076 81.662 103.145" fill="#060928"/>
    <path d="M90.975,118.479h4.358V90.74H92.4c-.991,2.7-2.3,3.488-5.984,3.488v3.09h4.558Z" fill="#060928"/>
    <path d="M106.826,118.479h4.359V90.74h-2.932c-.991,2.7-2.3,3.488-5.984,3.488v3.09h4.557Z" fill="#060928"/>
    <path d="M67.208,135.084h50.614a2,2,0,0,0,0-4H67.208a2,2,0,0,0,0,4Z" fill="#060928"/>
    <path d="M67.208,146.324h50.614a2,2,0,0,0,0-4H67.208a2,2,0,0,0,0,4Z" fill="#060928"/>
  </g>
</svg>
