<svg xmlns="http://www.w3.org/2000/svg" width="200" height="200" viewBox="0 0 200 200">
  <title>icons</title>
  <g>
    <path d="M102.807,62.541c-.211,0-.417-.016-.624-.032V65.02h1.238V62.51C103.217,62.525,103.014,62.541,102.807,62.541Z" fill="none"/>
    <polygon points="102.799 137.322 102.183 137.322 102.183 170.605 103.421 170.605 103.421 137.322 102.799 137.322" fill="none"/>
    <rect x="103.421" y="137.322" width="0.187" height="33.283" fill="#1085fd"/>
    <path d="M103.421,62.51v2.51h.187V62.5C103.547,62.506,103.483,62.505,103.421,62.51Z" fill="#1085fd"/>
    <path d="M182.977,77.4H168.97l-1.61,2.956a17.011,17.011,0,0,0-1.191,13.549l1.54,4.591a5.843,5.843,0,0,1-5.54,7.7h-4.077a2,2,0,0,1-1.924,1.482H143.8v2.744h20.819a2,2,0,0,1,1.72.978,1.964,1.964,0,0,1,.232.66h16.41l-8.912-16.375a2,2,0,0,1,0-1.912Z" fill="#de2f5c"/>
    <path d="M188.062,74.381a2,2,0,0,0-1.72-.979H158.168V67.02a2,2,0,0,0-2-2h-48.56v-4a8.377,8.377,0,1,0-10.85-1.075V65.02H43.832a2,2,0,0,0-2,2V73.4H13.658A2,2,0,0,0,11.9,76.358l10,18.374-10,18.375a2,2,0,0,0,1.757,2.956h21.43l5.975,10.98-7.435,13.662a2,2,0,0,0,1.757,2.956H69.768a2,2,0,0,0,2-2v-4.339h24.99v33.283H40.2a2,2,0,0,0,0,4H161.035a2,2,0,0,0,0-4H107.608V137.322h20.624v4.339a2,2,0,0,0,2,2h34.383a2,2,0,0,0,1.757-2.956l-7.435-13.662,5.975-10.98h21.43a2,2,0,0,0,1.757-2.956l-10-18.375,10-18.374A2,2,0,0,0,188.062,74.381Zm-84.641,96.224h-2.663V137.322h2.85v33.283Zm70.644-74.917,8.912,16.375h-16.41a1.964,1.964,0,0,0-.232-.66,2,2,0,0,0-1.72-.978H143.8v-2.744h12.372a2.034,2.034,0,0,0,2-2V77.4h24.809l-8.912,16.374A2,2,0,0,0,174.065,95.688Zm-19.163,30.4a2,2,0,0,0,0,1.912l6.348,11.662H132.232v-2.339H141.8a2,2,0,0,0,1.96-1.608,1.945,1.945,0,0,0,.04-.392v-20.9H161.25ZM58.2,137.322h9.564v2.339H38.75L45.1,128a2,2,0,0,0,0-1.912L38.75,114.425H56.2v20.9a1.945,1.945,0,0,0,.04.392A2,2,0,0,0,58.2,137.322Zm-4.185-68.3H100.8v34.661H45.832V69.02Zm6.185,64.3V108.086h40.6v25.236H60.2Zm47.4-4.267V108.086H139.8v25.236H107.608Zm46.56-60.035v34.661h-46.56V69.02h46.56Zm-50.747-4h-2.663V62.277a8.275,8.275,0,0,0,1.425.232c.207.016.413.032.624.032s.41-.016.614-.031c.062,0,.126,0,.187-.01v2.52Zm2.316-14.077a4.355,4.355,0,1,1-2.93-1.15A4.348,4.348,0,0,1,105.737,50.943ZM41.908,106.2a2,2,0,0,0,1.924,1.482H56.2v2.744H35.385a2,2,0,0,0-1.72.978,1.964,1.964,0,0,0-.232.66H17.023l8.912-16.375a2,2,0,0,0,0-1.912L17.023,77.4H41.832v28.279A2.013,2.013,0,0,0,41.908,106.2Z" fill="#060928"/>
    <path d="M145.981,88.16a9.234,9.234,0,0,1-9.234,9.234H107.608v6.287h46.56V69.02h-8.187Z" fill="#1085fd"/>
    <path d="M150.26,116.172a12.862,12.862,0,0,0-.9,10.246l1.164,3.472a4.419,4.419,0,0,1-4.19,5.824h-2.578a2,2,0,0,1-1.96,1.608h-9.564v2.339H161.25L154.9,128a2,2,0,0,1,0-1.912l6.348-11.662H151.212Z" fill="#1085fd"/>
    <path d="M139.8,133.322V108.086h-5.7v13.986a6.983,6.983,0,0,1-6.983,6.983h-19.5v4.267Z" fill="#de2f5c"/>
    <path d="M100.758,62.277V65.02h1.425V62.509A8.275,8.275,0,0,1,100.758,62.277Z" fill="#1085fd"/>
    <polygon points="100.758 137.322 100.758 170.606 102.183 170.606 102.183 170.605 102.183 137.322 100.758 137.322" fill="#1085fd"/>
    <path d="M32.291,98.5l1.54-4.591A17.011,17.011,0,0,0,32.64,80.358L31.03,77.4H17.023l8.912,16.374a2,2,0,0,1,0,1.912l-8.912,16.375h16.41a1.964,1.964,0,0,1,.232-.66,2,2,0,0,1,1.72-.978H56.2v-2.744H43.832a2,2,0,0,1-1.924-1.482H37.831A5.843,5.843,0,0,1,32.291,98.5Z" fill="#de2f5c"/>
    <path d="M45.832,103.681H100.8V97.394H63.253a9.234,9.234,0,0,1-9.234-9.234V69.02H45.832Z" fill="#1085fd"/>
    <path d="M49.476,129.89l1.164-3.472a12.862,12.862,0,0,0-.9-10.246l-.952-1.747H38.75L45.1,126.087a2,2,0,0,1,0,1.912L38.75,139.661H67.768v-2.339H58.2a2,2,0,0,1-1.96-1.608H53.666A4.419,4.419,0,0,1,49.476,129.89Z" fill="#1085fd"/>
    <path d="M99.2,133.322h1.6v-4.267H72.89a6.983,6.983,0,0,1-6.983-6.983V108.086H60.2v25.236Z" fill="#de2f5c"/>
    <path d="M99.409,56.887a4.356,4.356,0,1,0,6.328-5.944A6.368,6.368,0,0,1,99.409,56.887Z" fill="#1085fd"/>
    <path d="M82.637,122.833c0,2.533,1.313,4.034,3.8,4.034s3.8-1.5,3.8-4.034v-2.321H87.8v2.509c0,1.079-.516,1.5-1.29,1.5s-1.29-.422-1.29-1.5v-9.168c0-1.08.516-1.525,1.29-1.525s1.29.445,1.29,1.525v1.9h2.439v-1.736c0-2.532-1.313-4.033-3.8-4.033s-3.8,1.5-3.8,4.033Z" fill="#060928"/>
    <path d="M120.359,110.217H116.42v16.416h3.939c2.58,0,3.846-1.431,3.846-4.057v-8.3C124.205,111.647,122.939,110.217,120.359,110.217Zm-.047,14.071H119V112.563h1.313c.821,0,1.313.422,1.313,1.594v8.536C121.625,123.865,121.133,124.288,120.312,124.288Z" fill="#060928"/>
    <path d="M81.954,90.879h3.519v-.056l.562,3.912h3.1l-3.208-19.7H81.729l-3.208,19.7h2.871Zm1.718-12.411h.056l1.379,9.738H82.32Z" fill="#060928"/>
    <path d="M126.172,94.807c3.118,0,4.734-1.644,4.734-4.706V88.4c0-2.1-.652-3.572-2.324-4.14V84.2c1.388-.567,2.012-1.843,2.012-3.884v-.795c0-3.061-1.388-4.563-4.621-4.563h-4.706V94.807Zm0-2.835h-1.786v-6.1h1.389c1.417,0,2.012.567,2.012,2.411v1.729C127.787,91.49,127.221,91.972,126.172,91.972ZM125.888,77.8c1.106,0,1.588.624,1.588,2.041v1.106c0,1.587-.709,2.1-1.872,2.1h-1.218V77.8Z" fill="#060928"/>
  </g>
</svg>
