<svg xmlns="http://www.w3.org/2000/svg" width="200" height="200" viewBox="0 0 200 200">
  <title>icons</title>
  <g>
    <path d="M160.523,80.7V48.858h-6.568V89.021A8.564,8.564,0,0,0,160.523,80.7Z" fill="none"/>
    <rect x="129.04" y="106.268" width="14.713" height="9.762" fill="none"/>
    <path d="M100.027,133.779a8.09,8.09,0,0,1,8.015,7.087H156.49A8.553,8.553,0,0,0,165,133.2H19.4v7.663H92.012A8.09,8.09,0,0,1,100.027,133.779Z" fill="none"/>
    <rect x="82.066" y="161.829" width="35.921" height="8.498" fill="none"/>
    <path d="M113.464,174.327H70.657a4.517,4.517,0,0,0-4.511,4.511v1.237H97.123C106.308,178.382,111.086,176,113.464,174.327Z" fill="none"/>
    <rect x="56.096" y="86.491" width="6.05" height="16.175" fill="none"/>
    <path d="M165.044,129.2V98.281H151.955a2,2,0,0,1-2-2V46.858a2,2,0,0,1,2-2h13.089V35.344H25.95A6.562,6.562,0,0,0,19.4,41.9V129.2ZM81.772,115a2,2,0,1,1,0-4h22.456a2,2,0,1,1,0,4Zm32.874-.052-6.416,6.416a2,2,0,0,1-2.828-2.828l5.034-5.033c-2.545-2.65-5.078-5.216-5.707-5.732a2,2,0,0,1,1.649-3.62c.541.181,1.009.336,8.3,8A2,2,0,0,1,114.646,114.948Zm33.107-10.68V122.98a2,2,0,0,1-2,2H127.04a2,2,0,0,1-2-2V104.268a2,2,0,0,1,2-2h18.713A2,2,0,0,1,147.753,104.268ZM74.494,46.858a2,2,0,0,1,2-2h65.991a2,2,0,0,1,2,2V96.281a2,2,0,0,1-2,2H76.494a2,2,0,0,1-2-2ZM52.1,84.491a2,2,0,0,1,2-2h10.05a2,2,0,0,1,2,2v36.351a2,2,0,0,1-2,2H54.1a2,2,0,0,1-2-2ZM33.484,48.141a2,2,0,0,1,2-2h10.05a2,2,0,0,1,2,2v72.7a2,2,0,0,1-2,2H35.484a2,2,0,0,1-2-2Z" fill="none"/>
    <rect x="37.484" y="50.141" width="6.05" height="40.501" fill="none"/>
    <path d="M115.816,84.239a12.768,12.768,0,0,0,12.768-12.768V48.858H78.494V84.239ZM91.173,57.527h22.059a2,2,0,0,1,0,4H91.173a2,2,0,0,1,0-4Zm0,8.325h22.059a2,2,0,0,1,0,4H91.173a2,2,0,0,1,0-4Z" fill="none"/>
    <rect x="37.484" y="90.642" width="6.05" height="28.2" fill="#de2f5c"/>
    <rect x="56.096" y="102.666" width="6.05" height="16.176" fill="#1085fd"/>
    <path d="M115.816,84.239H78.494V94.281h61.991V48.858h-11.9V71.471A12.768,12.768,0,0,1,115.816,84.239Z" fill="#1085fd"/>
    <path d="M169.091,44.858a2,2,0,0,1,2,2V96.281a2,2,0,0,1-2,2h-4.047V129.2h15.614V41.9a6.561,6.561,0,0,0-6.554-6.553h-9.06v9.514Z" fill="#1085fd"/>
    <path d="M180.658,143.968V133.2H165a8.553,8.553,0,0,1-8.507,7.663H108.042a7.983,7.983,0,0,1,.068,1,8.083,8.083,0,1,1-16.166,0,8.179,8.179,0,0,1,.068-1H19.4v3.1a6.562,6.562,0,0,0,6.554,6.554H174.1A6.561,6.561,0,0,0,180.658,143.968Z" fill="#1085fd"/>
    <rect x="82.066" y="154.522" width="35.921" height="7.307" fill="#1085fd"/>
    <path d="M133.908,180.075v-1.237a4.517,4.517,0,0,0-4.512-4.511H113.464c-2.378,1.675-7.156,4.055-16.341,5.748Z" fill="#de2f5c"/>
    <path d="M174.1,31.344H25.95A10.566,10.566,0,0,0,15.4,41.9v88.858a1.885,1.885,0,0,0,0,.9v12.317A10.566,10.566,0,0,0,25.95,154.522H78.066v15.805H70.657a8.521,8.521,0,0,0-8.511,8.511v3.237a2,2,0,0,0,2,2h71.762a2,2,0,0,0,2-2v-3.237a8.521,8.521,0,0,0-8.512-8.511h-7.409V154.522H174.1a10.565,10.565,0,0,0,10.554-10.554V41.9A10.565,10.565,0,0,0,174.1,31.344Zm-148.154,4H174.1a6.561,6.561,0,0,1,6.554,6.553V129.2H19.4V41.9A6.562,6.562,0,0,1,25.95,35.344Zm94.037,115.178H25.95a6.562,6.562,0,0,1-6.554-6.554V133.2H180.658v10.765a6.561,6.561,0,0,1-6.554,6.554ZM66.146,178.838a4.517,4.517,0,0,1,4.511-4.511H129.4a4.517,4.517,0,0,1,4.512,4.511v1.237H66.146Zm15.92-8.511V154.522h35.921v15.805Z" fill="#060928"/>
    <path d="M100.027,133.779a8.09,8.09,0,0,0-8.015,7.087,8.179,8.179,0,0,0-.068,1,8.083,8.083,0,1,0,16.166,0,7.983,7.983,0,0,0-.068-1A8.09,8.09,0,0,0,100.027,133.779Zm4.083,8.083a4.083,4.083,0,1,1-4.083-4.083A4.088,4.088,0,0,1,104.11,141.862Z" fill="#060928"/>
    <path d="M35.484,122.842h10.05a2,2,0,0,0,2-2v-72.7a2,2,0,0,0-2-2H35.484a2,2,0,0,0-2,2v72.7A2,2,0,0,0,35.484,122.842Zm8.05-72.7v68.7h-6.05v-68.7Z" fill="#060928"/>
    <path d="M54.1,122.842h10.05a2,2,0,0,0,2-2V84.491a2,2,0,0,0-2-2H54.1a2,2,0,0,0-2,2v36.351A2,2,0,0,0,54.1,122.842Zm8.05-36.351v32.351H56.1V86.491Z" fill="#060928"/>
    <path d="M76.494,98.281h65.991a2,2,0,0,0,2-2V46.858a2,2,0,0,0-2-2H76.494a2,2,0,0,0-2,2V96.281A2,2,0,0,0,76.494,98.281Zm52.09-49.423h11.9V94.281H78.494V48.858Z" fill="#060928"/>
    <path d="M153.955,89.021v5.26h13.136V48.858h-6.568V80.7A8.564,8.564,0,0,1,153.955,89.021Z" fill="#de2f5c"/>
    <path d="M171.091,96.281V46.858a2,2,0,0,0-2-2H151.955a2,2,0,0,0-2,2V96.281a2,2,0,0,0,2,2h17.136A2,2,0,0,0,171.091,96.281ZM160.523,48.858h6.568V94.281H153.955V48.858Z" fill="#060928"/>
    <path d="M106.228,113a2,2,0,0,0-2-2H81.772a2,2,0,1,0,0,4h22.456A2,2,0,0,0,106.228,113Z" fill="#060928"/>
    <path d="M106.378,104.151a2,2,0,0,0-1.649,3.62c.629.516,3.162,3.082,5.707,5.732l-5.034,5.033a2,2,0,1,0,2.828,2.828l6.416-6.416a2,2,0,0,0,.036-2.793C107.387,104.487,106.919,104.332,106.378,104.151Z" fill="#060928"/>
    <rect x="129.04" y="116.03" width="14.713" height="4.951" fill="#de2f5c"/>
    <path d="M125.04,104.268V122.98a2,2,0,0,0,2,2h18.713a2,2,0,0,0,2-2V104.268a2,2,0,0,0-2-2H127.04A2,2,0,0,0,125.04,104.268Zm18.713,2V120.98H129.04V106.268Z" fill="#060928"/>
    <path d="M91.173,61.527h22.059a2,2,0,0,0,0-4H91.173a2,2,0,0,0,0,4Z" fill="#060928"/>
    <path d="M91.173,69.852h22.059a2,2,0,0,0,0-4H91.173a2,2,0,0,0,0,4Z" fill="#060928"/>
  </g>
</svg>
