<svg xmlns="http://www.w3.org/2000/svg" width="200" height="200" viewBox="0 0 200 200">
  <title>icons</title>
  <g>
    <polygon points="150.875 42.195 131.51 22.831 131.686 42.195 150.875 42.195" fill="none"/>
    <path d="M143.561,55.008l7.4,7.4a1.98,1.98,0,0,1,.313.423c.022.039.042.076.062.116a2.038,2.038,0,0,1,.172.484v0a2,2,0,0,1,.038.386V165.527h10.971V55.008Z" fill="none"/>
    <path d="M114.859,26.806c.008,0,.017,0,.026,0a1.971,1.971,0,0,1,.483.171c.04.019.078.04.116.062a1.939,1.939,0,0,1,.425.314L127.657,39.1l-.174-19.146H52.455V26.77H114.5A2.005,2.005,0,0,1,114.859,26.806Z" fill="none"/>
    <polygon points="131.694 43.141 139.561 51.008 159.687 51.008 150.875 42.195 131.686 42.195 131.694 43.141" fill="#de2f5c"/>
    <path d="M147.545,65.82H136.462v69.2a32.5,32.5,0,0,1-32.5,32.5H37.484v8.813H147.545Z" fill="#1085fd"/>
    <polygon points="144.716 61.82 135.904 53.008 116.715 53.008 116.795 61.82 144.716 61.82" fill="#de2f5c"/>
    <path d="M151.545,178.34v-8.813h12.971a2,2,0,0,0,2-2V53.008a1.982,1.982,0,0,0-.039-.386v-.005a2.03,2.03,0,0,0-.172-.485c-.02-.039-.04-.077-.062-.115a1.98,1.98,0,0,0-.313-.423L130.879,16.543a1.984,1.984,0,0,0-.427-.314c-.037-.022-.073-.041-.112-.06a1.978,1.978,0,0,0-.489-.173h-.008a1.985,1.985,0,0,0-.378-.037H50.455a2,2,0,0,0-2,2V26.77H35.484a2,2,0,0,0-2,2V178.34a2,2,0,0,0,2,2H149.545A2,2,0,0,0,151.545,178.34Zm-114.061-2V30.77h75.029l.3,33.068a2,2,0,0,0,2,1.982h32.732V176.34Zm79.055-142.7L135.9,53.008h0l8.812,8.812H116.8l-.08-8.812ZM150.875,42.2l8.812,8.813H139.561l-7.867-7.867-.008-.946-.176-19.364Zm.67,123.332V63.82a2,2,0,0,0-.038-.386v0a2.038,2.038,0,0,0-.172-.484c-.02-.04-.04-.077-.062-.116a1.98,1.98,0,0,0-.313-.423l-7.4-7.4h18.955V165.527ZM52.455,19.958h75.028l.174,19.146L115.909,27.356a1.939,1.939,0,0,0-.425-.314c-.038-.022-.076-.043-.116-.062a1.971,1.971,0,0,0-.483-.171c-.009,0-.018,0-.026,0a2.005,2.005,0,0,0-.364-.036H52.455Z" fill="#060928"/>
    <path d="M70.091,118.876c4.28,0,6.618-2.536,6.618-6.975v-4.953c0-4.082-1.625-6.34-4.835-6.34a4.007,4.007,0,0,0-3.962,2.417h-.08v-5.31c0-2.655.872-3.408,2.418-3.408,1.387,0,2.259.753,2.259,2.734v.793H76.63v-.515c0-4.439-2.22-6.975-6.5-6.975-4.518,0-6.657,2.536-6.657,7.213V111.9C63.474,116.34,65.812,118.876,70.091,118.876Zm-2.259-11.571c0-1.863.753-2.735,2.259-2.735s2.259.872,2.259,2.735v4.914c0,1.822-.753,2.694-2.259,2.694s-2.259-.872-2.259-2.694Z" fill="#060928"/>
    <rect x="78.888" y="102.629" width="8.719" height="3.963" fill="#060928"/>
    <path d="M96.324,118.479h4.359V90.741H97.751c-.991,2.694-2.3,3.487-5.984,3.487v3.091h4.557Z" fill="#060928"/>
    <path d="M112.373,118.876c4.279,0,6.617-2.536,6.617-6.975V97.319c0-4.439-2.338-6.975-6.617-6.975s-6.618,2.536-6.618,6.975V111.9C105.755,116.34,108.093,118.876,112.373,118.876Zm-2.259-21.835c0-1.981.871-2.734,2.259-2.734s2.259.753,2.259,2.734v15.138c0,1.981-.872,2.734-2.259,2.734s-2.259-.753-2.259-2.734Z" fill="#060928"/>
    <path d="M67.208,131.084a2,2,0,0,0,0,4h50.614a2,2,0,0,0,0-4Z" fill="#060928"/>
    <path d="M117.822,142.324H67.208a2,2,0,0,0,0,4h50.614a2,2,0,0,0,0-4Z" fill="#060928"/>
  </g>
</svg>
