<svg xmlns="http://www.w3.org/2000/svg" width="200" height="200" viewBox="0 0 200 200">
  <title>icons</title>
  <g>
    <rect x="65.121" y="96.016" width="2.316" height="80.323" fill="none"/>
    <path d="M67.437,43.3V38.8h0a9.99,9.99,0,0,1-2.316-.281V43.3Z" fill="none"/>
    <path d="M69.753,43.3V38.52a10,10,0,0,1-2.316.281v4.5Z" fill="#1085fd"/>
    <rect x="67.437" y="96.016" width="2.316" height="80.323" fill="#1085fd"/>
    <path d="M39.584,180.339H160.416a2,2,0,0,0,0-4H73.753V96.016H116.16v8.561a2,2,0,0,0,2,2h57.285a2,2,0,0,0,1.757-2.956l-12.734-23.4,12.734-23.4a2,2,0,0,0-1.757-2.956H139.427V45.3a2,2,0,0,0-2-2H73.753V36.553a10.031,10.031,0,1,0-12.632,0V176.339H39.584a2,2,0,0,0,0,4ZM160.434,79.265a2,2,0,0,0,0,1.912l11.646,21.4H120.16V96.016h17.267a2.031,2.031,0,0,0,2-2V57.866H172.08ZM135.427,47.3V92.016h-70.3V47.3h70.3ZM67.437,22.739a6.026,6.026,0,1,1-6.031,6.031A6,6,0,0,1,67.437,22.739Zm0,16.062h0a10,10,0,0,0,2.316-.281V43.3H65.121V38.52A9.99,9.99,0,0,0,67.437,38.8ZM65.121,96.016h4.632v80.323H65.121Z" fill="#060928"/>
    <path d="M151.528,62.109a21.434,21.434,0,0,0-1.5,17.072l1.94,5.785a7.362,7.362,0,0,1-6.98,9.7h-5.679a2,2,0,0,1-1.882,1.348H120.16v6.561h51.92l-11.646-21.4a2,2,0,0,1,0-1.912l11.646-21.4H153.84Z" fill="#de2f5c"/>
    <path d="M124.592,71.94a11.635,11.635,0,0,1-11.635,11.634H65.126v8.442h70.3V47.3H124.592Z" fill="#1085fd"/>
    <path d="M99.064,75.366H103.5V75.3l.709,4.929h3.9L104.064,55.4H98.78L94.737,80.224h3.618Zm2.164-15.638h.07L103.036,72H99.525Z"/>
    <path d="M63.126,32.2c-.226,0-.449-.016-.67-.035a6.027,6.027,0,1,0,8.695-8.136c0,.047.006.093.006.141A8.03,8.03,0,0,1,63.126,32.2Z" fill="#1085fd"/>
  </g>
</svg>
