<svg xmlns="http://www.w3.org/2000/svg" width="200" height="200" viewBox="0 0 200 200">
  <title>icons</title>
  <g>
    <path d="M76.917,105.081a10.279,10.279,0,0,1-.606,3.454l20.6,21.756c8.322,4.84,21.207,6.789,26.73.821l38.835-39.356H76.917Z" fill="none"/>
    <path d="M64.438,164.947,88.176,140.97a2,2,0,1,1,2.842,2.815L70.066,164.947h78.1a17.553,17.553,0,0,0,12.176-4.9l-16.1-16.261a2,2,0,1,1,2.842-2.815l15.83,15.989a17.531,17.531,0,0,0,2.879-9.639V103.825l-35.156,37.981A19.107,19.107,0,0,1,116.577,148h-.113a19.109,19.109,0,0,1-14.011-6.032l-28.289-29.88a10.31,10.31,0,0,1-7.591,3.341H56.464v49.522Z" fill="none"/>
    <path d="M162.909,156.959l8.892,8.981a2,2,0,1,1-2.842,2.814l-8.622-8.708a17.553,17.553,0,0,1-12.176,4.9H70.066l-3.77,3.807a2,2,0,1,1-2.842-2.814l.984-.993H56.464v4.674a5.457,5.457,0,0,0,5.451,5.451H171.306a5.457,5.457,0,0,0,5.451-5.451V97.207a5.428,5.428,0,0,0-1.439-3.678l-9.53,10.3V147.32A17.531,17.531,0,0,1,162.909,156.959Z" fill="#1085fd"/>
    <path d="M96.909,130.291l8.448,8.923A15.148,15.148,0,0,0,116.465,144h.09a15.152,15.152,0,0,0,11.141-4.907l44.677-48.267-9.019.043-.88.891-38.835,39.356C118.116,137.08,105.231,135.131,96.909,130.291Z" fill="#de2f5c"/>
    <path d="M63.468,168.769a2,2,0,0,0,2.828-.015l3.77-3.807,20.952-21.162a2,2,0,1,0-2.842-2.815L64.438,164.947l-.984.993A2,2,0,0,0,63.468,168.769Z" fill="#060928"/>
    <path d="M170.38,169.347a2,2,0,0,0,1.421-3.407l-8.892-8.981-15.83-15.989a2,2,0,1,0-2.842,2.815l16.1,16.261,8.622,8.708A1.992,1.992,0,0,0,170.38,169.347Z" fill="#060928"/>
    <path d="M29.588,111.425h11.67V94.888H36.55a2,2,0,0,1-2-2V84.98a2,2,0,0,1,2-2h4.755c.007-.436.01-.873.013-1.311.012-1.508.025-3.067.174-4.632.572-5.984,4.625-9.961,10.577-10.38a43.272,43.272,0,0,1,5.485.072l1.282.068a2.994,2.994,0,0,1,2.73,2.6c.052,1.675.047,3.314.042,5.05l0,1.536a2,2,0,0,1-2,2l-1.509,0c-1.04,0-2.032,0-3.024,0-1.432.014-1.5.272-1.554,1.36-.056,1.138-.045,2.3-.032,3.521h5.875a2,2,0,0,1,1.984,2.255l-1.023,7.945a2,2,0,0,1-1.983,1.745H53.444v16.612H66.573a6.351,6.351,0,0,0,6.344-6.344V68.1a6.352,6.352,0,0,0-6.344-6.345H29.588A6.353,6.353,0,0,0,23.243,68.1v36.986A6.352,6.352,0,0,0,29.588,111.425Z" fill="#1085fd"/>
    <path d="M29.588,115.425H52.464v54.2a9.462,9.462,0,0,0,9.451,9.451H171.306a9.462,9.462,0,0,0,9.451-9.451V97.207a9.446,9.446,0,0,0-4.566-8.075c-.032-.021-.064-.04-.1-.059a9.38,9.38,0,0,0-4.788-1.317H76.917V68.1A10.357,10.357,0,0,0,66.573,57.75H29.588A10.357,10.357,0,0,0,19.243,68.1v36.986A10.357,10.357,0,0,0,29.588,115.425ZM23.243,68.1a6.353,6.353,0,0,1,6.345-6.345H66.573A6.352,6.352,0,0,1,72.917,68.1v36.986a6.351,6.351,0,0,1-6.344,6.344H53.444V94.813h4.895a2,2,0,0,0,1.983-1.745l1.023-7.945a2,2,0,0,0-1.984-2.255H53.486c-.013-1.223-.024-2.383.032-3.521.054-1.088.122-1.346,1.554-1.36.992-.01,1.984-.008,3.024,0l1.509,0a2,2,0,0,0,2-2l0-1.536c.005-1.736.01-3.375-.042-5.05a2.994,2.994,0,0,0-2.73-2.6l-1.282-.068a43.272,43.272,0,0,0-5.485-.072c-5.952.419-10.005,4.4-10.577,10.38-.149,1.565-.162,3.124-.174,4.632,0,.438-.006.875-.013,1.311H36.55a2,2,0,0,0-2,2v7.908a2,2,0,0,0,2,2h4.708v16.537H29.588a6.352,6.352,0,0,1-6.345-6.344ZM45.288,84.487c0-.287,0-.539,0-.8.017-.662.022-1.326.027-1.99.012-1.488.024-2.893.157-4.284.383-4.021,2.89-6.489,6.876-6.77a39.57,39.57,0,0,1,4.979.076l.266.014c.017,1.062.016,2.135.013,3.244-.879,0-1.726,0-2.577.006-4.343.044-5.393,2.831-5.51,5.162-.064,1.312-.048,2.583-.033,3.929.007.586.014,1.181.014,1.79a2,2,0,0,0,2,2h5.585l-.508,3.945H51.444a2,2,0,0,0-2,2v18.4H45.258V92.888a2,2,0,0,0-2-2H38.55V86.98h4.74a2,2,0,0,0,2-2Zm21.285,30.938a10.31,10.31,0,0,0,7.591-3.341l28.289,29.88A19.109,19.109,0,0,0,116.464,148h.113a19.107,19.107,0,0,0,14.055-6.189l35.156-37.981,9.53-10.3a5.428,5.428,0,0,1,1.439,3.678v72.414a5.457,5.457,0,0,1-5.451,5.451H61.915a5.457,5.457,0,0,1-5.451-5.451v-54.2Zm96.781-24.56,9.019-.043L127.7,139.089A15.152,15.152,0,0,1,116.555,144h-.09a15.148,15.148,0,0,1-11.108-4.782l-8.448-8.923-20.6-21.756a10.279,10.279,0,0,0,.606-3.454V91.756h85.557Z" fill="#060928"/>
    <path d="M84.4,50.583a25.656,25.656,0,1,0,25.656-25.655A25.685,25.685,0,0,0,84.4,50.583Zm9.274,11.885a2.012,2.012,0,0,1,2-1.431,13.78,13.78,0,0,0,4.891-.627,9.214,9.214,0,0,1-3.333-4.322,2,2,0,0,1-.011-1.454A9.351,9.351,0,0,1,94.6,48.466a2,2,0,0,1,.728-1.688c.05-.041.1-.078.154-.114a8.039,8.039,0,0,1,.423-7.826,2,2,0,0,1,3.238-.282A17.738,17.738,0,0,0,109.811,44.8a8.575,8.575,0,0,1,.145-1.139,8.881,8.881,0,0,1,14.282-5.16c.679-.248,1.358-.5,2.043-.751l1.051-.387a2,2,0,0,1,2.6,2.471c-.042.133-.086.264-.134.392a2.011,2.011,0,0,1,.439.328l.135.134a2,2,0,0,1,.017,2.812c-.25.255-.494.517-.74.778a22.835,22.835,0,0,1-2.041,2.006v.08a21.805,21.805,0,0,1-13.868,20.23,21.446,21.446,0,0,1-19.165-1.834A2,2,0,0,1,93.676,62.468Z" fill="#de2f5c"/>
    <path d="M110.058,80.239A29.656,29.656,0,1,0,80.4,50.583,29.689,29.689,0,0,0,110.058,80.239Zm25.655-29.656a25.656,25.656,0,1,1-25.655-25.655A25.685,25.685,0,0,1,135.713,50.583Z" fill="#060928"/>
    <path d="M94.576,64.757a21.446,21.446,0,0,0,19.165,1.834,21.805,21.805,0,0,0,13.868-20.23v-.08a22.835,22.835,0,0,0,2.041-2.006c.246-.261.49-.523.74-.778a2,2,0,0,0-.017-2.812l-.135-.134a2.011,2.011,0,0,0-.439-.328c.048-.128.092-.259.134-.392a2,2,0,0,0-2.6-2.471l-1.051.387c-.685.253-1.364.5-2.043.751a8.881,8.881,0,0,0-14.282,5.16,8.575,8.575,0,0,0-.145,1.139,17.738,17.738,0,0,1-10.668-6.241,2,2,0,0,0-3.238.282,8.039,8.039,0,0,0-.423,7.826c-.052.036-.1.073-.154.114a2,2,0,0,0-.728,1.688,9.351,9.351,0,0,0,2.624,6.168,2,2,0,0,0,.011,1.454,9.214,9.214,0,0,0,3.333,4.322,13.78,13.78,0,0,1-4.891.627,2,2,0,0,0-1.1,3.72Zm12.1-3.114a2,2,0,0,0-.989-3.581,6.021,6.021,0,0,1-2.958-1.034,2,2,0,0,0-.147-3.674A6.168,6.168,0,0,1,99.5,51.117a2,2,0,0,0,1.48-3.3,9,9,0,0,1-2.25-4.02,21.65,21.65,0,0,0,12.877,5.242,2,2,0,0,0,2.142-1.9c.017-.358.02-.712.023-1.062a9.513,9.513,0,0,1,.1-1.642,4.882,4.882,0,0,1,8.038-2.668,3.273,3.273,0,0,0,1.49.8,2,2,0,0,0,.648,1.822,4.075,4.075,0,0,0-.445,1.978,17.586,17.586,0,0,1-20.573,17.4A16.774,16.774,0,0,0,106.672,61.643Z" fill="#060928"/>
  </g>
</svg>
