<svg xmlns="http://www.w3.org/2000/svg" width="200" height="200" viewBox="0 0 200 200">
  <title>icons</title>
  <g>
    <path d="M85.678,87.041c7.637-1.777,18.892-4.3,26.946-5.7,10.754-1.873,14.678-14.1,15.788-18.724H68.4L78.583,87.041Z" fill="none"/>
    <path d="M165.017,123.04V29.18H25.923a6.563,6.563,0,0,0-6.554,6.554V123.04Zm-79.391-6.9a7.54,7.54,0,1,1,7.54-7.54A7.548,7.548,0,0,1,85.626,116.142Zm30.817,0a7.54,7.54,0,1,1,7.54-7.54A7.548,7.548,0,0,1,116.443,116.142ZM48.465,51h13.07A2,2,0,0,1,63.318,52.1l3.308,6.518h67.921a2,2,0,0,1,1.85,2.76L124.724,89.8a2,2,0,0,1-1.85,1.24H79.8l1.719,4.334h40.464a2,2,0,0,1,0,4H80.161A2,2,0,0,1,78.3,98.112L67.21,70.156l-3.63-8.708L60.307,55H48.465a2,2,0,0,1,0-4Z" fill="none"/>
    <rect x="82.04" y="155.666" width="35.921" height="8.498" fill="none"/>
    <path d="M113.438,168.164H70.63a4.517,4.517,0,0,0-4.511,4.511v1.237H97.1C106.282,172.219,111.059,169.838,113.438,168.164Z" fill="none"/>
    <path d="M100,127.616a8.092,8.092,0,0,1,8.015,7.087h48.448a8.553,8.553,0,0,0,8.507-7.663H19.369V134.7H91.985A8.092,8.092,0,0,1,100,127.616Z" fill="none"/>
    <path d="M180.631,123.04V35.734a6.563,6.563,0,0,0-6.554-6.554h-9.06v93.86Z" fill="#1085fd"/>
    <path d="M180.631,127.04H164.97a8.553,8.553,0,0,1-8.507,7.663H108.015a8.209,8.209,0,0,1,.068,1,8.083,8.083,0,0,1-16.166,0,8.209,8.209,0,0,1,.068-1H19.369v3.1a6.563,6.563,0,0,0,6.554,6.554H174.077a6.563,6.563,0,0,0,6.554-6.554Z" fill="#1085fd"/>
    <rect x="82.04" y="148.359" width="35.921" height="7.307" fill="#1085fd"/>
    <path d="M112.624,81.337c-8.054,1.4-19.309,3.927-26.946,5.7h35.855l10.031-24.428h-3.152C127.3,67.237,123.378,79.464,112.624,81.337Z" fill="#1085fd"/>
    <path d="M133.881,173.912v-1.237a4.517,4.517,0,0,0-4.511-4.511H113.438c-2.379,1.674-7.156,4.055-16.34,5.748Z" fill="#de2f5c"/>
    <path d="M174.077,25.18H25.923A10.567,10.567,0,0,0,15.369,35.734v88.859a1.877,1.877,0,0,0,0,.894v12.318a10.566,10.566,0,0,0,10.554,10.554H78.04v15.8H70.63a8.521,8.521,0,0,0-8.511,8.511v3.237a2,2,0,0,0,2,2h71.762a2,2,0,0,0,2-2v-3.237a8.521,8.521,0,0,0-8.511-8.511h-7.41v-15.8h52.117a10.566,10.566,0,0,0,10.554-10.554V35.734A10.567,10.567,0,0,0,174.077,25.18Zm-148.154,4H174.077a6.563,6.563,0,0,1,6.554,6.554V123.04H19.369V35.734A6.563,6.563,0,0,1,25.923,29.18ZM174.077,144.359H25.923a6.563,6.563,0,0,1-6.554-6.554V127.04H180.631v10.765A6.563,6.563,0,0,1,174.077,144.359ZM66.119,172.675a4.517,4.517,0,0,1,4.511-4.511h58.74a4.517,4.517,0,0,1,4.511,4.511v1.237H66.119Zm15.921-8.511v-15.8h35.92v15.8Z" fill="#060928"/>
    <circle cx="116.443" cy="108.602" r="3.54" fill="#de2f5c"/>
    <path d="M116.443,101.063a7.54,7.54,0,1,0,7.54,7.539A7.548,7.548,0,0,0,116.443,101.063Zm0,11.079a3.54,3.54,0,1,1,3.54-3.54A3.544,3.544,0,0,1,116.443,112.142Z" fill="#060928"/>
    <circle cx="85.626" cy="108.602" r="3.54" fill="#de2f5c"/>
    <path d="M85.626,101.063a7.54,7.54,0,1,0,7.54,7.539A7.548,7.548,0,0,0,85.626,101.063Zm0,11.079a3.54,3.54,0,1,1,3.54-3.54A3.544,3.544,0,0,1,85.626,112.142Z" fill="#060928"/>
    <path d="M48.465,55H60.307l3.273,6.448,3.63,8.708L78.3,98.112a2,2,0,0,0,1.859,1.263h41.822a2,2,0,0,0,0-4H81.519L79.8,91.041h43.074a2,2,0,0,0,1.85-1.24L136.4,61.373a2,2,0,0,0-1.85-2.76H66.626L63.318,52.1A2,2,0,0,0,61.535,51H48.465a2,2,0,0,0,0,4Zm79.947,7.613h3.152L121.533,87.041H78.583L68.4,62.613Z" fill="#060928"/>
    <path d="M100,127.616a8.092,8.092,0,0,0-8.015,7.087,8.209,8.209,0,0,0-.068,1,8.083,8.083,0,0,0,16.166,0,8.209,8.209,0,0,0-.068-1A8.092,8.092,0,0,0,100,127.616Zm4.083,8.084A4.083,4.083,0,1,1,100,131.616,4.088,4.088,0,0,1,104.083,135.7Z" fill="#060928"/>
  </g>
</svg>
