<svg xmlns="http://www.w3.org/2000/svg" width="200" height="200" viewBox="0 0 200 200">
  <title>icons</title>
  <g>
    <path d="M38.475,100.607A14.176,14.176,0,0,0,52.651,86.43a13.785,13.785,0,0,0-.162-2.025A12.159,12.159,0,0,0,34.5,100.017,14.088,14.088,0,0,0,38.475,100.607Z" fill="none"/>
    <path d="M140.51,120.781v-9.06H129.089V76.035h15.294v5.1H134.7v9.431h7.7v5.1h-7.7v10.961h5.812v-.761c0-4.063,3.562-7.368,7.94-7.368s7.942,3.305,7.942,7.368v14.919h5.547a7.512,7.512,0,0,0,7.512-7.512V61.527H28.93a5.519,5.519,0,0,0-5.512,5.513v53.677c0,.022,0,.043,0,.064ZM110.584,76.035h15.294v5.1h-9.685v9.431h7.7v5.1h-7.7v10.961h9.685v5.1H110.584Zm-20.544,0h8.31c5.812,0,8.311,2.7,8.311,8.208v2.192c0,3.671-1.173,6.015-3.671,7.035v.1c2.8.867,3.721,3.518,3.721,7.545v6.27a10.509,10.509,0,0,0,.612,4.334h-5.71c-.306-.918-.51-1.479-.51-4.384v-6.526c0-3.313-.968-4.384-3.518-4.384H95.649v15.294H90.04Zm-17.536,0H87.339v5.1H78.113v9.941h7.239v5.1H78.113v15.549H72.5ZM45.122,77.9A16.177,16.177,0,1,1,28.945,94.077,16.2,16.2,0,0,1,45.122,77.9Z" fill="none"/>
    <path d="M101.052,87.556V84.8c0-2.548-.866-3.67-2.854-3.67H95.649v10.2h2.039C99.778,91.329,101.052,90.411,101.052,87.556Z" fill="none"/>
    <polygon points="164.965 161.332 152.665 161.332 151.817 161.332 151.817 175.277 164.965 175.277 164.965 161.332" fill="none"/>
    <path d="M28.93,126.229H140.51v-5.448H23.421A5.516,5.516,0,0,0,28.93,126.229Z" fill="#1085fd"/>
    <path d="M161.939,120.781h-5.547v1.549h19.029A8.179,8.179,0,0,1,180,123.716a5.476,5.476,0,0,0,.894-3V67.04a5.519,5.519,0,0,0-5.512-5.513h-5.93v51.742A7.512,7.512,0,0,1,161.939,120.781Z" fill="#1085fd"/>
    <path d="M175.381,57.527H28.93a9.523,9.523,0,0,0-9.512,9.513v53.677a9.523,9.523,0,0,0,9.512,9.512H140.51v19.926a11.207,11.207,0,0,0,7.307,10.244v16.878a2,2,0,0,0,2,2h24.119a2,2,0,0,0,2-2V160.4a11.207,11.207,0,0,0,7.306-10.244V129.591a6.763,6.763,0,0,0-.589-2.756,9.464,9.464,0,0,0,2.24-6.118V67.04A9.523,9.523,0,0,0,175.381,57.527ZM144.51,105.862a3.99,3.99,0,0,1,7.882,0V124.33a2,2,0,0,0,2,2h21.029a3.579,3.579,0,0,1,3.821,3.261v20.564c0,3.957-3.658,7.177-8.154,7.177H152.665c-4.5,0-8.155-3.22-8.155-7.177V105.862ZM23.418,67.04a5.519,5.519,0,0,1,5.512-5.513H175.381a5.519,5.519,0,0,1,5.512,5.513v53.677a5.476,5.476,0,0,1-.894,3,8.179,8.179,0,0,0-4.578-1.386H156.392V105.862c0-4.063-3.563-7.368-7.942-7.368s-7.94,3.305-7.94,7.368v.761H134.7V95.662h7.7v-5.1h-7.7V81.133h9.685v-5.1H129.089v35.686H140.51v14.508H28.93a5.516,5.516,0,0,1-5.509-5.448c0-.021,0-.042,0-.064Zm128.4,94.292h20.119v13.945H151.817Z" fill="#060928"/>
    <polygon points="78.113 96.172 85.352 96.172 85.352 91.074 78.113 91.074 78.113 81.133 87.339 81.133 87.339 76.035 72.504 76.035 72.504 111.721 78.113 111.721 78.113 96.172" fill="#060928"/>
    <path d="M95.649,96.427h1.936c2.55,0,3.518,1.071,3.518,4.384v6.526c0,2.905.2,3.466.51,4.384h5.71a10.509,10.509,0,0,1-.612-4.334v-6.27c0-4.027-.918-6.678-3.721-7.545v-.1c2.5-1.02,3.671-3.364,3.671-7.035V84.243c0-5.506-2.5-8.208-8.311-8.208H90.04v35.686h5.609Zm0-15.294H98.2c1.988,0,2.854,1.122,2.854,3.67v2.753c0,2.855-1.274,3.773-3.364,3.773H95.649Z" fill="#060928"/>
    <polygon points="125.878 106.623 116.193 106.623 116.193 95.662 123.89 95.662 123.89 90.564 116.193 90.564 116.193 81.133 125.878 81.133 125.878 76.035 110.584 76.035 110.584 111.721 125.878 111.721 125.878 106.623" fill="#060928"/>
    <path d="M171.975,140.726c0,5.068-4.546,9.176-10.154,9.176H144.51v.253c0,3.957,3.658,7.177,8.155,7.177h18.423c4.5,0,8.154-3.22,8.154-7.177V129.591a3.579,3.579,0,0,0-3.821-3.261h-3.446Z" fill="#1085fd"/>
    <polygon points="171.936 175.277 171.936 161.332 171.088 161.332 164.965 161.332 164.965 175.277 171.936 175.277" fill="#de2f5c"/>
    <path d="M38.475,100.607a14.088,14.088,0,0,1-3.973-.59A12.167,12.167,0,1,0,52.489,84.405a13.785,13.785,0,0,1,.162,2.025A14.176,14.176,0,0,1,38.475,100.607Z" fill="#de2f5c"/>
    <path d="M45.122,110.254A16.177,16.177,0,1,0,28.945,94.077,16.2,16.2,0,0,0,45.122,110.254Zm0-28.353A12.162,12.162,0,1,1,32.945,94.077,12.1,12.1,0,0,1,45.122,81.9Z" fill="#060928"/>
  </g>
</svg>
