<svg xmlns="http://www.w3.org/2000/svg" width="200" height="200" viewBox="0 0 200 200">
  <title>icons</title>
  <g>
    <path d="M84.778,161.328a25.073,25.073,0,0,0,10.767-13.617l.114-.348a18.413,18.413,0,0,0,.923-5.538l-4.193-2.488-1.185.215a15.617,15.617,0,0,0-8.484,4.77l-.253.269a23.177,23.177,0,0,0-6.244,14.688l-.291,7.348Z" fill="none"/>
    <path d="M96.139,117.445l11.58,6.868,4.445-4.706A103.954,103.954,0,0,0,131.7,90.092l27.279-62.134a2.641,2.641,0,0,0-1.879,1.1L112.145,87.35A101.337,101.337,0,0,0,96.139,117.445Z" fill="none"/>
    <polygon points="104.903 127.293 94.862 121.338 93.12 126.711 101.024 131.399 104.903 127.293" fill="none"/>
    <polygon points="104.903 127.293 101.024 131.399 93.12 126.711 91.42 131.952 104.735 139.849 112.398 131.739 104.903 127.293" fill="#1085fd"/>
    <path d="M112.164,119.607l-4.445,4.706,7.483,4.438a101.357,101.357,0,0,0,18.734-28.477l29.59-67.4c.48-1.092.313-2.269-.38-2.68l-3.513-2.084a1.194,1.194,0,0,0-.655-.151L131.7,90.092A103.954,103.954,0,0,1,112.164,119.607Z" fill="#1085fd"/>
    <path d="M108.977,84.908a105.282,105.282,0,0,0-16.851,31.9l-.013.039a2.021,2.021,0,0,0-.284.366,1.983,1.983,0,0,0-.253,1.29l-4.454,13.735A2,2,0,0,0,88,134.576l1.955,1.16A19.725,19.725,0,0,0,79.8,141.584l-.253.269a27.229,27.229,0,0,0-7.324,17.268l-.682,17.218H30.757a2,2,0,0,0,0,4H151.589a2,2,0,0,0,0-4H79.051L90.1,169.721a27.228,27.228,0,0,0,11.64-14.708h0l.115-.347a19.728,19.728,0,0,0,.261-11.719l1.955,1.159a2,2,0,0,0,2.475-.346l9.928-10.508a1.976,1.976,0,0,0,1-.829,2.046,2.046,0,0,0,.184-.423l.03-.032A105.331,105.331,0,0,0,137.6,101.882l29.59-67.4c1.321-3.007.479-6.258-2-7.729l-3.514-2.084c-2.48-1.469-5.736-.652-7.743,1.95ZM91.42,131.952l1.7-5.241,1.742-5.373,10.041,5.955,7.495,4.446-7.663,8.11Zm-8.953,12.639.253-.269a15.617,15.617,0,0,1,8.484-4.77l1.185-.215,4.193,2.488,1.207.716.381,1.143a15.619,15.619,0,0,1-.117,9.733l-.115.348a23.162,23.162,0,0,1-9.894,12.524l-12.393,7.423.281-7.085.291-7.348A23.177,23.177,0,0,1,82.467,144.591ZM157.1,29.061a2.641,2.641,0,0,1,1.879-1.1,1.194,1.194,0,0,1,.655.151l3.513,2.084c.693.411.86,1.588.38,2.68l-29.59,67.4A101.357,101.357,0,0,1,115.2,128.751l-7.483-4.438-11.58-6.868A101.337,101.337,0,0,1,112.145,87.35Z" fill="#060928"/>
    <path d="M95.545,147.711a25.073,25.073,0,0,1-10.767,13.617l-8.846,5.3-.281,7.085,12.393-7.423a23.162,23.162,0,0,0,9.894-12.524l.115-.348a15.619,15.619,0,0,0,.117-9.733l-.381-1.143-1.207-.716a18.413,18.413,0,0,1-.923,5.538Z" fill="#de2f5c"/>
  </g>
</svg>
