<svg xmlns="http://www.w3.org/2000/svg" width="200" height="200" viewBox="0 0 200 200">
  <title>icons</title>
  <g>
    <path d="M177.571,62.054a5.964,5.964,0,0,0-3.959-5.607V67.661A5.965,5.965,0,0,0,177.571,62.054Z" fill="none"/>
    <path d="M68.933,109.679a14.192,14.192,0,0,1-.271,2.737,23.362,23.362,0,0,1,2.438-.13H85.03V100.819a23.937,23.937,0,0,1-13.1-11.631,21.729,21.729,0,0,1-3,1.384Z" fill="none"/>
    <path d="M128.749,89.548a23.935,23.935,0,0,1-12.915,11.271v11.467h13.93c.526,0,1.046.024,1.563.059a14.2,14.2,0,0,1-.26-2.666V90.572A21.823,21.823,0,0,1,128.749,89.548Z" fill="none"/>
    <path d="M136.277,69.533a6.782,6.782,0,0,0-4.771-6.468V76A6.783,6.783,0,0,0,136.277,69.533Z" fill="none"/>
    <path d="M69.358,62.711a1.992,1.992,0,0,1-.44.052,6.767,6.767,0,0,0-1.556,13.354,19.8,19.8,0,0,0,2-2.971Z" fill="none"/>
    <path d="M26.388,56.073a1.915,1.915,0,0,1-.214.022,5.96,5.96,0,0,0,0,11.919c.073,0,.142.014.214.021Z" fill="none"/>
    <path d="M36.252,83.3a19.733,19.733,0,0,0,2.53.176H51.973a19.688,19.688,0,0,0,12.249-4.266,10.762,10.762,0,0,1,4.7-20.449,1.992,1.992,0,0,1,.44.052V55.831H66.193c0,.043.012.083.012.126a3.029,3.029,0,1,1-5.081-2.217,2,2,0,0,1,1.991-1.909h6.243v-.956a23.656,23.656,0,0,1,2.4-10.413v-1.79a19.666,19.666,0,0,0-2.395-9.415,17.658,17.658,0,0,0-8-1.922H48.175A17.807,17.807,0,0,0,30.388,45.123V70.141A17.725,17.725,0,0,0,36.252,83.3Zm3.464-31.471h6.711a2,2,0,0,1,1.991,1.91,3.025,3.025,0,1,1-5.081,2.216c0-.043.01-.083.012-.126H39.716a2,2,0,1,1,0-4Z" fill="none"/>
    <path d="M131.506,50.875v.956h5.379a2,2,0,0,1,1.991,1.909,3.025,3.025,0,1,1-5.081,2.217c0-.043.011-.083.012-.126h-2.3v3.125a10.762,10.762,0,0,1-.066,21.165,23.759,23.759,0,0,1-.474,3.357h11.466A19.787,19.787,0,0,0,162.219,63.69V54.312a2,2,0,0,1-1.935,1.519h-3.633c0,.043.012.083.012.126a3.029,3.029,0,1,1-5.081-2.216,2,2,0,0,1,1.991-1.91h6.711a2,2,0,0,1,1.935,1.52V38.672a19.666,19.666,0,0,0-2.395-9.415,17.658,17.658,0,0,0-8-1.922H138.633a17.751,17.751,0,0,0-13.989,6.839A23.722,23.722,0,0,1,131.506,50.875Z" fill="none"/>
    <path d="M171.846,100.665a2,2,0,0,0,0,4,17.119,17.119,0,0,1,17.1,17.1V137.03a8.126,8.126,0,0,1-8.117,8.117H152.81v-9.814a22.9,22.9,0,0,0-3.45-12.111,14.184,14.184,0,0,0,10.031-13.543V90.572a21.835,21.835,0,0,0,14.15-18.749,9.959,9.959,0,0,0,.071-19.526V45.123a21.812,21.812,0,0,0-21.787-21.788H138.633a21.754,21.754,0,0,0-17.036,8.23,23.663,23.663,0,0,0-13.9-4.5H93.164a23.677,23.677,0,0,0-14.443,4.9,21.766,21.766,0,0,0-17.354-8.634H48.175A21.812,21.812,0,0,0,26.388,45.123v6.993c-.072-.007-.141-.021-.214-.021a9.96,9.96,0,0,0,0,19.919,1.941,1.941,0,0,0,.3-.03A21.836,21.836,0,0,0,40.609,90.572v19.107a14.175,14.175,0,0,0,10.773,13.735,22.91,22.91,0,0,0-3.328,11.919v9.814H19.172a8.126,8.126,0,0,1-8.117-8.117V121.764a17.119,17.119,0,0,1,17.1-17.1,2,2,0,1,0,0-4,21.123,21.123,0,0,0-21.1,21.1V137.03a12.131,12.131,0,0,0,12.117,12.117H48.054v3.009A13.164,13.164,0,0,0,61.2,165.306h78.459a13.164,13.164,0,0,0,13.148-13.15v-3.009h28.018a12.131,12.131,0,0,0,12.117-12.117V121.764A21.123,21.123,0,0,0,171.846,100.665ZM61.2,161.306a9.16,9.16,0,0,1-9.149-9.15V135.333A19.068,19.068,0,0,1,71.1,116.286H85.03v5.73a15.4,15.4,0,0,0,30.8,0v-5.73h13.93a19.068,19.068,0,0,1,19.046,19.047v16.823a9.16,9.16,0,0,1-9.148,9.15Zm7.715-85a6.771,6.771,0,1,1,0-13.542,1.992,1.992,0,0,0,.44-.052V76.357A1.992,1.992,0,0,0,68.918,76.305Zm62.409,36.04c-.517-.035-1.037-.059-1.563-.059h-13.93V100.819a23.935,23.935,0,0,0,12.915-11.271,21.823,21.823,0,0,0,2.318,1.024v19.107A14.2,14.2,0,0,0,131.327,112.345Zm-30.895,21.073a11.409,11.409,0,0,1-11.4-11.4V101.884a23.761,23.761,0,0,0,4.134.367H107.7a23.767,23.767,0,0,0,4.133-.367v20.132A11.415,11.415,0,0,1,100.432,133.418Zm-15.4-32.6v11.467H71.1a23.362,23.362,0,0,0-2.438.13,14.192,14.192,0,0,0,.271-2.737V90.572a21.729,21.729,0,0,0,3-1.384A23.937,23.937,0,0,0,85.03,100.819Zm61.669,18.9a23.2,23.2,0,0,0-6.055-4.7,22.911,22.911,0,0,0-4.989-1.971,10.084,10.084,0,0,1-.588-3.373V91.632a21.841,21.841,0,0,0,3.566.3h13.192a21.832,21.832,0,0,0,3.566-.3v18.047A10.169,10.169,0,0,1,146.7,119.722ZM131.506,63.065a6.77,6.77,0,0,1,0,12.937ZM116.363,33.092a19.81,19.81,0,0,1,11.143,17.783v27.57A19.828,19.828,0,0,1,107.7,98.251H93.164A19.878,19.878,0,0,1,73.358,78.445V50.875A19.829,19.829,0,0,1,93.164,31.069H107.7A19.652,19.652,0,0,1,116.363,33.092ZM48.175,91.929H61.367a21.841,21.841,0,0,0,3.566-.3v18.047a10.107,10.107,0,0,1-.689,3.649,23.085,23.085,0,0,0-10.159,6.478,10.175,10.175,0,0,1-9.476-10.127V91.632A21.832,21.832,0,0,0,48.175,91.929Zm129.4-29.875a5.965,5.965,0,0,1-3.959,5.607V56.447A5.964,5.964,0,0,1,177.571,62.054ZM138.633,27.335h13.192a17.844,17.844,0,0,1,17.787,17.788V70.141a17.808,17.808,0,0,1-17.787,17.788H138.633a17.663,17.663,0,0,1-8.314-2.075,23.318,23.318,0,0,0,1.121-5.733,10.762,10.762,0,0,0,.066-21.165V55.831h2.3c0,.043-.012.083-.012.126a3.029,3.029,0,1,0,5.081-2.217,2,2,0,0,0-1.991-1.909h-5.379v-.956a23.722,23.722,0,0,0-6.862-16.7A17.751,17.751,0,0,1,138.633,27.335ZM20.215,62.054A5.965,5.965,0,0,1,26.174,56.1a1.915,1.915,0,0,0,.214-.022V68.035c-.072-.007-.141-.021-.214-.021A5.966,5.966,0,0,1,20.215,62.054ZM30.388,45.123A17.807,17.807,0,0,1,48.175,27.335H61.367a17.658,17.658,0,0,1,8,1.922,17.888,17.888,0,0,1,6.37,5.425,23.72,23.72,0,0,0-6.378,16.193v.956H63.115a2,2,0,0,0-1.991,1.909,3.025,3.025,0,1,0,5.081,2.217c0-.043-.011-.083-.012-.126h3.165v2.984a1.992,1.992,0,0,0-.44-.052,10.771,10.771,0,0,0,0,21.542,1.982,1.982,0,0,0,.514-.075,23.668,23.668,0,0,0,.974,5.2,17.647,17.647,0,0,1-9.039,2.5H48.175A17.858,17.858,0,0,1,30.388,70.141Z" fill="#060928"/>
    <path d="M155.391,91.632a21.832,21.832,0,0,1-3.566.3H151.6v10.993a12.163,12.163,0,0,1-10.952,12.1,23.2,23.2,0,0,1,6.055,4.7,10.169,10.169,0,0,0,8.692-10.043Z" fill="#de2f5c"/>
    <path d="M162.219,53.351a1.809,1.809,0,0,1,0,.961V63.69a19.787,19.787,0,0,1-19.787,19.788H130.966a23.558,23.558,0,0,1-.647,2.376,17.663,17.663,0,0,0,8.314,2.075h13.192a17.808,17.808,0,0,0,17.787-17.788V45.123a17.791,17.791,0,0,0-9.788-15.866,19.666,19.666,0,0,1,2.395,9.415Z" fill="#de2f5c"/>
    <path d="M162.219,53.351a2,2,0,0,0-1.935-1.52h-6.711a2,2,0,0,0-1.991,1.91,3.025,3.025,0,1,0,5.081,2.216c0-.043-.01-.083-.012-.126h3.633a1.977,1.977,0,0,0,1.935-2.48Z" fill="#060928"/>
    <path d="M48.976,115.084a12.062,12.062,0,0,1-3.03-.387,10.16,10.16,0,0,0,8.139,5.109,23.085,23.085,0,0,1,10.159-6.478,10.107,10.107,0,0,0,.689-3.649V91.632a21.841,21.841,0,0,1-3.566.3h-.229v10.993A12.162,12.162,0,0,1,48.976,115.084Z" fill="#de2f5c"/>
    <path d="M67.362,76.117a6.77,6.77,0,0,0,1.556.188,1.992,1.992,0,0,1,.44.052V73.146A19.8,19.8,0,0,1,67.362,76.117Z" fill="#de2f5c"/>
    <path d="M38.782,83.478a19.733,19.733,0,0,1-2.53-.176,17.694,17.694,0,0,0,11.923,4.627H61.367a17.647,17.647,0,0,0,9.039-2.5,23.668,23.668,0,0,1-.974-5.2,1.982,1.982,0,0,1-.514.075,10.687,10.687,0,0,1-4.7-1.093,19.688,19.688,0,0,1-12.249,4.266Z" fill="#de2f5c"/>
    <path d="M71.761,40.462a23.867,23.867,0,0,1,3.975-5.78,17.888,17.888,0,0,0-6.37-5.425,19.666,19.666,0,0,1,2.395,9.415Z" fill="#de2f5c"/>
    <path d="M39.716,55.831h3.633c0,.043-.012.083-.012.126a3.029,3.029,0,1,0,5.081-2.216,2,2,0,0,0-1.991-1.91H39.716a2,2,0,1,0,0,4Z" fill="#060928"/>
    <path d="M148.81,152.156V135.333a19.068,19.068,0,0,0-19.046-19.047H119.006a20.244,20.244,0,0,1,.291,3.335v16.823a11.149,11.149,0,0,1-11.149,11.149H52.054v4.563a9.16,9.16,0,0,0,9.149,9.15h78.459A9.16,9.16,0,0,0,148.81,152.156Z" fill="#1085fd"/>
    <path d="M111.834,101.884a23.767,23.767,0,0,1-4.133.367h-.253V114.57a13.347,13.347,0,0,1-17.036,12.882,11.4,11.4,0,0,0,21.422-5.436Z" fill="#de2f5c"/>
    <path d="M119.155,43.766V71.337a21.806,21.806,0,0,1-21.806,21.8H82.812a21.766,21.766,0,0,1-3.136-.234,19.714,19.714,0,0,0,13.488,5.343H107.7a19.828,19.828,0,0,0,19.805-19.806V50.875a19.81,19.81,0,0,0-11.143-17.783A21.68,21.68,0,0,1,119.155,43.766Z" fill="#1085fd"/>
    <path d="M109.7,66.152a3.339,3.339,0,0,0,3.338-3.338,3.22,3.22,0,0,0-.035-.342h4.024a2,2,0,0,0,0-4h-7.4a1.994,1.994,0,0,0-1.971,1.716,3.327,3.327,0,0,0,2.039,5.964Z" fill="#060928"/>
    <path d="M91.236,58.472H83.842a2,2,0,0,0,0,4h4.024a3.22,3.22,0,0,0-.035.342,3.338,3.338,0,1,0,5.377-2.626A1.994,1.994,0,0,0,91.236,58.472Z" fill="#060928"/>
  </g>
</svg>
