<svg xmlns="http://www.w3.org/2000/svg" width="200" height="200" viewBox="0 0 200 200">
  <title>icons</title>
  <g>
    <path d="M83.18,150.53A68.159,68.159,0,0,1,47.164,140.3a66.452,66.452,0,1,0,96.523-90.357A68.5,68.5,0,0,1,83.18,150.53Z" fill="#de2f5c"/>
    <path d="M112.94,117.745,100,104.805l-12.94,12.94a9.536,9.536,0,0,1-13.486,0c-.145-.145-.258-.308-.391-.459a7.529,7.529,0,0,0,12.463,7.726l12.94-12.941a2,2,0,0,1,2.828,0l12.94,12.941a7.529,7.529,0,0,0,12.463-7.726c-.133.151-.246.314-.391.459A9.536,9.536,0,0,1,112.94,117.745Z" fill="#de2f5c"/>
    <path d="M72.16,127.84a11.548,11.548,0,0,0,16.314,0L100,116.313l11.526,11.527a11.536,11.536,0,0,0,16.314-16.314L116.313,100,127.84,88.474A11.536,11.536,0,0,0,111.526,72.16L100,83.687,88.474,72.16A11.536,11.536,0,0,0,72.16,88.474L83.687,100,72.16,111.526A11.548,11.548,0,0,0,72.16,127.84Zm15.769-26.426a2,2,0,0,0,0-2.828L74.988,85.646A7.536,7.536,0,0,1,85.646,74.988l12.94,12.941a2,2,0,0,0,2.828,0l12.94-12.941a7.536,7.536,0,0,1,10.658,10.658l-12.941,12.94a2,2,0,0,0,0,2.828l12.941,12.94a7.567,7.567,0,0,1,0,10.658,7.547,7.547,0,0,1-10.658,0l-12.94-12.941a2,2,0,0,0-2.828,0l-12.94,12.941a7.529,7.529,0,0,1-12.463-7.726,7.471,7.471,0,0,1,1.8-2.932Z" fill="#060928"/>
    <path d="M100,29.511A70.489,70.489,0,1,0,170.489,100,70.569,70.569,0,0,0,100,29.511Zm0,4A66.441,66.441,0,1,1,33.511,100,66.19,66.19,0,0,1,100,33.511Z" fill="#060928"/>
  </g>
</svg>
