<svg xmlns="http://www.w3.org/2000/svg" width="200" height="200" viewBox="0 0 200 200">
  <title>icons</title>
  <g>
    <path d="M44.347,98h11.7c7.935-1.556,17.687-5.139,23.512-13.345V83.336H44.347Z" fill="none"/>
    <polygon points="63.637 51.881 56.151 44.468 48.666 51.881 50.558 53.754 61.697 53.802 63.637 51.881" fill="none"/>
    <path d="M107.158,122.2l1.417-1.43c.093-3.718.168-7.535.229-11.353l-1.646-1.661-7.152,7.222Z" fill="none"/>
    <path d="M107.158,102.07l1.765-1.782c.04-3.9.068-7.707.086-11.32L107.158,87.1l-7.412,7.484Z" fill="none"/>
    <path d="M107.158,143.193l.517-.522c.265-3.983.48-8.614.654-13.607l-1.171-1.182-7.581,7.656Z" fill="none"/>
    <path d="M107.158,81.416l1.879-1.9c0-4.174,0-7.816-.012-10.663l-1.867-1.885-7.152,7.222Z" fill="none"/>
    <polygon points="110.444 51.881 112.603 54.019 122.685 54.063 124.888 51.881 117.666 44.728 110.444 51.881" fill="none"/>
    <polygon points="83.765 51.881 76.543 44.729 69.32 51.881 71.302 53.843 81.739 53.887 83.765 51.881" fill="none"/>
    <polygon points="89.449 51.881 91.517 53.929 102.643 53.977 104.76 51.881 97.104 44.299 89.449 51.881" fill="none"/>
    <path d="M104.137,160.271a38.645,38.645,0,0,0,2.012-5.152,38.524,38.524,0,0,0,1.014-6.238l0,0-7.152,7.222Z" fill="none"/>
    <path d="M71.692,160H44.347v14.663H51.3A42.59,42.59,0,0,0,71.692,160Z" fill="none"/>
    <path d="M79.564,145.834v-4.5H44.347V156H74.488A57.4,57.4,0,0,0,79.564,145.834Z" fill="none"/>
    <path d="M102.215,164.014l-3.453-3.487V169.6C99.754,168.137,100.991,166.206,102.215,164.014Z" fill="none"/>
    <path d="M140.228,58.542l.786,1.735h2.307l5.405-2.123c8-3.141,19.205,2.806,17.779-27.372l.018-.016H146.5l-6.27,11.239Zm4.054-15.493a2,2,0,0,1,.219-.91l3.963-7.752a2,2,0,0,1,1.781-1.09h10.4a2,2,0,0,1,2,2V50.8a2,2,0,0,1-2,2H146.282a2,2,0,0,1-2-2Z" fill="none"/>
    <polygon points="104.344 146.035 98.762 140.399 98.762 151.671 104.344 146.035" fill="none"/>
    <path d="M158.648,41.112V37.3h-7.179l-3.187,6.234V48.8H151.4A18.512,18.512,0,0,0,158.648,41.112Z" fill="none"/>
    <polygon points="107.602 49.066 113.238 43.485 101.966 43.485 107.602 49.066" fill="none"/>
    <polygon points="127.73 49.066 133.366 43.485 122.094 43.485 127.73 49.066" fill="none"/>
    <polygon points="86.607 49.066 92.243 43.485 80.971 43.485 86.607 49.066" fill="none"/>
    <polygon points="132.819 54.106 136.228 54.12 136.228 46.28 130.572 51.881 132.819 54.106" fill="none"/>
    <polygon points="66.479 49.066 72.115 43.485 60.843 43.485 66.479 49.066" fill="none"/>
    <polygon points="98.762 78.622 98.762 89.894 104.344 84.258 98.762 78.622" fill="none"/>
    <polygon points="104.344 104.912 98.762 99.275 98.762 110.548 104.344 104.912" fill="none"/>
    <polygon points="98.762 119.404 98.762 130.676 104.344 125.04 98.762 119.404" fill="none"/>
    <polygon points="104.197 64.277 98.762 64.277 98.762 69.765 104.197 64.277" fill="none"/>
    <polygon points="115.555 64.277 110.119 64.277 115.555 69.765 115.555 64.277" fill="#1085fd"/>
    <path d="M109.037,79.519l5.274-5.326-5.286-5.337C109.035,71.7,109.041,75.345,109.037,79.519Z" fill="#1085fd"/>
    <polygon points="115.555 78.622 109.973 84.258 115.555 89.894 115.555 78.622" fill="#1085fd"/>
    <polygon points="115.555 110.548 115.555 99.275 109.973 104.912 115.555 110.548" fill="#1085fd"/>
    <path d="M98.762,171.8l5.582-5.636-2.129-2.15c-1.224,2.192-2.461,4.123-3.453,5.586Z" fill="#1085fd"/>
    <polygon points="112.759 174.661 107.158 169.006 101.557 174.661 112.759 174.661" fill="#1085fd"/>
    <polygon points="109.973 166.164 115.555 171.8 115.555 160.527 109.973 166.164" fill="#1085fd"/>
    <path d="M104.137,160.271l3.021,3.051,7.153-7.223-7.148-7.218a38.524,38.524,0,0,1-1.014,6.238A38.645,38.645,0,0,1,104.137,160.271Z" fill="#1085fd"/>
    <polygon points="115.555 151.671 115.555 140.399 109.973 146.035 115.555 151.671" fill="#1085fd"/>
    <path d="M114.571,94.584l-5.562-5.616c-.018,3.613-.046,7.422-.086,11.32Z" fill="#1085fd"/>
    <polygon points="115.555 119.404 109.973 125.04 115.555 130.676 115.555 119.404" fill="#1085fd"/>
    <path d="M114.311,114.976l-5.507-5.561c-.061,3.818-.136,7.635-.229,11.353Z" fill="#1085fd"/>
    <path d="M114.74,135.538l-6.411-6.474c-.174,4.993-.389,9.624-.654,13.607Z" fill="#1085fd"/>
    <path d="M148.726,58.154l-5.405,2.123H166.7V30.766h-.18l-.018.016C167.931,60.96,156.724,55.013,148.726,58.154Z" fill="#1085fd"/>
    <polygon points="127.73 54.695 122.094 60.277 133.366 60.277 127.73 54.695" fill="#de2f5c"/>
    <polygon points="50.558 53.754 56.151 59.293 61.697 53.802 50.558 53.754" fill="#de2f5c"/>
    <polygon points="140.228 60.277 141.014 60.277 140.228 58.542 140.228 60.277" fill="#de2f5c"/>
    <polygon points="72.115 60.277 66.479 54.695 60.843 60.277 72.115 60.277" fill="#de2f5c"/>
    <polygon points="51.46 60.277 45.824 54.696 40.188 60.277 51.46 60.277" fill="#de2f5c"/>
    <polygon points="117.666 59.033 122.685 54.063 112.603 54.019 117.666 59.033" fill="#de2f5c"/>
    <polygon points="136.228 57.482 136.228 54.12 132.819 54.106 136.228 57.482" fill="#de2f5c"/>
    <polygon points="101.966 60.277 105.329 60.277 105.337 60.277 113.238 60.277 107.602 54.695 101.966 60.277" fill="#de2f5c"/>
    <polygon points="81.739 53.887 71.302 53.843 76.543 59.033 81.739 53.887" fill="#de2f5c"/>
    <polygon points="86.607 54.695 80.971 60.277 92.243 60.277 86.607 54.695" fill="#de2f5c"/>
    <polygon points="97.104 59.462 102.643 53.977 91.517 53.929 97.104 59.462" fill="#de2f5c"/>
    <path d="M79.564,156V145.834A57.4,57.4,0,0,1,74.488,156Z" fill="#de2f5c"/>
    <path d="M51.3,174.661h28.26V160H71.692A42.59,42.59,0,0,1,51.3,174.661Z" fill="#de2f5c"/>
    <path d="M31.3,178.661H168.7a2,2,0,1,0,0-4H119.555V64.277H168.7a2,2,0,0,0,2-2V28.766a2,2,0,0,0-2-2h-23.38a2,2,0,0,0-1.746,1.025l-6.524,11.694H56.322c-.022,0-.042.005-.063.006-.037,0-.073.007-.11.01a1.958,1.958,0,0,0-2.068,1.389L33.919,60.856a1.968,1.968,0,0,0-.318.427,1.163,1.163,0,0,0-.059.11,1.972,1.972,0,0,0-.173.48l0,.008a2.021,2.021,0,0,0-.028.515c0,.042.007.083.012.125a1.981,1.981,0,0,0,.126.511v.006c0,.006.008.011.011.018a2.014,2.014,0,0,0,.257.43c.028.036.056.071.086.106s.046.063.075.092a1.939,1.939,0,0,0,.3.247l.01.008a1.93,1.93,0,0,0,.47.224c.039.014.077.024.117.035a1.991,1.991,0,0,0,.524.079H61.02V79.336H42.347a2,2,0,0,0-2,2V100a2,2,0,0,0,2,2H81.564a2,2,0,0,0,2-2V81.336a2,2,0,0,0-2-2H65.02V64.277H94.762V174.661h-11.2V139.334a2,2,0,0,0-2-2H42.347a2,2,0,0,0-2,2v35.327H31.3a2,2,0,1,0,0,4ZM79.564,84.655V98H44.347V83.336H79.564Zm-29.006-30.9-1.892-1.873,7.485-7.413,7.486,7.413L61.7,53.8l-5.546,5.491Zm.9,6.523H40.188L45.824,54.7Zm17.86-8.4,7.223-7.152,7.222,7.152-2.026,2.006-5.2,5.146L71.3,53.843Zm40.653,114.283,5.582-5.637V171.8Zm5.582-14.493-5.582-5.636,5.582-5.636Zm0-41.123-5.582-5.636,5.582-5.637ZM105.337,60.277h-3.371L107.6,54.7l5.636,5.582Zm10.218,4v5.488l-5.436-5.488Zm7.13-10.214-5.019,4.97L112.6,54.019l-2.159-2.138,7.222-7.153,7.222,7.153Zm5.045.632,5.636,5.582H122.094Zm-25.087-.718L97.1,59.462l-5.587-5.533-2.068-2.048L97.1,44.3l7.656,7.582ZM86.607,54.7l5.636,5.582H80.971Zm22.418,14.161,5.286,5.337-5.274,5.326-1.879,1.9-7.152-7.223,7.152-7.222Zm6.53,9.766V89.894l-5.582-5.636Zm-6.546,10.346,5.562,5.616-5.648,5.7-1.765,1.782-7.412-7.486,7.412-7.484Zm-.2,20.447,5.507,5.561-5.736,5.792-1.417,1.43-7.152-7.222,7.152-7.222Zm6.751,9.989v11.272l-5.582-5.636Zm-7.226,9.66,6.411,6.474-7.065,7.133-.517.522-7.581-7.655,7.581-7.656Zm-1.166,19.817,7.148,7.218-7.153,7.223-3.021-3.051-4.131-4.172,7.152-7.222Zm-4.948,15.133,2.129,2.15L98.762,171.8V160.527Zm10.544,10.647h-11.2l5.6-5.655ZM136.228,54.12v3.362l-3.409-3.376-2.247-2.225,5.656-5.6Zm-8.5-5.054-5.636-5.581h11.272Zm-20.128,0-5.636-5.581h11.272Zm-21,0-5.636-5.581H92.243Zm-20.128,0-5.636-5.581H72.115Zm0,5.629,5.636,5.582H60.843ZM104.2,64.277l-5.435,5.488V64.277ZM98.762,78.622l5.582,5.636-5.582,5.636Zm5.582,26.29-5.582,5.636V99.275ZM98.762,119.4l5.582,5.636-5.582,5.636Zm5.582,26.631-5.582,5.636V140.4ZM146.5,30.766H166.7V60.277H140.228V42.005ZM44.347,141.334H79.564V156H44.347Zm0,18.664H79.564v14.663H44.347Z" fill="#060928"/>
    <path d="M151.4,48.8h7.25v-7.69A18.512,18.512,0,0,1,151.4,48.8Z" fill="#de2f5c"/>
    <path d="M146.282,52.8h14.366a2,2,0,0,0,2-2V35.3a2,2,0,0,0-2-2h-10.4a2,2,0,0,0-1.781,1.09L144.5,42.139a2,2,0,0,0-.219.91V50.8A2,2,0,0,0,146.282,52.8Zm2-9.271,3.187-6.234h7.179V48.8H148.282Z" fill="#060928"/>
    <path d="M56.052,98H79.564V84.655C73.739,92.861,63.987,96.444,56.052,98Z" fill="#1085fd"/>
  </g>
</svg>
