<svg xmlns="http://www.w3.org/2000/svg" width="200" height="200" viewBox="0 0 200 200">
  <title>icons</title>
  <g>
    <path d="M140.19,47.974a4.969,4.969,0,0,0,4.409-2.7,2.979,2.979,0,0,0-5.36,2.6A4.808,4.808,0,0,0,140.19,47.974Z" fill="none"/>
    <path d="M157.518,47.974a4.968,4.968,0,0,0,4.405-2.693,2.979,2.979,0,0,0-5.364,2.593A4.873,4.873,0,0,0,157.518,47.974Z" fill="none"/>
    <path d="M141.211,189.042h-.6v2.4h.479c.492,0,.792-.215.792-.887v-.648C141.883,189.306,141.679,189.042,141.211,189.042Z" fill="none"/>
    <path d="M167.663,45.38a9.623,9.623,0,0,0-3.783-7.65H29.81a7.659,7.659,0,0,0-7.65,7.65V55.5h145.5Zm-25.722,8.225a6.99,6.99,0,1,1,6.99-6.99A7,7,0,0,1,141.941,53.605Zm17.321,0a6.99,6.99,0,1,1,6.99-6.99A7,7,0,0,1,159.262,53.605Z" fill="none"/>
    <path d="M73.26,113.782a10.526,10.526,0,1,0-10.526-10.526A10.537,10.537,0,0,0,73.26,113.782Z" fill="none"/>
    <path d="M131.49,131.089c8.969-2.784,16.081-9.054,19.287-16.994a2.037,2.037,0,0,1-.1-.291,14.481,14.481,0,0,0-1.633-3.94,2,2,0,0,1,.3-2.443l2.4-2.4-2.9-2.9-2.4,2.4a2,2,0,0,1-2.442.3,14.534,14.534,0,0,0-3.941-1.633,2,2,0,0,1-1.514-1.94v-3.4h-4.1v3.4a2,2,0,0,1-1.514,1.94A14.566,14.566,0,0,0,129,104.823a2,2,0,0,1-2.442-.3l-2.4-2.4-2.9,2.9,2.4,2.4a2,2,0,0,1,.3,2.443,14.481,14.481,0,0,0-1.633,3.94,2,2,0,0,1-1.94,1.513h-3.4v4.1h3.4a2,2,0,0,1,1.94,1.514,14.475,14.475,0,0,0,1.633,3.939,2,2,0,0,1-.3,2.444l-2.4,2.4,2.9,2.9,2.4-2.4a2,2,0,0,1,2.443-.3A14.444,14.444,0,0,0,131.49,131.089Zm-4.554-13.722a9.565,9.565,0,1,1,9.564,9.564A9.576,9.576,0,0,1,126.936,117.367Z" fill="none"/>
    <path d="M167.634,141.326V59.5H22.16v91.476H157.984A9.649,9.649,0,0,0,167.634,141.326Zm-56.75-31.365a2,2,0,0,1-2,2h-7.418a29.284,29.284,0,0,1-2.107,5.083l5.246,5.246a2,2,0,0,1,0,2.828L95.123,134.6a2.06,2.06,0,0,1-2.829,0l-5.246-5.248a29.2,29.2,0,0,1-5.082,2.108v7.418a2,2,0,0,1-2,2H66.555a2,2,0,0,1-2-2v-7.418a29.137,29.137,0,0,1-5.082-2.108L54.226,134.6a2.058,2.058,0,0,1-2.828,0l-9.483-9.484a2,2,0,0,1,0-2.828l5.246-5.246a29.362,29.362,0,0,1-2.107-5.083H37.637a2,2,0,0,1-2-2V96.55a2,2,0,0,1,2-2h7.417a29.431,29.431,0,0,1,2.107-5.082l-5.246-5.246a2,2,0,0,1,0-2.828L51.4,71.91a2.058,2.058,0,0,1,2.828,0l5.247,5.247a29.21,29.21,0,0,1,5.082-2.107V67.632a2,2,0,0,1,2-2H79.966a2,2,0,0,1,2,2V75.05a29.274,29.274,0,0,1,5.082,2.107l5.246-5.247a2.06,2.06,0,0,1,2.829,0l9.482,9.484a2,2,0,0,1,0,2.828l-5.246,5.246a29.274,29.274,0,0,1,2.107,5.082h7.418a2,2,0,0,1,2,2Zm45.106,21.168-5.726,5.727a2.061,2.061,0,0,1-2.829,0l-2.762-2.761a18.356,18.356,0,0,1-2.123.88v3.905a2,2,0,0,1-2,2h-8.1a2,2,0,0,1-2-2v-3.905a18.356,18.356,0,0,1-2.123-.88l-2.762,2.761a2,2,0,0,1-2.829,0l-5.726-5.727a2,2,0,0,1,0-2.828l2.761-2.762a18.387,18.387,0,0,1-.88-2.123h-3.9a2,2,0,0,1-2-2v-8.1a2,2,0,0,1,2-2h3.9a18.534,18.534,0,0,1,.88-2.123l-2.761-2.761a2,2,0,0,1,0-2.829l5.727-5.726a2,2,0,0,1,2.828,0l2.762,2.761a18.534,18.534,0,0,1,2.123-.88V95.854a2,2,0,0,1,2-2h8.1a2,2,0,0,1,2,2v3.905a18.534,18.534,0,0,1,2.123.88l2.762-2.761a2,2,0,0,1,2.828,0l5.727,5.726a2,2,0,0,1,0,2.829l-2.761,2.761a18.534,18.534,0,0,1,.88,2.123h3.9a2,2,0,0,1,2,2v8.1a2,2,0,0,1-2,2h-3.9a18.387,18.387,0,0,1-.88,2.123l2.761,2.762A2,2,0,0,1,155.99,131.129Z" fill="none"/>
    <path d="M136.5,122.931a5.564,5.564,0,1,0-5.564-5.564A5.571,5.571,0,0,0,136.5,122.931Z" fill="none"/>
    <path d="M62.955,126.585c16.552-4.472,29.618-16.035,34.715-30.717a25.363,25.363,0,0,0-2.513-5.713,2,2,0,0,1,.3-2.442l4.905-4.9-6.655-6.656L88.8,81.059a2,2,0,0,1-2.443.3,25.317,25.317,0,0,0-6.88-2.851,2,2,0,0,1-1.514-1.941V69.632H68.555v6.935a2,2,0,0,1-1.514,1.941,25.317,25.317,0,0,0-6.88,2.851,2,2,0,0,1-2.443-.3l-4.906-4.907-6.654,6.656,4.905,4.9a2,2,0,0,1,.3,2.442,25.339,25.339,0,0,0-2.852,6.881,2,2,0,0,1-1.94,1.514H39.637v9.411h6.935a2,2,0,0,1,1.94,1.514,25.339,25.339,0,0,0,2.852,6.881,2,2,0,0,1-.3,2.443l-4.905,4.9,6.654,6.655,4.906-4.906a2,2,0,0,1,2.443-.3A25.288,25.288,0,0,0,62.955,126.585Zm-4.221-23.329A14.526,14.526,0,1,1,73.26,117.782,14.542,14.542,0,0,1,58.734,103.256Z" fill="none"/>
    <path d="M177.84,151.48V59.5H167.634v81.826a9.649,9.649,0,0,1-9.65,9.65H22.16v.5a7.659,7.659,0,0,0,7.65,7.65H170.19A7.659,7.659,0,0,0,177.84,151.48Z" fill="#1085fd"/>
    <path d="M167.663,45.38V55.5H177.84V45.38a7.659,7.659,0,0,0-7.65-7.65h-6.31A9.623,9.623,0,0,1,167.663,45.38Z" fill="#1085fd"/>
    <path d="M170.19,33.73H29.81A11.663,11.663,0,0,0,18.16,45.38v106.1a11.663,11.663,0,0,0,11.65,11.65H170.19a11.663,11.663,0,0,0,11.65-11.65V45.38A11.663,11.663,0,0,0,170.19,33.73ZM22.16,45.38a7.659,7.659,0,0,1,7.65-7.65H170.19a7.659,7.659,0,0,1,7.65,7.65V55.5H22.16Zm7.65,113.75a7.659,7.659,0,0,1-7.65-7.65V59.5H177.84v91.98a7.659,7.659,0,0,1-7.65,7.65Z" fill="#060928"/>
    <path d="M157.518,47.974a4.873,4.873,0,0,1-.959-.1,2.985,2.985,0,0,0,5.693-1.259,2.947,2.947,0,0,0-.329-1.334A4.968,4.968,0,0,1,157.518,47.974Z" fill="#de2f5c"/>
    <path d="M140.19,47.974a4.808,4.808,0,0,1-.951-.1,2.98,2.98,0,1,0,5.36-2.6A4.969,4.969,0,0,1,140.19,47.974Z" fill="#de2f5c"/>
    <path d="M159.262,39.625a6.99,6.99,0,1,0,6.99,6.99A7,7,0,0,0,159.262,39.625Zm0,4a2.983,2.983,0,0,1,2.661,1.656,2.947,2.947,0,0,1,.329,1.334,2.985,2.985,0,0,1-5.693,1.259,2.955,2.955,0,0,1-.288-1.259A2.994,2.994,0,0,1,159.262,43.625Z" fill="#060928"/>
    <path d="M141.941,39.625a6.99,6.99,0,1,0,6.99,6.99A7,7,0,0,0,141.941,39.625Zm0,4a2.974,2.974,0,1,1-2.99,2.99A2.985,2.985,0,0,1,141.941,43.625Z" fill="#060928"/>
    <path d="M62.955,126.585A25.42,25.42,0,0,0,67.041,128a2,2,0,0,1,1.514,1.94v6.936h9.411v-6.936A2,2,0,0,1,79.48,128a25.351,25.351,0,0,0,6.88-2.852,2,2,0,0,1,2.443.3l4.905,4.906,6.655-6.655-4.905-4.9a2,2,0,0,1-.3-2.443,25.37,25.37,0,0,0,2.852-6.881,2,2,0,0,1,1.94-1.514h6.935V98.55H99.949a2,2,0,0,1-1.94-1.514c-.1-.394-.222-.78-.339-1.168C92.573,110.55,79.507,122.113,62.955,126.585Z" fill="#de2f5c"/>
    <path d="M108.884,94.55h-7.418a29.274,29.274,0,0,0-2.107-5.082l5.246-5.246a2,2,0,0,0,0-2.828L95.123,71.91a2.06,2.06,0,0,0-2.829,0l-5.246,5.247a29.274,29.274,0,0,0-5.082-2.107V67.632a2,2,0,0,0-2-2H66.555a2,2,0,0,0-2,2V75.05a29.21,29.21,0,0,0-5.082,2.107L54.226,71.91a2.058,2.058,0,0,0-2.828,0l-9.483,9.484a2,2,0,0,0,0,2.828l5.246,5.246a29.431,29.431,0,0,0-2.107,5.082H37.637a2,2,0,0,0-2,2v13.411a2,2,0,0,0,2,2h7.417a29.362,29.362,0,0,0,2.107,5.083l-5.246,5.246a2,2,0,0,0,0,2.828L51.4,134.6a2.058,2.058,0,0,0,2.828,0l5.247-5.248a29.137,29.137,0,0,0,5.082,2.108v7.418a2,2,0,0,0,2,2H79.966a2,2,0,0,0,2-2v-7.418a29.2,29.2,0,0,0,5.082-2.108l5.246,5.248a2.06,2.06,0,0,0,2.829,0l9.482-9.484a2,2,0,0,0,0-2.828l-5.246-5.246a29.284,29.284,0,0,0,2.107-5.083h7.418a2,2,0,0,0,2-2V96.55A2,2,0,0,0,108.884,94.55Zm-51.166,30.9-4.906,4.906L46.158,123.7l4.905-4.9a2,2,0,0,0,.3-2.443,25.339,25.339,0,0,1-2.852-6.881,2,2,0,0,0-1.94-1.514H39.637V98.55h6.935a2,2,0,0,0,1.94-1.514,25.339,25.339,0,0,1,2.852-6.881,2,2,0,0,0-.3-2.442l-4.905-4.9,6.654-6.656,4.906,4.907a2,2,0,0,0,2.443.3,25.317,25.317,0,0,1,6.88-2.851,2,2,0,0,0,1.514-1.941V69.632h9.411v6.935a2,2,0,0,0,1.514,1.941,25.317,25.317,0,0,1,6.88,2.851,2,2,0,0,0,2.443-.3l4.905-4.907,6.655,6.656-4.905,4.9a2,2,0,0,0-.3,2.442,25.363,25.363,0,0,1,2.513,5.713c.117.388.24.774.339,1.168a2,2,0,0,0,1.94,1.514h6.935v9.411H99.949a2,2,0,0,0-1.94,1.514,25.37,25.37,0,0,1-2.852,6.881,2,2,0,0,0,.3,2.443l4.905,4.9-6.655,6.655L88.8,125.453a2,2,0,0,0-2.443-.3A25.351,25.351,0,0,1,79.48,128a2,2,0,0,0-1.514,1.94v6.936H68.555v-6.936A2,2,0,0,0,67.041,128a26.753,26.753,0,0,1-6.88-2.852A2,2,0,0,0,57.718,125.453Z" fill="#060928"/>
    <path d="M73.26,117.782a14.526,14.526,0,1,0-14.526-14.526A14.542,14.542,0,0,0,73.26,117.782Zm0-25.052a10.526,10.526,0,1,1-10.526,10.526A10.538,10.538,0,0,1,73.26,92.73Z" fill="#060928"/>
    <path d="M131.49,131.089a14.449,14.449,0,0,0,1.447.454,2,2,0,0,1,1.514,1.94v3.4h4.1v-3.4a2,2,0,0,1,1.514-1.94,14.51,14.51,0,0,0,3.94-1.632,2,2,0,0,1,2.443.3l2.4,2.4,2.9-2.9-2.4-2.4a2,2,0,0,1-.3-2.444,14.509,14.509,0,0,0,1.634-3.939,2,2,0,0,1,1.94-1.514h3.4v-4.1h-3.4a2,2,0,0,1-1.84-1.222C147.571,122.035,140.459,128.305,131.49,131.089Z" fill="#1085fd"/>
    <path d="M153.229,125.539a18.387,18.387,0,0,0,.88-2.123h3.9a2,2,0,0,0,2-2v-8.1a2,2,0,0,0-2-2h-3.9a18.534,18.534,0,0,0-.88-2.123l2.761-2.761a2,2,0,0,0,0-2.829l-5.727-5.726a2,2,0,0,0-2.828,0l-2.762,2.761a18.534,18.534,0,0,0-2.123-.88V95.854a2,2,0,0,0-2-2h-8.1a2,2,0,0,0-2,2v3.905a18.534,18.534,0,0,0-2.123.88l-2.762-2.761a2,2,0,0,0-2.828,0l-5.727,5.726a2,2,0,0,0,0,2.829l2.761,2.761a18.534,18.534,0,0,0-.88,2.123h-3.9a2,2,0,0,0-2,2v8.1a2,2,0,0,0,2,2h3.9a18.387,18.387,0,0,0,.88,2.123l-2.761,2.762a2,2,0,0,0,0,2.828l5.726,5.727a2,2,0,0,0,2.829,0l2.762-2.761a18.356,18.356,0,0,0,2.123.88v3.905a2,2,0,0,0,2,2h8.1a2,2,0,0,0,2-2v-3.905a18.356,18.356,0,0,0,2.123-.88l2.762,2.761a2.061,2.061,0,0,0,2.829,0l5.726-5.727a2,2,0,0,0,0-2.828Zm-26.675,4.673-2.4,2.4-2.9-2.9,2.4-2.4a2,2,0,0,0,.3-2.444,14.475,14.475,0,0,1-1.633-3.939,2,2,0,0,0-1.94-1.514h-3.4v-4.1h3.4a2,2,0,0,0,1.94-1.513,14.481,14.481,0,0,1,1.633-3.94,2,2,0,0,0-.3-2.443l-2.4-2.4,2.9-2.9,2.4,2.4a2,2,0,0,0,2.442.3,14.566,14.566,0,0,1,3.941-1.633,2,2,0,0,0,1.514-1.94v-3.4h4.1v3.4a2,2,0,0,0,1.514,1.94,14.534,14.534,0,0,1,3.941,1.633,2,2,0,0,0,2.442-.3l2.4-2.4,2.9,2.9-2.4,2.4a2,2,0,0,0-.3,2.443,14.481,14.481,0,0,1,1.633,3.94,2.037,2.037,0,0,0,.1.291,2,2,0,0,0,1.84,1.222h3.4v4.1h-3.4a2,2,0,0,0-1.94,1.514,14.509,14.509,0,0,1-1.634,3.939,2,2,0,0,0,.3,2.444l2.4,2.4-2.9,2.9-2.4-2.4a2,2,0,0,0-2.443-.3,14.51,14.51,0,0,1-3.94,1.632,2,2,0,0,0-1.514,1.94v3.4h-4.1v-3.4a2,2,0,0,0-1.514-1.94,15.568,15.568,0,0,1-3.94-1.632A2,2,0,0,0,126.554,130.212Z" fill="#060928"/>
    <path d="M136.5,126.931a9.564,9.564,0,1,0-9.564-9.564A9.575,9.575,0,0,0,136.5,126.931Zm0-15.128a5.564,5.564,0,1,1-5.564,5.564A5.571,5.571,0,0,1,136.5,111.8Z" fill="#060928"/>
  </g>
</svg>
