<svg xmlns="http://www.w3.org/2000/svg" width="200" height="200" viewBox="0 0 200 200">
  <title>icons</title>
  <g>
    <polygon points="150.875 42.195 131.51 22.831 131.686 42.195 150.875 42.195" fill="none"/>
    <path d="M143.561,55.008l7.4,7.4a1.98,1.98,0,0,1,.313.423c.022.039.042.076.062.116a2.038,2.038,0,0,1,.172.484v0a2,2,0,0,1,.038.386V165.527h10.971V55.008Z" fill="none"/>
    <path d="M114.862,26.806l.022,0a1.978,1.978,0,0,1,.484.171c.04.019.078.04.116.062a1.939,1.939,0,0,1,.425.314L127.657,39.1l-.174-19.146H52.455V26.77H114.5A2.038,2.038,0,0,1,114.862,26.806Z" fill="none"/>
    <polygon points="131.694 43.141 139.561 51.008 159.687 51.008 150.875 42.195 131.686 42.195 131.694 43.141" fill="#de2f5c"/>
    <path d="M147.545,65.82H136.462v69.2a32.5,32.5,0,0,1-32.5,32.5H37.484v8.813H147.545Z" fill="#1085fd"/>
    <polygon points="144.716 61.82 135.904 53.008 116.715 53.008 116.795 61.82 144.716 61.82" fill="#de2f5c"/>
    <path d="M35.484,180.34H149.545a2,2,0,0,0,2-2v-8.813h12.971a2,2,0,0,0,2-2V53.008a1.982,1.982,0,0,0-.039-.386v-.005a2.03,2.03,0,0,0-.172-.485c-.02-.039-.04-.077-.062-.115a1.98,1.98,0,0,0-.313-.423L130.879,16.543a1.967,1.967,0,0,0-.425-.313c-.038-.022-.076-.043-.117-.063a2.005,2.005,0,0,0-.482-.171.245.245,0,0,0-.027,0,1.909,1.909,0,0,0-.363-.036H50.455a2,2,0,0,0-2,2V26.77H35.484a2,2,0,0,0-2,2V178.34A2,2,0,0,0,35.484,180.34Zm2-12.813V30.77h75.029l.3,33.068a2,2,0,0,0,2,1.982h32.732V176.34H37.484ZM116.539,33.643,135.9,53.008h0l8.812,8.812H116.8l-.08-8.812ZM150.875,42.2l8.812,8.813H139.561l-7.867-7.867-.008-.946-.176-19.364Zm.67,123.332V63.82a2,2,0,0,0-.038-.386v0a2.038,2.038,0,0,0-.172-.484c-.02-.04-.04-.077-.062-.116a1.98,1.98,0,0,0-.313-.423l-7.4-7.4h18.955V165.527ZM52.455,19.958h75.028l.174,19.146L115.909,27.356a1.939,1.939,0,0,0-.425-.314c-.038-.022-.076-.043-.116-.062a1.978,1.978,0,0,0-.484-.171l-.022,0a2.038,2.038,0,0,0-.367-.036H52.455Z" fill="#060928"/>
    <path d="M77.628,118.876c4.279,0,6.617-2.536,6.617-6.975V97.319c0-4.439-2.338-6.975-6.617-6.975S71.01,92.88,71.01,97.319V111.9C71.01,116.34,73.348,118.876,77.628,118.876ZM75.369,97.041c0-1.981.871-2.734,2.259-2.734s2.259.753,2.259,2.734v15.138c0,1.981-.872,2.734-2.259,2.734s-2.259-.753-2.259-2.734Z" fill="#060928"/>
    <rect x="86.543" y="102.629" width="8.719" height="3.962" fill="#060928"/>
    <path d="M104.257,118.876c4.279,0,6.5-2.536,6.5-6.975V105.64c0-4.081-1.625-6.34-4.835-6.34a4.1,4.1,0,0,0-3.765,2.021h-.079l.357-6.618h7.608V90.741H98.551l-.793,15.494h4.121V106c0-1.981.872-2.734,2.259-2.734s2.258.753,2.258,2.734v6.221c0,1.982-.872,2.695-2.258,2.695s-2.259-.713-2.259-2.695v-2.5H97.758V111.9C97.758,116.34,99.977,118.876,104.257,118.876Z" fill="#060928"/>
    <path d="M67.208,135.083h50.614a2,2,0,0,0,0-4H67.208a2,2,0,0,0,0,4Z" fill="#060928"/>
    <path d="M67.208,146.325h50.614a2,2,0,0,0,0-4H67.208a2,2,0,0,0,0,4Z" fill="#060928"/>
  </g>
</svg>
