<svg xmlns="http://www.w3.org/2000/svg" width="200" height="200" viewBox="0 0 200 200">
  <title>icons</title>
  <g>
    <rect x="83.271" y="102.344" width="40.818" height="5.122" fill="none"/>
    <rect x="134.817" y="120.063" width="24.228" height="5.123" fill="none"/>
    <path d="M140.19,47.974a4.971,4.971,0,0,0,4.409-2.7,2.979,2.979,0,0,0-5.359,2.6A4.79,4.79,0,0,0,140.19,47.974Z" fill="none"/>
    <path d="M157.518,47.974a4.968,4.968,0,0,0,4.405-2.693,2.979,2.979,0,0,0-5.364,2.593A4.873,4.873,0,0,0,157.518,47.974Z" fill="none"/>
    <rect x="49.961" y="85.771" width="33.782" height="5.123" fill="none"/>
    <path d="M167.634,141.326V59.5H22.16v91.476H157.984A9.649,9.649,0,0,0,167.634,141.326ZM163.02,83.771v9.123a2,2,0,0,1-2,2H95.366a2,2,0,0,1-2-2V83.771a2,2,0,0,1,2-2H161.02A2,2,0,0,1,163.02,83.771Zm-2.477,16.573v9.122a2,2,0,0,1-2,2H135.306a2,2,0,0,1-2-2v-9.122a2,2,0,0,1,2-2h23.237A2,2,0,0,1,160.543,100.344Zm-34.454,11.122H81.271a2,2,0,0,1-2-2v-9.122a2,2,0,0,1,2-2h44.818a2,2,0,0,1,2,2v9.122A2,2,0,0,1,126.089,111.466Zm2,6.6v9.123a2,2,0,0,1-2,2H97.861a2,2,0,0,1-2-2v-9.123a2,2,0,0,1,2-2h28.228A2,2,0,0,1,128.089,118.063ZM47.961,98.344H71.2a2,2,0,0,1,2,2v9.122a2,2,0,0,1-2,2H47.961a2,2,0,0,1-2-2v-9.122A2,2,0,0,1,47.961,98.344Zm-2-5.45V83.771a2,2,0,0,1,2-2H85.743a2,2,0,0,1,2,2v9.123a2,2,0,0,1-2,2H47.961A2,2,0,0,1,45.961,92.894Zm2,23.169H90.089a2,2,0,0,1,2,2v9.123a2,2,0,0,1-2,2H47.961a2,2,0,0,1-2-2v-9.123A2,2,0,0,1,47.961,116.063ZM83.176,69.448h24.381a2,2,0,0,1,0,4H83.176a2,2,0,0,1,0-4Zm-51.76-2.561a2,2,0,0,1,2-2H71.2a2,2,0,0,1,2,2v9.122a2,2,0,0,1-2,2H33.416a2,2,0,0,1-2-2ZM73.2,144.476a2,2,0,0,1-2,2H33.416a2,2,0,0,1-2-2v-9.122a2,2,0,0,1,2-2H71.2a2,2,0,0,1,2,2Zm34.359-2.562H83.176a2,2,0,1,1,0-4h24.381a2,2,0,1,1,0,4Zm19.6,0H116.466a2,2,0,0,1,0-4h10.692a2,2,0,0,1,0,4Zm3.659-14.728v-9.123a2,2,0,0,1,2-2h28.228a2,2,0,0,1,2,2v9.123a2,2,0,0,1-2,2H132.817A2,2,0,0,1,130.817,127.186Zm14.163,14.728H134.287a2,2,0,0,1,0-4H144.98a2,2,0,1,1,0,4Z" fill="none"/>
    <path d="M167.663,45.38a9.623,9.623,0,0,0-3.783-7.65H29.81a7.659,7.659,0,0,0-7.65,7.65V55.5h145.5Zm-25.722,8.225a6.99,6.99,0,1,1,6.99-6.99A7,7,0,0,1,141.941,53.605Zm17.321,0a6.99,6.99,0,1,1,6.99-6.99A7,7,0,0,1,159.262,53.605Z" fill="none"/>
    <path d="M177.84,59.5H167.634v81.826a9.649,9.649,0,0,1-9.65,9.65H22.16v.5a7.659,7.659,0,0,0,7.65,7.65H170.19a7.659,7.659,0,0,0,7.65-7.65Z" fill="#1085fd"/>
    <path d="M167.663,45.38V55.5H177.84V45.38a7.659,7.659,0,0,0-7.65-7.65h-6.31A9.623,9.623,0,0,1,167.663,45.38Z" fill="#1085fd"/>
    <path d="M18.16,45.38v106.1a11.663,11.663,0,0,0,11.65,11.65H170.19a11.663,11.663,0,0,0,11.65-11.65V45.38a11.663,11.663,0,0,0-11.65-11.65H29.81A11.663,11.663,0,0,0,18.16,45.38Zm4,0a7.659,7.659,0,0,1,7.65-7.65H170.19a7.659,7.659,0,0,1,7.65,7.65V55.5H22.16ZM170.19,159.13H29.81a7.659,7.659,0,0,1-7.65-7.65V59.5H177.84v91.98A7.659,7.659,0,0,1,170.19,159.13Z" fill="#060928"/>
    <rect x="35.416" y="137.354" width="33.782" height="5.122" fill="#de2f5c"/>
    <path d="M157.518,47.974a4.873,4.873,0,0,1-.959-.1,2.985,2.985,0,0,0,5.693-1.259,2.947,2.947,0,0,0-.329-1.334A4.968,4.968,0,0,1,157.518,47.974Z" fill="#de2f5c"/>
    <path d="M140.19,47.974a4.79,4.79,0,0,1-.95-.1,2.984,2.984,0,0,0,5.691-1.261,2.955,2.955,0,0,0-.332-1.34A4.971,4.971,0,0,1,140.19,47.974Z" fill="#de2f5c"/>
    <path d="M159.262,39.625a6.99,6.99,0,1,0,6.99,6.99A7,7,0,0,0,159.262,39.625Zm0,4a2.984,2.984,0,0,1,2.661,1.656,2.947,2.947,0,0,1,.329,1.334,2.985,2.985,0,0,1-5.693,1.259,2.955,2.955,0,0,1-.288-1.259A2.994,2.994,0,0,1,159.262,43.625Z" fill="#060928"/>
    <path d="M141.941,39.625a6.99,6.99,0,1,0,6.99,6.99A7,7,0,0,0,141.941,39.625Zm0,4a2.972,2.972,0,1,1-2.99,2.99A2.983,2.983,0,0,1,141.941,43.625Z" fill="#060928"/>
    <rect x="35.416" y="68.887" width="33.782" height="5.122" fill="#de2f5c"/>
    <path d="M33.416,78.009H71.2a2,2,0,0,0,2-2V66.887a2,2,0,0,0-2-2H33.416a2,2,0,0,0-2,2v9.122A2,2,0,0,0,33.416,78.009Zm2-9.122H69.2v5.122H35.416Z" fill="#060928"/>
    <path d="M71.2,133.354H33.416a2,2,0,0,0-2,2v9.122a2,2,0,0,0,2,2H71.2a2,2,0,0,0,2-2v-9.122A2,2,0,0,0,71.2,133.354Zm-2,9.122H35.416v-5.122H69.2Z" fill="#060928"/>
    <rect x="49.961" y="102.344" width="19.237" height="5.122" fill="#de2f5c"/>
    <path d="M47.961,94.894H85.743a2,2,0,0,0,2-2V83.771a2,2,0,0,0-2-2H47.961a2,2,0,0,0-2,2v9.123A2,2,0,0,0,47.961,94.894Zm2-9.123H83.743v5.123H49.961Z" fill="#060928"/>
    <rect x="137.306" y="102.344" width="19.237" height="5.122" fill="#1085fd"/>
    <path d="M45.961,109.466a2,2,0,0,0,2,2H71.2a2,2,0,0,0,2-2v-9.122a2,2,0,0,0-2-2H47.961a2,2,0,0,0-2,2Zm4-7.122H69.2v5.122H49.961Z" fill="#060928"/>
    <path d="M135.306,98.344a2,2,0,0,0-2,2v9.122a2,2,0,0,0,2,2h23.237a2,2,0,0,0,2-2v-9.122a2,2,0,0,0-2-2Zm21.237,9.122H137.306v-5.122h19.237Z" fill="#060928"/>
    <rect x="97.366" y="85.771" width="61.653" height="5.123" fill="#1085fd"/>
    <path d="M93.366,83.771v9.123a2,2,0,0,0,2,2H161.02a2,2,0,0,0,2-2V83.771a2,2,0,0,0-2-2H95.366A2,2,0,0,0,93.366,83.771Zm4,2H159.02v5.123H97.366Z" fill="#060928"/>
    <rect x="49.961" y="120.063" width="38.128" height="5.123" fill="#1085fd"/>
    <path d="M128.089,100.344a2,2,0,0,0-2-2H81.271a2,2,0,0,0-2,2v9.122a2,2,0,0,0,2,2h44.818a2,2,0,0,0,2-2Zm-4,7.122H83.271v-5.122h40.818Z" fill="#060928"/>
    <path d="M45.961,127.186a2,2,0,0,0,2,2H90.089a2,2,0,0,0,2-2v-9.123a2,2,0,0,0-2-2H47.961a2,2,0,0,0-2,2Zm4-7.123H88.089v5.123H49.961Z" fill="#060928"/>
    <rect x="99.861" y="120.063" width="24.228" height="5.123" fill="#de2f5c"/>
    <path d="M126.089,116.063H97.861a2,2,0,0,0-2,2v9.123a2,2,0,0,0,2,2h28.228a2,2,0,0,0,2-2v-9.123A2,2,0,0,0,126.089,116.063Zm-2,9.123H99.861v-5.123h24.228Z" fill="#060928"/>
    <path d="M161.045,129.186a2,2,0,0,0,2-2v-9.123a2,2,0,0,0-2-2H132.817a2,2,0,0,0-2,2v9.123a2,2,0,0,0,2,2Zm-26.228-9.123h24.228v5.123H134.817Z" fill="#060928"/>
    <path d="M83.176,73.448h24.381a2,2,0,0,0,0-4H83.176a2,2,0,0,0,0,4Z" fill="#060928"/>
    <path d="M107.557,137.914H83.176a2,2,0,1,0,0,4h24.381a2,2,0,1,0,0-4Z" fill="#060928"/>
    <path d="M127.158,137.914H116.466a2,2,0,0,0,0,4h10.692a2,2,0,0,0,0-4Z" fill="#060928"/>
    <path d="M144.98,137.914H134.287a2,2,0,0,0,0,4H144.98a2,2,0,1,0,0-4Z" fill="#060928"/>
  </g>
</svg>
