<svg xmlns="http://www.w3.org/2000/svg" width="200" height="200" viewBox="0 0 200 200">
  <title>icons</title>
  <g>
    <path d="M74.571,95.3c10.018,6.53,26.93,9.519,33.985,1.9l29.219-29.611a31.315,31.315,0,0,1-3.835-15.053,31.645,31.645,0,0,1,.222-3.676H33.423a7.02,7.02,0,0,0-2.412.433Z" fill="none"/>
    <path d="M65.7,109.5a2,2,0,0,1,2.843,2.814l-25.8,26.065h95.671a21.387,21.387,0,0,0,15.142-6.257l-19.61-19.808a2,2,0,1,1,2.842-2.814l19.335,19.529a21.343,21.343,0,0,0,3.746-12.105V83.537a31.358,31.358,0,0,1-13.313-5.81l-29.8,32.193a22.829,22.829,0,0,1-16.791,7.394h-.136a22.821,22.821,0,0,1-16.738-7.2L27.777,51.692a7.024,7.024,0,0,0-1.423,4.236v82.454H37.1Z" fill="none"/>
    <path d="M173.646,82.956a31.275,31.275,0,0,1-13.786.581v33.39a21.343,21.343,0,0,1-3.746,12.105L166.872,139.9a2,2,0,1,1-2.843,2.815l-10.482-10.587a21.387,21.387,0,0,1-15.142,6.257H42.734l-4.287,4.33A2,2,0,0,1,35.6,139.9l1.5-1.515H26.354v5.69a7.077,7.077,0,0,0,7.069,7.07H166.577a7.077,7.077,0,0,0,7.069-7.07Z" fill="#1085fd"/>
    <path d="M74.571,95.3l11.416,12.058a18.868,18.868,0,0,0,13.835,5.955h.112a18.872,18.872,0,0,0,13.879-6.111l29.7-32.083a31.716,31.716,0,0,1-5.735-7.533L108.556,97.2C101.5,104.82,84.589,101.831,74.571,95.3Z" fill="#de2f5c"/>
    <path d="M68.525,109.489a2,2,0,0,0-2.829.014L37.1,138.382,35.6,139.9a2,2,0,1,0,2.843,2.815l4.287-4.33,25.805-26.065A2,2,0,0,0,68.525,109.489Z" fill="#060928"/>
    <path d="M133.951,109.489a2,2,0,0,0-.014,2.828l19.61,19.808,10.482,10.587a2,2,0,0,0,2.843-2.815l-10.758-10.865L136.779,109.5A2,2,0,0,0,133.951,109.489Z" fill="#060928"/>
    <path d="M165.45,21.024a31.564,31.564,0,0,0-30.56,23.834H33.423a11.082,11.082,0,0,0-11.069,11.07v88.144a11.082,11.082,0,0,0,11.069,11.07H166.577a11.082,11.082,0,0,0,11.069-11.07V81.587a31.509,31.509,0,0,0-12.2-60.563Zm1.127,130.118H33.423a7.077,7.077,0,0,1-7.069-7.07V55.928a7.024,7.024,0,0,1,1.423-4.236l55.306,58.417a22.821,22.821,0,0,0,16.738,7.2h.136a22.829,22.829,0,0,0,16.791-7.394l29.8-32.193a31.434,31.434,0,0,0,27.1,5.229v61.116A7.077,7.077,0,0,1,166.577,151.142Zm-1.127-71.1a27.51,27.51,0,1,1,27.51-27.51A27.541,27.541,0,0,1,165.45,80.044ZM134.162,48.858a31.645,31.645,0,0,0-.222,3.676,31.315,31.315,0,0,0,3.835,15.053,31.716,31.716,0,0,0,5.735,7.533l-29.7,32.083a18.872,18.872,0,0,1-13.879,6.111h-.112a18.868,18.868,0,0,1-13.835-5.955L74.571,95.3l-43.56-46.01a7.02,7.02,0,0,1,2.412-.433Z" fill="#060928"/>
    <path d="M174.863,64.14a2.228,2.228,0,0,0,3.148,0l.526-.526a2.228,2.228,0,0,0,0-3.147l-6.516-6.517a2,2,0,0,1,0-2.828l6.517-6.517a2.229,2.229,0,0,0,0-3.148l-.526-.526a2.228,2.228,0,0,0-3.147,0l-6.517,6.517a2,2,0,0,1-2.829,0L159,40.93a2.226,2.226,0,0,0-3.146,0l-.527.526a2.229,2.229,0,0,0,0,3.148l6.516,6.516a2,2,0,0,1,0,2.828l-6.517,6.518a2.228,2.228,0,0,0,0,3.147l.526.527a2.228,2.228,0,0,0,3.147,0l6.517-6.517a2,2,0,0,1,2.829,0Z" fill="#de2f5c"/>
    <path d="M180.838,66.968l.527-.527a6.232,6.232,0,0,0,0-8.8l-5.1-5.1,5.1-5.1a6.233,6.233,0,0,0,0-8.8l-.527-.526a6.232,6.232,0,0,0-8.8,0h0l-5.1,5.1-5.1-5.1a6.235,6.235,0,0,0-8.8,0l-.526.526a6.233,6.233,0,0,0,0,8.8l5.1,5.1-5.1,5.1a6.232,6.232,0,0,0,0,8.8l.526.527a6.234,6.234,0,0,0,8.8,0l5.1-5.1,5.1,5.1A6.235,6.235,0,0,0,180.838,66.968Zm-13.906-9.932a2,2,0,0,0-1.414.586L159,64.139a2.228,2.228,0,0,1-3.147,0l-.526-.527a2.228,2.228,0,0,1,0-3.147l6.517-6.518a2,2,0,0,0,0-2.828L155.328,44.6a2.229,2.229,0,0,1,0-3.148l.527-.526a2.226,2.226,0,0,1,3.146,0l6.517,6.517a2,2,0,0,0,2.829,0l6.517-6.517a2.228,2.228,0,0,1,3.147,0l.526.526a2.229,2.229,0,0,1,0,3.148l-6.517,6.517a2,2,0,0,0,0,2.828l6.516,6.517a2.228,2.228,0,0,1,0,3.147l-.526.526a2.228,2.228,0,0,1-3.148,0l-6.516-6.518A2,2,0,0,0,166.932,57.036Z" fill="#060928"/>
  </g>
</svg>
