<svg xmlns="http://www.w3.org/2000/svg" width="200" height="200" viewBox="0 0 200 200">
  <title>icons</title>
  <g>
    <path d="M98.019,163.952H59.2a2,2,0,0,1,0-4H108.97c7.679-3,14.491-6.154,19.233-9.286h-69a2,2,0,0,1,0-4H133.06c.092-.1.191-.2.277-.307C158.189,116.7,154.713,52.6,153.9,30.766H49.792V176.339h6.075C65.522,173.872,82.346,169.337,98.019,163.952Zm6.8-26.573a34.317,34.317,0,1,1,34.317-34.316A34.355,34.355,0,0,1,104.822,137.379Zm12.831-97.785H149.02a2,2,0,0,1,0,4H117.653a2,2,0,0,1,0-4ZM59.2,51.238H149.02a2,2,0,0,1,0,4H59.2a2,2,0,0,1,0-4Z" fill="none"/>
    <path d="M93.772,125.059a32.306,32.306,0,0,0,29.116-46.326A30.3,30.3,0,0,0,81.8,122.751,32.141,32.141,0,0,0,93.772,125.059Zm2.277-32.316a2,2,0,0,1,3.01-1.727l21.03,12.3a2,2,0,0,1,0,3.453l-21.03,12.3a2,2,0,0,1-3.01-1.727Z" fill="none"/>
    <path d="M133.337,146.359c-.086.1-.185.2-.277.307h15.96a2,2,0,1,1,0,4H128.2c-4.742,3.132-11.554,6.285-19.233,9.286h40.05a2,2,0,0,1,0,4h-51c-15.673,5.385-32.5,9.92-42.152,12.387H159.852V30.766H153.9C154.713,52.6,158.189,116.7,133.337,146.359Z" fill="#1085fd"/>
    <path d="M47.792,180.339h114.06a2,2,0,0,0,2-2V28.766a2,2,0,0,0-2-2H47.792a2,2,0,0,0-2,2V178.339A2,2,0,0,0,47.792,180.339Zm2-149.573h110.06V176.339H49.792Z" fill="#060928"/>
    <path d="M93.772,125.059A32.141,32.141,0,0,1,81.8,122.751a30.3,30.3,0,1,0,41.092-44.018,32.306,32.306,0,0,1-29.116,46.326Z" fill="#de2f5c"/>
    <polygon points="100.049 96.229 100.049 113.85 115.117 105.04 100.049 96.229" fill="#1085fd"/>
    <path d="M104.822,68.746a34.317,34.317,0,1,0,34.317,34.317A34.355,34.355,0,0,0,104.822,68.746Zm0,4a30.293,30.293,0,1,1-30.317,30.317A30.156,30.156,0,0,1,104.822,72.746Z" fill="#060928"/>
    <path d="M97.054,119.071a2,2,0,0,0,2-.008l21.03-12.3a2,2,0,0,0,0-3.453l-21.03-12.3a2,2,0,0,0-3.01,1.727v24.593A2,2,0,0,0,97.054,119.071Zm3-22.842,15.068,8.811-15.068,8.81Z" fill="#060928"/>
    <path d="M117.653,43.594H149.02a2,2,0,0,0,0-4H117.653a2,2,0,0,0,0,4Z" fill="#060928"/>
    <path d="M59.2,55.238H149.02a2,2,0,0,0,0-4H59.2a2,2,0,0,0,0,4Z" fill="#060928"/>
    <path d="M151.02,148.666a2,2,0,0,0-2-2H59.2a2,2,0,0,0,0,4H149.02A2,2,0,0,0,151.02,148.666Z" fill="#060928"/>
    <path d="M151.02,161.952a2,2,0,0,0-2-2H59.2a2,2,0,0,0,0,4H149.02A2,2,0,0,0,151.02,161.952Z" fill="#060928"/>
  </g>
</svg>
