<svg xmlns="http://www.w3.org/2000/svg" width="200" height="200" viewBox="0 0 200 200">
  <title>icons</title>
  <g>
    <path d="M138.285,36.26V30.852a7.2,7.2,0,0,0-7.191-7.191H130.3v12.6Z" fill="#1085fd"/>
    <path d="M68.906,174.661h62.188a7.2,7.2,0,0,0,7.191-7.191V153.25H130.3v.515a9.19,9.19,0,0,1-9.191,9.19H109.436c0,.128.02.254.02.384a9.456,9.456,0,0,1-18.912,0c0-.13.015-.256.02-.384H61.715v4.515A7.2,7.2,0,0,0,68.906,174.661Z" fill="#1085fd"/>
    <rect x="130.302" y="40.26" width="7.983" height="108.99" fill="#1085fd"/>
    <path d="M142.285,167.47V30.852a11.2,11.2,0,0,0-11.191-11.191H68.906A11.2,11.2,0,0,0,57.715,30.852V167.47a11.2,11.2,0,0,0,11.191,11.191h62.188A11.2,11.2,0,0,0,142.285,167.47Zm-80.57-4.515V153.25h76.57v14.22a7.2,7.2,0,0,1-7.191,7.191H68.906a7.2,7.2,0,0,1-7.191-7.191ZM68.906,23.661H80.8v1.607A8.942,8.942,0,0,0,89.731,34.2h20.538a8.942,8.942,0,0,0,8.931-8.932V23.661h11.894a7.2,7.2,0,0,1,7.191,7.191V36.26H61.715V30.852A7.2,7.2,0,0,1,68.906,23.661Zm15.894.5h30.4v1.107a4.937,4.937,0,0,1-4.931,4.932H89.731A4.937,4.937,0,0,1,84.8,25.268ZM61.715,40.26h76.57V149.25H61.715Z" fill="#060928"/>
    <path d="M101.345,30.2h8.924a4.937,4.937,0,0,0,4.931-4.932V24.161h-7.7v1.375C107.493,27.706,104.833,29.191,101.345,30.2Z" fill="#de2f5c"/>
    <path d="M103.34,159.035a7.45,7.45,0,0,1-7.439,7.126c-.2,0-.388-.016-.58-.031a5.45,5.45,0,1,0,8.019-7.095Z" fill="#de2f5c"/>
    <path d="M100,153.884a9.458,9.458,0,0,0-9.436,9.071c0,.128-.02.254-.02.384a9.456,9.456,0,0,0,18.912,0c0-.13-.015-.256-.02-.384A9.458,9.458,0,0,0,100,153.884Zm5.456,9.455a5.474,5.474,0,1,1-2.116-4.3A5.462,5.462,0,0,1,105.456,163.339Z" fill="#060928"/>
  </g>
</svg>
