<svg xmlns="http://www.w3.org/2000/svg" width="200" height="200" viewBox="0 0 200 200">
  <title>icons</title>
  <g>
    <path d="M45.311,91.982h95.44a9.866,9.866,0,0,0,9.866-9.867V69.3a7.819,7.819,0,0,0-2.9-.56H52.28a7.875,7.875,0,0,0-7.866,7.867V89.434a7.812,7.812,0,0,0,.419,2.514C44.993,91.957,45.149,91.982,45.311,91.982ZM138.9,76.122a6.637,6.637,0,1,1-6.636,6.637A6.644,6.644,0,0,1,138.9,76.122Zm-17.4,0a6.637,6.637,0,1,1-6.637,6.637A6.644,6.644,0,0,1,121.505,76.122Zm-65.991,4.9h47.392a2,2,0,0,1,0,4H55.514a2,2,0,1,1,0-4Z" fill="none"/>
    <path d="M45.311,58.885h95.44a9.867,9.867,0,0,0,9.866-9.867V36.205a7.8,7.8,0,0,0-2.9-.56H52.28a7.874,7.874,0,0,0-7.866,7.866V56.336a7.818,7.818,0,0,0,.419,2.515C44.993,58.859,45.149,58.885,45.311,58.885ZM138.9,43.025a6.637,6.637,0,1,1-6.636,6.637A6.644,6.644,0,0,1,138.9,43.025Zm-17.4,0a6.637,6.637,0,1,1-6.637,6.637A6.644,6.644,0,0,1,121.505,43.025Zm-65.991,4.9h47.392a2,2,0,0,1,0,4H55.514a2,2,0,0,1,0-4Z" fill="none"/>
    <path d="M45.311,125.94h95.44a9.867,9.867,0,0,0,9.866-9.867V103.26a7.8,7.8,0,0,0-2.9-.56H52.28a7.875,7.875,0,0,0-7.866,7.866v12.825a7.818,7.818,0,0,0,.419,2.515C44.993,125.914,45.149,125.94,45.311,125.94ZM138.9,110.08a6.637,6.637,0,1,1-6.636,6.636A6.644,6.644,0,0,1,138.9,110.08Zm-17.4,0a6.637,6.637,0,1,1-6.637,6.636A6.644,6.644,0,0,1,121.505,110.08Zm-65.991,4.9h47.392a2,2,0,0,1,0,4H55.514a2,2,0,1,1,0-4Z" fill="none"/>
    <path d="M45.311,159.038h95.44a9.867,9.867,0,0,0,9.866-9.867V136.357a7.819,7.819,0,0,0-2.9-.56H52.28a7.875,7.875,0,0,0-7.866,7.867v12.825A7.812,7.812,0,0,0,44.833,159C44.993,159.011,45.149,159.038,45.311,159.038ZM138.9,143.177a6.637,6.637,0,1,1-6.636,6.637A6.644,6.644,0,0,1,138.9,143.177Zm-17.4,0a6.637,6.637,0,1,1-6.637,6.637A6.644,6.644,0,0,1,121.505,143.177Zm-65.991,4.9h47.392a2,2,0,0,1,0,4H55.514a2,2,0,0,1,0-4Z" fill="none"/>
    <path d="M140.751,58.885H45.311c-.162,0-.318-.026-.478-.034A7.874,7.874,0,0,0,52.28,64.2h95.44a7.875,7.875,0,0,0,7.866-7.867V43.511a7.871,7.871,0,0,0-4.969-7.306V49.018A9.867,9.867,0,0,1,140.751,58.885Z" fill="#1085fd"/>
    <path d="M159.586,56.336V43.511A11.879,11.879,0,0,0,147.72,31.645H52.28A11.879,11.879,0,0,0,40.414,43.511V56.336a11.858,11.858,0,0,0,5.728,10.136,11.861,11.861,0,0,0-5.728,10.137V89.434A11.869,11.869,0,0,0,46.906,100a11.869,11.869,0,0,0-6.492,10.566v12.825a11.861,11.861,0,0,0,5.728,10.137,11.858,11.858,0,0,0-5.728,10.136v12.825A11.879,11.879,0,0,0,52.28,168.355h95.44a11.879,11.879,0,0,0,11.866-11.866V143.664a11.858,11.858,0,0,0-5.728-10.136,11.861,11.861,0,0,0,5.728-10.137V110.566A11.869,11.869,0,0,0,153.094,100a11.869,11.869,0,0,0,6.492-10.566V76.609a11.861,11.861,0,0,0-5.728-10.137A11.858,11.858,0,0,0,159.586,56.336ZM44.414,43.511a7.874,7.874,0,0,1,7.866-7.866h95.44a7.888,7.888,0,0,1,7.866,7.866V56.336A7.875,7.875,0,0,1,147.72,64.2H52.28a7.889,7.889,0,0,1-7.866-7.867Zm0,33.1a7.875,7.875,0,0,1,7.866-7.867h95.44a7.888,7.888,0,0,1,7.866,7.867V89.434A7.875,7.875,0,0,1,147.72,97.3H52.28a7.889,7.889,0,0,1-7.866-7.866Zm0,33.957A7.875,7.875,0,0,1,52.28,102.7h95.44a7.888,7.888,0,0,1,7.866,7.866v12.825a7.875,7.875,0,0,1-7.866,7.867H52.28a7.889,7.889,0,0,1-7.866-7.867Zm0,33.1A7.875,7.875,0,0,1,52.28,135.8h95.44a7.888,7.888,0,0,1,7.866,7.867v12.825a7.874,7.874,0,0,1-7.866,7.866H52.28a7.889,7.889,0,0,1-7.866-7.866Z" fill="#060928"/>
    <path d="M55.514,51.924h47.392a2,2,0,0,0,0-4H55.514a2,2,0,0,0,0,4Z" fill="#060928"/>
    <path d="M121.505,52.3a2.637,2.637,0,1,0-2.637-2.636A2.64,2.64,0,0,0,121.505,52.3Z" fill="#de2f5c"/>
    <path d="M138.9,52.3a2.637,2.637,0,1,0-2.636-2.636A2.64,2.64,0,0,0,138.9,52.3Z" fill="#de2f5c"/>
    <path d="M121.505,56.3a6.637,6.637,0,1,0-6.637-6.636A6.644,6.644,0,0,0,121.505,56.3Zm0-9.273a2.637,2.637,0,1,1-2.637,2.637A2.64,2.64,0,0,1,121.505,47.025Z" fill="#060928"/>
    <path d="M138.9,56.3a6.637,6.637,0,1,0-6.636-6.636A6.644,6.644,0,0,0,138.9,56.3Zm0-9.273a2.637,2.637,0,1,1-2.636,2.637A2.64,2.64,0,0,1,138.9,47.025Z" fill="#060928"/>
    <path d="M140.751,91.982H45.311c-.162,0-.318-.025-.478-.034A7.874,7.874,0,0,0,52.28,97.3h95.44a7.875,7.875,0,0,0,7.866-7.866V76.609a7.874,7.874,0,0,0-4.969-7.307V82.115A9.866,9.866,0,0,1,140.751,91.982Z" fill="#1085fd"/>
    <path d="M55.514,85.021h47.392a2,2,0,0,0,0-4H55.514a2,2,0,1,0,0,4Z" fill="#060928"/>
    <circle cx="121.505" cy="82.759" r="2.637" fill="#de2f5c"/>
    <circle cx="138.903" cy="82.759" r="2.637" fill="#de2f5c"/>
    <path d="M121.505,89.4a6.637,6.637,0,1,0-6.637-6.637A6.645,6.645,0,0,0,121.505,89.4Zm0-9.274a2.637,2.637,0,1,1-2.637,2.637A2.64,2.64,0,0,1,121.505,80.122Z" fill="#060928"/>
    <path d="M138.9,89.4a6.637,6.637,0,1,0-6.636-6.637A6.645,6.645,0,0,0,138.9,89.4Zm0-9.274a2.637,2.637,0,1,1-2.636,2.637A2.64,2.64,0,0,1,138.9,80.122Z" fill="#060928"/>
    <path d="M140.751,125.94H45.311c-.162,0-.318-.026-.478-.034a7.874,7.874,0,0,0,7.447,5.352h95.44a7.875,7.875,0,0,0,7.866-7.867V110.566a7.872,7.872,0,0,0-4.969-7.306v12.813A9.867,9.867,0,0,1,140.751,125.94Z" fill="#1085fd"/>
    <path d="M55.514,118.979h47.392a2,2,0,0,0,0-4H55.514a2,2,0,1,0,0,4Z" fill="#060928"/>
    <path d="M121.505,119.353a2.637,2.637,0,1,0-2.637-2.637A2.64,2.64,0,0,0,121.505,119.353Z" fill="#de2f5c"/>
    <path d="M138.9,119.353a2.637,2.637,0,1,0-2.636-2.637A2.64,2.64,0,0,0,138.9,119.353Z" fill="#de2f5c"/>
    <path d="M121.505,123.353a6.637,6.637,0,1,0-6.637-6.637A6.644,6.644,0,0,0,121.505,123.353Zm0-9.273a2.637,2.637,0,1,1-2.637,2.636A2.64,2.64,0,0,1,121.505,114.08Z" fill="#060928"/>
    <path d="M138.9,123.353a6.637,6.637,0,1,0-6.636-6.637A6.644,6.644,0,0,0,138.9,123.353Zm0-9.273a2.637,2.637,0,1,1-2.636,2.636A2.64,2.64,0,0,1,138.9,114.08Z" fill="#060928"/>
    <path d="M140.751,159.038H45.311c-.162,0-.318-.027-.478-.035a7.874,7.874,0,0,0,7.447,5.352h95.44a7.874,7.874,0,0,0,7.866-7.866V143.664a7.874,7.874,0,0,0-4.969-7.307v12.814A9.867,9.867,0,0,1,140.751,159.038Z" fill="#1085fd"/>
    <path d="M55.514,152.076h47.392a2,2,0,0,0,0-4H55.514a2,2,0,0,0,0,4Z" fill="#060928"/>
    <circle cx="121.505" cy="149.814" r="2.637" fill="#de2f5c"/>
    <circle cx="138.903" cy="149.814" r="2.637" fill="#de2f5c"/>
    <path d="M121.505,156.451a6.637,6.637,0,1,0-6.637-6.637A6.644,6.644,0,0,0,121.505,156.451Zm0-9.274a2.637,2.637,0,1,1-2.637,2.637A2.64,2.64,0,0,1,121.505,147.177Z" fill="#060928"/>
    <path d="M138.9,156.451a6.637,6.637,0,1,0-6.636-6.637A6.644,6.644,0,0,0,138.9,156.451Zm0-9.274a2.637,2.637,0,1,1-2.636,2.637A2.64,2.64,0,0,1,138.9,147.177Z" fill="#060928"/>
  </g>
</svg>
