<svg xmlns="http://www.w3.org/2000/svg" width="200" height="200" viewBox="0 0 200 200">
  <title>icons</title>
  <g>
    <rect x="57.604" y="127.63" width="2.316" height="42.976" fill="none"/>
    <path d="M59.919,37.571v-4.5h0a9.981,9.981,0,0,1-2.315-.28v4.784Z" fill="none"/>
    <path d="M62.234,37.571V32.787a9.981,9.981,0,0,1-2.315.28v4.5Z" fill="#1085fd"/>
    <rect x="59.919" y="127.63" width="2.315" height="42.976" fill="#1085fd"/>
    <path d="M32.066,170.605a2,2,0,0,0,0,4H152.9a2,2,0,0,0,0-4H66.234V127.63h29v5.987a2,2,0,0,0,2,2h43.321a2,2,0,0,0,1.757-2.956l-9.5-17.463,7.811-14.354h27.31a2,2,0,0,0,1.757-2.956l-12.734-23.4,12.734-23.4a2,2,0,0,0-1.757-2.956H131.909V39.571a2,2,0,0,0-2-2H66.234V30.82a10.03,10.03,0,1,0-12.63,0V170.605Zm96.7-54.451,8.416,15.463H99.231V127.63H111.8a2,2,0,0,0,1.931-1.507,1.956,1.956,0,0,0,.069-.493V98.779h23.386l-8.416,15.463A2,2,0,0,0,128.771,116.154Zm-71.159,1.579V90.792H109.8V123.63H57.612Zm95.3-44.2a2,2,0,0,0,0,1.912l11.646,21.4H142.54a1.977,1.977,0,0,0-.269-1.087,2,2,0,0,0-1.719-.978H113.8v-4.5h16.108a2.031,2.031,0,0,0,2-2V52.132h32.653ZM127.909,41.571V86.283h-70.3V41.571h70.3ZM59.919,17.006a6.026,6.026,0,1,1-6.03,6.031A5.993,5.993,0,0,1,59.919,17.006Zm0,16.061h0a9.981,9.981,0,0,0,2.315-.28v4.784H57.6V32.787A9.981,9.981,0,0,0,59.919,33.067ZM57.6,127.63h4.63v42.975H57.6Z" fill="#060928"/>
    <path d="M144.01,56.376a21.438,21.438,0,0,0-1.5,17.072l1.94,5.784a7.362,7.362,0,0,1-6.98,9.7h-5.679a1.994,1.994,0,0,1-1.882,1.348H113.8v4.5h26.751a2,2,0,0,1,1.719.978,1.977,1.977,0,0,1,.269,1.087h22.022l-11.646-21.4a2,2,0,0,1,0-1.912l11.646-21.4H146.323Z" fill="#de2f5c"/>
    <path d="M117.074,66.206a11.635,11.635,0,0,1-11.635,11.635H57.608v8.442h70.3V41.571H117.074Z" fill="#1085fd"/>
    <path d="M91.546,69.633h4.433v-.071l.709,4.928h3.9L96.546,49.669H91.263L87.22,74.49h3.617ZM93.71,54h.071l1.737,12.269H92.007Z" fill="#060928"/>
    <path d="M55.609,26.466c-.227,0-.449-.017-.671-.036a6.026,6.026,0,1,0,8.7-8.135c0,.047.006.093.006.14A8.03,8.03,0,0,1,55.609,26.466Z" fill="#1085fd"/>
    <path d="M137.187,98.779H123.948l-1.483,2.722a16.206,16.206,0,0,0-1.134,12.91l1.467,4.375a5.567,5.567,0,0,1-5.279,7.337h-3.787a2,2,0,0,1-1.931,1.507H99.231v3.987h37.956l-8.416-15.463a2,2,0,0,1,0-1.912Z" fill="#1085fd"/>
    <path d="M109.8,123.63V90.792H102.1v18.143a8.8,8.8,0,0,1-8.8,8.8H57.612v5.9Z" fill="#de2f5c"/>
    <path d="M80.194,115.944H85.2c3.184,0,4.834-1.679,4.834-4.8V109.4c0-2.142-.666-3.647-2.373-4.226v-.058c1.417-.579,2.054-1.881,2.054-3.965v-.811c0-3.125-1.418-4.659-4.718-4.659h-4.8Zm6.339-15.282v1.129c0,1.62-.724,2.142-1.911,2.142H83.378V98.579h1.533C86.04,98.579,86.533,99.215,86.533,100.662ZM83.378,113.05v-6.224H84.8c1.447,0,2.055.58,2.055,2.461v1.766c0,1.505-.579,2-1.65,2Z" fill="#060928"/>
  </g>
</svg>
