<svg xmlns="http://www.w3.org/2000/svg" width="200" height="200" viewBox="0 0 200 200">
  <title>icons</title>
  <g>
    <polygon points="136.462 53.336 147.545 37.721 147.545 30.77 136.504 30.77 136.462 53.008 136.462 53.336" fill="#1085fd"/>
    <path d="M136.462,91.448v43.576a32.5,32.5,0,0,1-32.5,32.5H37.484v8.813H147.545V75.834Z" fill="#1085fd"/>
    <path d="M170.839,23.959l-8.367,11.788,5.732,4.069,7.648-10.774a2.248,2.248,0,0,0-.533-3.133l-3.749-2.661A2.933,2.933,0,0,0,170.839,23.959Z" fill="#1085fd"/>
    <polygon points="165.89 43.078 160.157 39.009 160.156 39.009 94.04 132.16 94.04 132.16 99.773 136.229 165.89 43.078" fill="#de2f5c"/>
    <polygon points="86.785 139.152 86.536 142.732 96.184 138.587 93.135 136.423 86.785 139.152" fill="#de2f5c"/>
    <path d="M179.113,31.357a6.246,6.246,0,0,0-1.479-8.71l-7.8-5.536a6.255,6.255,0,0,0-8.711,1.478l-8.805,12.405-.774,1.091V28.77a2,2,0,0,0-2-2H35.484a2,2,0,0,0-2,2V178.34a2,2,0,0,0,2,2H149.545a2,2,0,0,0,2-2V70.2l18.764-26.436ZM37.484,176.34V30.77H147.545v6.951L136.462,53.336l-33.255,46.853a16.855,16.855,0,0,0-9.013-.887c-2.043.449-3.907.81-5.552,1.129-7.825,1.513-12.994,2.513-12.408,9.671a2,2,0,1,0,3.987-.327c-.266-3.25.592-3.755,9.18-5.418,1.668-.322,3.56-.688,5.653-1.148a12.008,12.008,0,0,1,5.742.376L83.888,127.407l-.01.018c-.016.023-.027.048-.041.072a1.96,1.96,0,0,0-.176.348c-.018.045-.032.091-.047.138a2.011,2.011,0,0,0-.074.361c0,.028-.015.053-.017.082l-1.2,17.232c-11.278-3.907-18.332-13.99-20.952-30.036C57.2,90.075,80.462,68.7,80.7,68.485a2,2,0,0,0-2.68-2.969c-1.028.927-25.122,23.026-20.594,50.751,3.009,18.428,11.533,29.781,25.335,33.744a34.62,34.62,0,0,0,9.544,1.325,37.891,37.891,0,0,0,22.145-7.277,21.329,21.329,0,0,0,5.764-5.8c4.537-7.414,4.464-15.956-.075-23.809l16.326-23,11.083-15.614V176.34ZM116.8,136.171a17.507,17.507,0,0,1-4.7,4.651,33.374,33.374,0,0,1-25.08,6.057l14.018-6.024c.019-.007.033-.022.051-.03a1.957,1.957,0,0,0,.284-.17c.047-.033.1-.059.143-.1a1.909,1.909,0,0,0,.233-.242c.038-.044.083-.081.118-.129l.012-.013,15.674-22.083A18.143,18.143,0,0,1,116.8,136.171Zm-30.263,6.561.249-3.58.481-6.895,5.869,4.166,3.049,2.164Zm13.237-6.5L94.04,132.16h0l-5.733-4.069L154.424,34.94l5.732,4.069h0l5.733,4.069ZM167.521,20.373l4.049,2.875,3.749,2.661a2.248,2.248,0,0,1,.533,3.133L168.2,39.816l-5.732-4.069-5.733-4.068,7.647-10.774A2.252,2.252,0,0,1,167.521,20.373Z" fill="#060928"/>
    <path d="M83.243,82.1A2,2,0,0,0,86,81.475c1.4-2.213,10.24-9.622,15.484-13.773a2,2,0,0,0-2.482-3.137c-1.442,1.143-14.16,11.259-16.383,14.771A2,2,0,0,0,83.243,82.1Z" fill="#060928"/>
  </g>
</svg>
